<svg xmlns="http://www.w3.org/2000/svg" width="391" height="391" viewBox="0 0 391 391">
  <g id="Grupo_663" data-name="Grupo 663" transform="translate(0)" opacity="0.2">
    <ellipse id="Elipse_30" data-name="Elipse 30" cx="3.805" cy="3.805" rx="3.805" ry="3.805" transform="translate(0 383.39)" fill="#a0cb39"/>
    <path id="Caminho_434" data-name="Caminho 434" d="M334.251,149.428a3.805,3.805,0,1,0,3.808,3.8A3.8,3.8,0,0,0,334.251,149.428Z" transform="translate(-310.27 213.783)" fill="#a0cb39"/>
    <path id="Caminho_435" data-name="Caminho 435" d="M338.893,149.428a3.805,3.805,0,1,0,3.808,3.8A3.8,3.8,0,0,0,338.893,149.428Z" transform="translate(-335.089 213.783)" fill="#a0cb39"/>
    <path id="Caminho_436" data-name="Caminho 436" d="M329.613,154.071a3.8,3.8,0,1,0,3.8,3.8A3.806,3.806,0,0,0,329.613,154.071Z" transform="translate(-285.451 188.963)" fill="#a0cb39"/>
    <path id="Caminho_437" data-name="Caminho 437" d="M334.251,154.071a3.8,3.8,0,1,0,3.808,3.8A3.8,3.8,0,0,0,334.251,154.071Z" transform="translate(-310.27 188.963)" fill="#a0cb39"/>
    <path id="Caminho_438" data-name="Caminho 438" d="M338.893,154.071a3.8,3.8,0,1,0,3.808,3.8A3.8,3.8,0,0,0,338.893,154.071Z" transform="translate(-335.089 188.963)" fill="#a0cb39"/>
    <path id="Caminho_439" data-name="Caminho 439" d="M324.966,158.713a3.805,3.805,0,1,0,3.808,3.808A3.806,3.806,0,0,0,324.966,158.713Z" transform="translate(-260.627 164.14)" fill="#a0cb39"/>
    <ellipse id="Elipse_31" data-name="Elipse 31" cx="3.805" cy="3.805" rx="3.805" ry="3.805" transform="translate(40.357 322.854)" fill="#a0cb39"/>
    <path id="Caminho_440" data-name="Caminho 440" d="M334.251,158.713a3.805,3.805,0,1,0,3.808,3.808A3.806,3.806,0,0,0,334.251,158.713Z" transform="translate(-310.27 164.14)" fill="#a0cb39"/>
    <ellipse id="Elipse_32" data-name="Elipse 32" cx="3.805" cy="3.805" rx="3.805" ry="3.805" transform="translate(0 322.854)" fill="#a0cb39"/>
    <path id="Caminho_441" data-name="Caminho 441" d="M320.329,163.355a3.805,3.805,0,1,0,3.8,3.8A3.806,3.806,0,0,0,320.329,163.355Z" transform="translate(-235.808 139.321)" fill="#a0cb39"/>
    <path id="Caminho_442" data-name="Caminho 442" d="M324.966,163.355a3.805,3.805,0,1,0,3.808,3.8A3.8,3.8,0,0,0,324.966,163.355Z" transform="translate(-260.627 139.321)" fill="#a0cb39"/>
    <path id="Caminho_443" data-name="Caminho 443" d="M329.613,163.355a3.805,3.805,0,1,0,3.8,3.8A3.806,3.806,0,0,0,329.613,163.355Z" transform="translate(-285.451 139.321)" fill="#a0cb39"/>
    <path id="Caminho_444" data-name="Caminho 444" d="M334.251,163.355a3.805,3.805,0,1,0,3.808,3.8A3.8,3.8,0,0,0,334.251,163.355Z" transform="translate(-310.27 139.321)" fill="#a0cb39"/>
    <path id="Caminho_445" data-name="Caminho 445" d="M338.893,163.355a3.805,3.805,0,1,0,3.808,3.8A3.8,3.8,0,0,0,338.893,163.355Z" transform="translate(-335.089 139.321)" fill="#a0cb39"/>
    <ellipse id="Elipse_33" data-name="Elipse 33" cx="3.805" cy="3.805" rx="3.805" ry="3.805" transform="translate(100.893 282.497)" fill="#a0cb39"/>
    <path id="Caminho_446" data-name="Caminho 446" d="M320.329,168a3.8,3.8,0,1,0,3.8,3.8A3.806,3.806,0,0,0,320.329,168Z" transform="translate(-235.808 114.501)" fill="#a0cb39"/>
    <path id="Caminho_447" data-name="Caminho 447" d="M324.966,168a3.8,3.8,0,1,0,3.808,3.8A3.8,3.8,0,0,0,324.966,168Z" transform="translate(-260.627 114.501)" fill="#a0cb39"/>
    <ellipse id="Elipse_34" data-name="Elipse 34" cx="3.805" cy="3.805" rx="3.805" ry="3.805" transform="translate(40.357 282.497)" fill="#a0cb39"/>
    <path id="Caminho_448" data-name="Caminho 448" d="M334.251,168a3.8,3.8,0,1,0,3.808,3.8A3.8,3.8,0,0,0,334.251,168Z" transform="translate(-310.27 114.501)" fill="#a0cb39"/>
    <ellipse id="Elipse_35" data-name="Elipse 35" cx="3.805" cy="3.805" rx="3.805" ry="3.805" transform="translate(0 282.497)" fill="#a0cb39"/>
    <path id="Caminho_449" data-name="Caminho 449" d="M311.039,172.64a3.805,3.805,0,1,0,3.808,3.808A3.806,3.806,0,0,0,311.039,172.64Z" transform="translate(-186.165 89.678)" fill="#a0cb39"/>
    <path id="Caminho_450" data-name="Caminho 450" d="M315.682,172.64a3.805,3.805,0,1,0,3.8,3.808A3.806,3.806,0,0,0,315.682,172.64Z" transform="translate(-210.985 89.678)" fill="#a0cb39"/>
    <path id="Caminho_451" data-name="Caminho 451" d="M320.329,172.64a3.805,3.805,0,1,0,3.8,3.808A3.807,3.807,0,0,0,320.329,172.64Z" transform="translate(-235.808 89.678)" fill="#a0cb39"/>
    <path id="Caminho_452" data-name="Caminho 452" d="M324.966,172.64a3.805,3.805,0,1,0,3.808,3.808A3.806,3.806,0,0,0,324.966,172.64Z" transform="translate(-260.627 89.678)" fill="#a0cb39"/>
    <path id="Caminho_453" data-name="Caminho 453" d="M329.613,172.64a3.805,3.805,0,1,0,3.8,3.808A3.807,3.807,0,0,0,329.613,172.64Z" transform="translate(-285.451 89.678)" fill="#a0cb39"/>
    <path id="Caminho_454" data-name="Caminho 454" d="M334.251,172.64a3.805,3.805,0,1,0,3.808,3.808A3.806,3.806,0,0,0,334.251,172.64Z" transform="translate(-310.27 89.678)" fill="#a0cb39"/>
    <path id="Caminho_455" data-name="Caminho 455" d="M338.893,172.64a3.805,3.805,0,1,0,3.808,3.808A3.806,3.806,0,0,0,338.893,172.64Z" transform="translate(-335.089 89.678)" fill="#a0cb39"/>
    <path id="Caminho_456" data-name="Caminho 456" d="M306.4,177.282a3.805,3.805,0,1,0,3.8,3.8A3.806,3.806,0,0,0,306.4,177.282Z" transform="translate(-161.346 64.859)" fill="#a0cb39"/>
    <path id="Caminho_457" data-name="Caminho 457" d="M311.039,177.282a3.805,3.805,0,1,0,3.808,3.8A3.8,3.8,0,0,0,311.039,177.282Z" transform="translate(-186.165 64.859)" fill="#a0cb39"/>
    <path id="Caminho_458" data-name="Caminho 458" d="M315.682,177.282a3.805,3.805,0,1,0,3.8,3.8A3.8,3.8,0,0,0,315.682,177.282Z" transform="translate(-210.985 64.859)" fill="#a0cb39"/>
    <path id="Caminho_459" data-name="Caminho 459" d="M320.329,177.282a3.805,3.805,0,1,0,3.8,3.8A3.806,3.806,0,0,0,320.329,177.282Z" transform="translate(-235.808 64.859)" fill="#a0cb39"/>
    <path id="Caminho_460" data-name="Caminho 460" d="M324.966,177.282a3.805,3.805,0,1,0,3.808,3.8A3.8,3.8,0,0,0,324.966,177.282Z" transform="translate(-260.627 64.859)" fill="#a0cb39"/>
    <path id="Caminho_461" data-name="Caminho 461" d="M329.613,177.282a3.805,3.805,0,1,0,3.8,3.8A3.806,3.806,0,0,0,329.613,177.282Z" transform="translate(-285.451 64.859)" fill="#a0cb39"/>
    <path id="Caminho_462" data-name="Caminho 462" d="M334.251,177.282a3.805,3.805,0,1,0,3.808,3.8A3.8,3.8,0,0,0,334.251,177.282Z" transform="translate(-310.27 64.859)" fill="#a0cb39"/>
    <path id="Caminho_463" data-name="Caminho 463" d="M338.893,177.282a3.805,3.805,0,1,0,3.808,3.8A3.8,3.8,0,0,0,338.893,177.282Z" transform="translate(-335.089 64.859)" fill="#a0cb39"/>
    <path id="Caminho_464" data-name="Caminho 464" d="M301.755,181.925a3.8,3.8,0,1,0,3.8,3.8A3.8,3.8,0,0,0,301.755,181.925Z" transform="translate(-136.522 40.039)" fill="#a0cb39"/>
    <ellipse id="Elipse_36" data-name="Elipse 36" cx="3.805" cy="3.805" rx="3.805" ry="3.805" transform="translate(141.25 221.962)" fill="#a0cb39"/>
    <path id="Caminho_465" data-name="Caminho 465" d="M311.039,181.925a3.8,3.8,0,1,0,3.808,3.8A3.8,3.8,0,0,0,311.039,181.925Z" transform="translate(-186.165 40.039)" fill="#a0cb39"/>
    <ellipse id="Elipse_37" data-name="Elipse 37" cx="3.805" cy="3.805" rx="3.805" ry="3.805" transform="translate(100.893 221.962)" fill="#a0cb39"/>
    <path id="Caminho_466" data-name="Caminho 466" d="M320.329,181.925a3.8,3.8,0,1,0,3.8,3.8A3.8,3.8,0,0,0,320.329,181.925Z" transform="translate(-235.808 40.039)" fill="#a0cb39"/>
    <path id="Caminho_467" data-name="Caminho 467" d="M324.966,181.925a3.8,3.8,0,1,0,3.808,3.8A3.8,3.8,0,0,0,324.966,181.925Z" transform="translate(-260.627 40.039)" fill="#a0cb39"/>
    <ellipse id="Elipse_38" data-name="Elipse 38" cx="3.805" cy="3.805" rx="3.805" ry="3.805" transform="translate(40.357 221.962)" fill="#a0cb39"/>
    <path id="Caminho_468" data-name="Caminho 468" d="M334.251,181.925a3.8,3.8,0,1,0,3.808,3.8A3.8,3.8,0,0,0,334.251,181.925Z" transform="translate(-310.27 40.039)" fill="#a0cb39"/>
    <ellipse id="Elipse_39" data-name="Elipse 39" cx="3.805" cy="3.805" rx="3.805" ry="3.805" transform="translate(0 221.962)" fill="#a0cb39"/>
    <path id="Caminho_469" data-name="Caminho 469" d="M297.112,186.567a3.805,3.805,0,1,0,3.808,3.808A3.806,3.806,0,0,0,297.112,186.567Z" transform="translate(-111.702 15.216)" fill="#a0cb39"/>
    <path id="Caminho_470" data-name="Caminho 470" d="M301.755,186.567a3.805,3.805,0,1,0,3.8,3.808A3.806,3.806,0,0,0,301.755,186.567Z" transform="translate(-136.522 15.216)" fill="#a0cb39"/>
    <path id="Caminho_471" data-name="Caminho 471" d="M306.4,186.567a3.805,3.805,0,1,0,3.8,3.808A3.807,3.807,0,0,0,306.4,186.567Z" transform="translate(-161.346 15.216)" fill="#a0cb39"/>
    <path id="Caminho_472" data-name="Caminho 472" d="M311.039,186.567a3.805,3.805,0,1,0,3.808,3.808A3.806,3.806,0,0,0,311.039,186.567Z" transform="translate(-186.165 15.216)" fill="#a0cb39"/>
    <path id="Caminho_473" data-name="Caminho 473" d="M315.682,186.567a3.805,3.805,0,1,0,3.8,3.808A3.806,3.806,0,0,0,315.682,186.567Z" transform="translate(-210.985 15.216)" fill="#a0cb39"/>
    <path id="Caminho_474" data-name="Caminho 474" d="M320.329,186.567a3.805,3.805,0,1,0,3.8,3.808A3.807,3.807,0,0,0,320.329,186.567Z" transform="translate(-235.808 15.216)" fill="#a0cb39"/>
    <path id="Caminho_475" data-name="Caminho 475" d="M324.966,186.567a3.805,3.805,0,1,0,3.808,3.808A3.806,3.806,0,0,0,324.966,186.567Z" transform="translate(-260.627 15.216)" fill="#a0cb39"/>
    <path id="Caminho_476" data-name="Caminho 476" d="M329.613,186.567a3.805,3.805,0,1,0,3.8,3.808A3.807,3.807,0,0,0,329.613,186.567Z" transform="translate(-285.451 15.216)" fill="#a0cb39"/>
    <path id="Caminho_477" data-name="Caminho 477" d="M334.251,186.567a3.805,3.805,0,1,0,3.808,3.808A3.806,3.806,0,0,0,334.251,186.567Z" transform="translate(-310.27 15.216)" fill="#a0cb39"/>
    <path id="Caminho_478" data-name="Caminho 478" d="M338.893,186.567a3.805,3.805,0,1,0,3.808,3.808A3.806,3.806,0,0,0,338.893,186.567Z" transform="translate(-335.089 15.216)" fill="#a0cb39"/>
    <ellipse id="Elipse_40" data-name="Elipse 40" cx="3.805" cy="3.805" rx="3.805" ry="3.805" transform="translate(201.785 181.605)" fill="#a0cb39"/>
    <path id="Caminho_479" data-name="Caminho 479" d="M297.112,191.209a3.805,3.805,0,1,0,3.808,3.8A3.8,3.8,0,0,0,297.112,191.209Z" transform="translate(-111.702 -9.603)" fill="#a0cb39"/>
    <path id="Caminho_480" data-name="Caminho 480" d="M301.755,191.209a3.805,3.805,0,1,0,3.8,3.8A3.8,3.8,0,0,0,301.755,191.209Z" transform="translate(-136.522 -9.603)" fill="#a0cb39"/>
    <ellipse id="Elipse_41" data-name="Elipse 41" cx="3.805" cy="3.805" rx="3.805" ry="3.805" transform="translate(141.25 181.605)" fill="#a0cb39"/>
    <path id="Caminho_481" data-name="Caminho 481" d="M311.039,191.209a3.805,3.805,0,1,0,3.808,3.8A3.8,3.8,0,0,0,311.039,191.209Z" transform="translate(-186.165 -9.603)" fill="#a0cb39"/>
    <ellipse id="Elipse_42" data-name="Elipse 42" cx="3.805" cy="3.805" rx="3.805" ry="3.805" transform="translate(100.893 181.605)" fill="#a0cb39"/>
    <path id="Caminho_482" data-name="Caminho 482" d="M320.329,191.209a3.805,3.805,0,1,0,3.8,3.8A3.806,3.806,0,0,0,320.329,191.209Z" transform="translate(-235.808 -9.603)" fill="#a0cb39"/>
    <path id="Caminho_483" data-name="Caminho 483" d="M324.966,191.209a3.805,3.805,0,1,0,3.808,3.8A3.8,3.8,0,0,0,324.966,191.209Z" transform="translate(-260.627 -9.603)" fill="#a0cb39"/>
    <ellipse id="Elipse_43" data-name="Elipse 43" cx="3.805" cy="3.805" rx="3.805" ry="3.805" transform="translate(40.357 181.605)" fill="#a0cb39"/>
    <path id="Caminho_484" data-name="Caminho 484" d="M334.251,191.209a3.805,3.805,0,1,0,3.808,3.8A3.8,3.8,0,0,0,334.251,191.209Z" transform="translate(-310.27 -9.603)" fill="#a0cb39"/>
    <ellipse id="Elipse_44" data-name="Elipse 44" cx="3.805" cy="3.805" rx="3.805" ry="3.805" transform="translate(0 181.605)" fill="#a0cb39"/>
    <path id="Caminho_485" data-name="Caminho 485" d="M287.827,195.852a3.805,3.805,0,1,0,3.808,3.808A3.806,3.806,0,0,0,287.827,195.852Z" transform="translate(-62.059 -34.428)" fill="#a0cb39"/>
    <ellipse id="Elipse_45" data-name="Elipse 45" cx="3.805" cy="3.805" rx="3.805" ry="3.805" transform="translate(201.785 161.426)" fill="#a0cb39"/>
    <path id="Caminho_486" data-name="Caminho 486" d="M297.112,195.852a3.805,3.805,0,1,0,3.808,3.808A3.806,3.806,0,0,0,297.112,195.852Z" transform="translate(-111.702 -34.428)" fill="#a0cb39"/>
    <path id="Caminho_487" data-name="Caminho 487" d="M301.755,195.852a3.805,3.805,0,1,0,3.8,3.808A3.806,3.806,0,0,0,301.755,195.852Z" transform="translate(-136.522 -34.428)" fill="#a0cb39"/>
    <ellipse id="Elipse_46" data-name="Elipse 46" cx="3.805" cy="3.805" rx="3.805" ry="3.805" transform="translate(141.25 161.426)" fill="#a0cb39"/>
    <path id="Caminho_488" data-name="Caminho 488" d="M311.039,195.852a3.805,3.805,0,1,0,3.808,3.808A3.806,3.806,0,0,0,311.039,195.852Z" transform="translate(-186.165 -34.428)" fill="#a0cb39"/>
    <ellipse id="Elipse_47" data-name="Elipse 47" cx="3.805" cy="3.805" rx="3.805" ry="3.805" transform="translate(100.893 161.426)" fill="#a0cb39"/>
    <path id="Caminho_489" data-name="Caminho 489" d="M320.329,195.852a3.805,3.805,0,1,0,3.8,3.808A3.807,3.807,0,0,0,320.329,195.852Z" transform="translate(-235.808 -34.428)" fill="#a0cb39"/>
    <path id="Caminho_490" data-name="Caminho 490" d="M324.966,195.852a3.805,3.805,0,1,0,3.808,3.808A3.806,3.806,0,0,0,324.966,195.852Z" transform="translate(-260.627 -34.428)" fill="#a0cb39"/>
    <ellipse id="Elipse_48" data-name="Elipse 48" cx="3.805" cy="3.805" rx="3.805" ry="3.805" transform="translate(40.357 161.426)" fill="#a0cb39"/>
    <path id="Caminho_491" data-name="Caminho 491" d="M334.251,195.852a3.805,3.805,0,1,0,3.808,3.808A3.806,3.806,0,0,0,334.251,195.852Z" transform="translate(-310.27 -34.428)" fill="#a0cb39"/>
    <ellipse id="Elipse_49" data-name="Elipse 49" cx="3.805" cy="3.805" rx="3.805" ry="3.805" transform="translate(0 161.426)" fill="#a0cb39"/>
    <path id="Caminho_492" data-name="Caminho 492" d="M283.19,200.494a3.805,3.805,0,1,0,3.8,3.808A3.806,3.806,0,0,0,283.19,200.494Z" transform="translate(-37.24 -59.247)" fill="#a0cb39"/>
    <path id="Caminho_493" data-name="Caminho 493" d="M287.827,200.494a3.805,3.805,0,1,0,3.808,3.808A3.806,3.806,0,0,0,287.827,200.494Z" transform="translate(-62.059 -59.247)" fill="#a0cb39"/>
    <path id="Caminho_494" data-name="Caminho 494" d="M292.475,200.494a3.805,3.805,0,1,0,3.8,3.808A3.806,3.806,0,0,0,292.475,200.494Z" transform="translate(-86.883 -59.247)" fill="#a0cb39"/>
    <path id="Caminho_495" data-name="Caminho 495" d="M297.112,200.494a3.805,3.805,0,1,0,3.808,3.808A3.806,3.806,0,0,0,297.112,200.494Z" transform="translate(-111.702 -59.247)" fill="#a0cb39"/>
    <path id="Caminho_496" data-name="Caminho 496" d="M301.755,200.494a3.805,3.805,0,1,0,3.8,3.808A3.806,3.806,0,0,0,301.755,200.494Z" transform="translate(-136.522 -59.247)" fill="#a0cb39"/>
    <path id="Caminho_497" data-name="Caminho 497" d="M306.4,200.494a3.805,3.805,0,1,0,3.8,3.808A3.807,3.807,0,0,0,306.4,200.494Z" transform="translate(-161.346 -59.247)" fill="#a0cb39"/>
    <path id="Caminho_498" data-name="Caminho 498" d="M311.039,200.494a3.805,3.805,0,1,0,3.808,3.808A3.806,3.806,0,0,0,311.039,200.494Z" transform="translate(-186.165 -59.247)" fill="#a0cb39"/>
    <path id="Caminho_499" data-name="Caminho 499" d="M315.682,200.494a3.805,3.805,0,1,0,3.8,3.808A3.806,3.806,0,0,0,315.682,200.494Z" transform="translate(-210.985 -59.247)" fill="#a0cb39"/>
    <path id="Caminho_500" data-name="Caminho 500" d="M320.329,200.494a3.805,3.805,0,1,0,3.8,3.808A3.806,3.806,0,0,0,320.329,200.494Z" transform="translate(-235.808 -59.247)" fill="#a0cb39"/>
    <path id="Caminho_501" data-name="Caminho 501" d="M324.966,200.494a3.805,3.805,0,1,0,3.808,3.808A3.806,3.806,0,0,0,324.966,200.494Z" transform="translate(-260.627 -59.247)" fill="#a0cb39"/>
    <path id="Caminho_502" data-name="Caminho 502" d="M329.613,200.494a3.805,3.805,0,1,0,3.8,3.808A3.806,3.806,0,0,0,329.613,200.494Z" transform="translate(-285.451 -59.247)" fill="#a0cb39"/>
    <path id="Caminho_503" data-name="Caminho 503" d="M334.251,200.494a3.805,3.805,0,1,0,3.808,3.808A3.806,3.806,0,0,0,334.251,200.494Z" transform="translate(-310.27 -59.247)" fill="#a0cb39"/>
    <path id="Caminho_504" data-name="Caminho 504" d="M338.893,200.494A3.805,3.805,0,1,0,342.7,204.3,3.806,3.806,0,0,0,338.893,200.494Z" transform="translate(-335.089 -59.247)" fill="#a0cb39"/>
    <path id="Caminho_505" data-name="Caminho 505" d="M278.543,205.136a3.805,3.805,0,1,0,3.8,3.8A3.8,3.8,0,0,0,278.543,205.136Z" transform="translate(-12.417 -84.066)" fill="#a0cb39"/>
    <ellipse id="Elipse_50" data-name="Elipse 50" cx="3.805" cy="3.805" rx="3.805" ry="3.805" transform="translate(242.142 121.069)" fill="#a0cb39"/>
    <path id="Caminho_506" data-name="Caminho 506" d="M287.827,205.136a3.805,3.805,0,1,0,3.808,3.8A3.8,3.8,0,0,0,287.827,205.136Z" transform="translate(-62.059 -84.066)" fill="#a0cb39"/>
    <ellipse id="Elipse_51" data-name="Elipse 51" cx="3.805" cy="3.805" rx="3.805" ry="3.805" transform="translate(201.785 121.069)" fill="#a0cb39"/>
    <path id="Caminho_507" data-name="Caminho 507" d="M297.112,205.136a3.805,3.805,0,1,0,3.808,3.8A3.8,3.8,0,0,0,297.112,205.136Z" transform="translate(-111.702 -84.066)" fill="#a0cb39"/>
    <path id="Caminho_508" data-name="Caminho 508" d="M301.755,205.136a3.805,3.805,0,1,0,3.8,3.8A3.8,3.8,0,0,0,301.755,205.136Z" transform="translate(-136.522 -84.066)" fill="#a0cb39"/>
    <ellipse id="Elipse_52" data-name="Elipse 52" cx="3.805" cy="3.805" rx="3.805" ry="3.805" transform="translate(141.25 121.069)" fill="#a0cb39"/>
    <path id="Caminho_509" data-name="Caminho 509" d="M311.039,205.136a3.805,3.805,0,1,0,3.808,3.8A3.8,3.8,0,0,0,311.039,205.136Z" transform="translate(-186.165 -84.066)" fill="#a0cb39"/>
    <ellipse id="Elipse_53" data-name="Elipse 53" cx="3.805" cy="3.805" rx="3.805" ry="3.805" transform="translate(100.893 121.069)" fill="#a0cb39"/>
    <path id="Caminho_510" data-name="Caminho 510" d="M320.329,205.136a3.805,3.805,0,1,0,3.8,3.8A3.806,3.806,0,0,0,320.329,205.136Z" transform="translate(-235.808 -84.066)" fill="#a0cb39"/>
    <path id="Caminho_511" data-name="Caminho 511" d="M324.966,205.136a3.805,3.805,0,1,0,3.808,3.8A3.8,3.8,0,0,0,324.966,205.136Z" transform="translate(-260.627 -84.066)" fill="#a0cb39"/>
    <ellipse id="Elipse_54" data-name="Elipse 54" cx="3.805" cy="3.805" rx="3.805" ry="3.805" transform="translate(40.357 121.069)" fill="#a0cb39"/>
    <path id="Caminho_512" data-name="Caminho 512" d="M334.251,205.136a3.805,3.805,0,1,0,3.808,3.8A3.8,3.8,0,0,0,334.251,205.136Z" transform="translate(-310.27 -84.066)" fill="#a0cb39"/>
    <ellipse id="Elipse_55" data-name="Elipse 55" cx="3.805" cy="3.805" rx="3.805" ry="3.805" transform="translate(0 121.069)" fill="#a0cb39"/>
    <path id="Caminho_513" data-name="Caminho 513" d="M273.9,209.779a3.805,3.805,0,1,0,3.808,3.808A3.806,3.806,0,0,0,273.9,209.779Z" transform="translate(12.403 -108.89)" fill="#a0cb39"/>
    <path id="Caminho_514" data-name="Caminho 514" d="M278.543,209.779a3.805,3.805,0,1,0,3.8,3.808A3.8,3.8,0,0,0,278.543,209.779Z" transform="translate(-12.417 -108.89)" fill="#a0cb39"/>
    <path id="Caminho_515" data-name="Caminho 515" d="M283.19,209.779a3.805,3.805,0,1,0,3.8,3.808A3.806,3.806,0,0,0,283.19,209.779Z" transform="translate(-37.24 -108.89)" fill="#a0cb39"/>
    <path id="Caminho_516" data-name="Caminho 516" d="M287.827,209.779a3.805,3.805,0,1,0,3.808,3.808A3.806,3.806,0,0,0,287.827,209.779Z" transform="translate(-62.059 -108.89)" fill="#a0cb39"/>
    <path id="Caminho_517" data-name="Caminho 517" d="M292.475,209.779a3.805,3.805,0,1,0,3.8,3.808A3.806,3.806,0,0,0,292.475,209.779Z" transform="translate(-86.883 -108.89)" fill="#a0cb39"/>
    <path id="Caminho_518" data-name="Caminho 518" d="M297.112,209.779a3.805,3.805,0,1,0,3.808,3.808A3.806,3.806,0,0,0,297.112,209.779Z" transform="translate(-111.702 -108.89)" fill="#a0cb39"/>
    <path id="Caminho_519" data-name="Caminho 519" d="M301.755,209.779a3.805,3.805,0,1,0,3.8,3.808A3.806,3.806,0,0,0,301.755,209.779Z" transform="translate(-136.522 -108.89)" fill="#a0cb39"/>
    <path id="Caminho_520" data-name="Caminho 520" d="M306.4,209.779a3.805,3.805,0,1,0,3.8,3.808A3.807,3.807,0,0,0,306.4,209.779Z" transform="translate(-161.346 -108.89)" fill="#a0cb39"/>
    <path id="Caminho_521" data-name="Caminho 521" d="M311.039,209.779a3.805,3.805,0,1,0,3.808,3.808A3.806,3.806,0,0,0,311.039,209.779Z" transform="translate(-186.165 -108.89)" fill="#a0cb39"/>
    <path id="Caminho_522" data-name="Caminho 522" d="M315.682,209.779a3.805,3.805,0,1,0,3.8,3.808A3.806,3.806,0,0,0,315.682,209.779Z" transform="translate(-210.985 -108.89)" fill="#a0cb39"/>
    <path id="Caminho_523" data-name="Caminho 523" d="M320.329,209.779a3.805,3.805,0,1,0,3.8,3.808A3.806,3.806,0,0,0,320.329,209.779Z" transform="translate(-235.808 -108.89)" fill="#a0cb39"/>
    <path id="Caminho_524" data-name="Caminho 524" d="M324.966,209.779a3.805,3.805,0,1,0,3.808,3.808A3.806,3.806,0,0,0,324.966,209.779Z" transform="translate(-260.627 -108.89)" fill="#a0cb39"/>
    <path id="Caminho_525" data-name="Caminho 525" d="M329.613,209.779a3.805,3.805,0,1,0,3.8,3.808A3.806,3.806,0,0,0,329.613,209.779Z" transform="translate(-285.451 -108.89)" fill="#a0cb39"/>
    <path id="Caminho_526" data-name="Caminho 526" d="M334.251,209.779a3.805,3.805,0,1,0,3.808,3.808A3.806,3.806,0,0,0,334.251,209.779Z" transform="translate(-310.27 -108.89)" fill="#a0cb39"/>
    <path id="Caminho_527" data-name="Caminho 527" d="M338.893,209.779a3.805,3.805,0,1,0,3.808,3.808A3.806,3.806,0,0,0,338.893,209.779Z" transform="translate(-335.089 -108.89)" fill="#a0cb39"/>
    <path id="Caminho_528" data-name="Caminho 528" d="M269.263,214.421a3.805,3.805,0,1,0,3.8,3.8A3.806,3.806,0,0,0,269.263,214.421Z" transform="translate(37.222 -133.709)" fill="#a0cb39"/>
    <path id="Caminho_529" data-name="Caminho 529" d="M273.9,214.421a3.805,3.805,0,1,0,3.808,3.8A3.8,3.8,0,0,0,273.9,214.421Z" transform="translate(12.403 -133.709)" fill="#a0cb39"/>
    <path id="Caminho_530" data-name="Caminho 530" d="M278.543,214.421a3.805,3.805,0,1,0,3.8,3.8A3.8,3.8,0,0,0,278.543,214.421Z" transform="translate(-12.417 -133.709)" fill="#a0cb39"/>
    <path id="Caminho_531" data-name="Caminho 531" d="M283.19,214.421a3.805,3.805,0,1,0,3.8,3.8A3.806,3.806,0,0,0,283.19,214.421Z" transform="translate(-37.24 -133.709)" fill="#a0cb39"/>
    <path id="Caminho_532" data-name="Caminho 532" d="M287.827,214.421a3.805,3.805,0,1,0,3.808,3.8A3.8,3.8,0,0,0,287.827,214.421Z" transform="translate(-62.059 -133.709)" fill="#a0cb39"/>
    <path id="Caminho_533" data-name="Caminho 533" d="M292.475,214.421a3.805,3.805,0,1,0,3.8,3.8A3.806,3.806,0,0,0,292.475,214.421Z" transform="translate(-86.883 -133.709)" fill="#a0cb39"/>
    <path id="Caminho_534" data-name="Caminho 534" d="M297.112,214.421a3.805,3.805,0,1,0,3.808,3.8A3.8,3.8,0,0,0,297.112,214.421Z" transform="translate(-111.702 -133.709)" fill="#a0cb39"/>
    <path id="Caminho_535" data-name="Caminho 535" d="M301.755,214.421a3.805,3.805,0,1,0,3.8,3.8A3.8,3.8,0,0,0,301.755,214.421Z" transform="translate(-136.522 -133.709)" fill="#a0cb39"/>
    <path id="Caminho_536" data-name="Caminho 536" d="M306.4,214.421a3.805,3.805,0,1,0,3.8,3.8A3.806,3.806,0,0,0,306.4,214.421Z" transform="translate(-161.346 -133.709)" fill="#a0cb39"/>
    <path id="Caminho_537" data-name="Caminho 537" d="M311.039,214.421a3.805,3.805,0,1,0,3.808,3.8A3.8,3.8,0,0,0,311.039,214.421Z" transform="translate(-186.165 -133.709)" fill="#a0cb39"/>
    <path id="Caminho_538" data-name="Caminho 538" d="M315.682,214.421a3.805,3.805,0,1,0,3.8,3.8A3.8,3.8,0,0,0,315.682,214.421Z" transform="translate(-210.985 -133.709)" fill="#a0cb39"/>
    <path id="Caminho_539" data-name="Caminho 539" d="M320.329,214.421a3.805,3.805,0,1,0,3.8,3.8A3.806,3.806,0,0,0,320.329,214.421Z" transform="translate(-235.808 -133.709)" fill="#a0cb39"/>
    <path id="Caminho_540" data-name="Caminho 540" d="M324.966,214.421a3.805,3.805,0,1,0,3.808,3.8A3.8,3.8,0,0,0,324.966,214.421Z" transform="translate(-260.627 -133.709)" fill="#a0cb39"/>
    <path id="Caminho_541" data-name="Caminho 541" d="M329.613,214.421a3.805,3.805,0,1,0,3.8,3.8A3.806,3.806,0,0,0,329.613,214.421Z" transform="translate(-285.451 -133.709)" fill="#a0cb39"/>
    <path id="Caminho_542" data-name="Caminho 542" d="M334.251,214.421a3.805,3.805,0,1,0,3.808,3.8A3.8,3.8,0,0,0,334.251,214.421Z" transform="translate(-310.27 -133.709)" fill="#a0cb39"/>
    <path id="Caminho_543" data-name="Caminho 543" d="M338.893,214.421a3.805,3.805,0,1,0,3.808,3.8A3.8,3.8,0,0,0,338.893,214.421Z" transform="translate(-335.089 -133.709)" fill="#a0cb39"/>
    <path id="Caminho_544" data-name="Caminho 544" d="M264.616,219.064a3.8,3.8,0,1,0,3.8,3.8A3.8,3.8,0,0,0,264.616,219.064Z" transform="translate(62.045 -158.529)" fill="#a0cb39"/>
    <ellipse id="Elipse_56" data-name="Elipse 56" cx="3.805" cy="3.805" rx="3.805" ry="3.805" transform="translate(302.678 60.533)" fill="#a0cb39"/>
    <path id="Caminho_545" data-name="Caminho 545" d="M273.9,219.064a3.8,3.8,0,1,0,3.808,3.8A3.8,3.8,0,0,0,273.9,219.064Z" transform="translate(12.403 -158.529)" fill="#a0cb39"/>
    <path id="Caminho_546" data-name="Caminho 546" d="M278.543,219.064a3.8,3.8,0,1,0,3.8,3.8A3.8,3.8,0,0,0,278.543,219.064Z" transform="translate(-12.417 -158.529)" fill="#a0cb39"/>
    <ellipse id="Elipse_57" data-name="Elipse 57" cx="3.805" cy="3.805" rx="3.805" ry="3.805" transform="translate(242.142 60.533)" fill="#a0cb39"/>
    <path id="Caminho_547" data-name="Caminho 547" d="M287.827,219.064a3.8,3.8,0,1,0,3.808,3.8A3.8,3.8,0,0,0,287.827,219.064Z" transform="translate(-62.059 -158.529)" fill="#a0cb39"/>
    <ellipse id="Elipse_58" data-name="Elipse 58" cx="3.805" cy="3.805" rx="3.805" ry="3.805" transform="translate(201.785 60.533)" fill="#a0cb39"/>
    <path id="Caminho_548" data-name="Caminho 548" d="M297.112,219.064a3.8,3.8,0,1,0,3.808,3.8A3.8,3.8,0,0,0,297.112,219.064Z" transform="translate(-111.702 -158.529)" fill="#a0cb39"/>
    <path id="Caminho_549" data-name="Caminho 549" d="M301.755,219.064a3.8,3.8,0,1,0,3.8,3.8A3.8,3.8,0,0,0,301.755,219.064Z" transform="translate(-136.522 -158.529)" fill="#a0cb39"/>
    <ellipse id="Elipse_59" data-name="Elipse 59" cx="3.805" cy="3.805" rx="3.805" ry="3.805" transform="translate(141.25 60.533)" fill="#a0cb39"/>
    <path id="Caminho_550" data-name="Caminho 550" d="M311.039,219.064a3.8,3.8,0,1,0,3.808,3.8A3.8,3.8,0,0,0,311.039,219.064Z" transform="translate(-186.165 -158.529)" fill="#a0cb39"/>
    <ellipse id="Elipse_60" data-name="Elipse 60" cx="3.805" cy="3.805" rx="3.805" ry="3.805" transform="translate(100.893 60.533)" fill="#a0cb39"/>
    <path id="Caminho_551" data-name="Caminho 551" d="M320.329,219.064a3.8,3.8,0,1,0,3.8,3.8A3.806,3.806,0,0,0,320.329,219.064Z" transform="translate(-235.808 -158.529)" fill="#a0cb39"/>
    <path id="Caminho_552" data-name="Caminho 552" d="M324.966,219.064a3.8,3.8,0,1,0,3.808,3.8A3.8,3.8,0,0,0,324.966,219.064Z" transform="translate(-260.627 -158.529)" fill="#a0cb39"/>
    <ellipse id="Elipse_61" data-name="Elipse 61" cx="3.805" cy="3.805" rx="3.805" ry="3.805" transform="translate(40.357 60.533)" fill="#a0cb39"/>
    <path id="Caminho_553" data-name="Caminho 553" d="M334.251,219.064a3.8,3.8,0,1,0,3.808,3.8A3.8,3.8,0,0,0,334.251,219.064Z" transform="translate(-310.27 -158.529)" fill="#a0cb39"/>
    <ellipse id="Elipse_62" data-name="Elipse 62" cx="3.805" cy="3.805" rx="3.805" ry="3.805" transform="translate(0 60.533)" fill="#a0cb39"/>
    <path id="Caminho_554" data-name="Caminho 554" d="M259.973,223.706a3.805,3.805,0,1,0,3.807,3.808A3.806,3.806,0,0,0,259.973,223.706Z" transform="translate(86.865 -183.352)" fill="#a0cb39"/>
    <path id="Caminho_555" data-name="Caminho 555" d="M264.616,223.706a3.805,3.805,0,1,0,3.8,3.808A3.8,3.8,0,0,0,264.616,223.706Z" transform="translate(62.045 -183.352)" fill="#a0cb39"/>
    <path id="Caminho_556" data-name="Caminho 556" d="M269.263,223.706a3.805,3.805,0,1,0,3.8,3.808A3.807,3.807,0,0,0,269.263,223.706Z" transform="translate(37.222 -183.352)" fill="#a0cb39"/>
    <path id="Caminho_557" data-name="Caminho 557" d="M273.9,223.706a3.805,3.805,0,1,0,3.808,3.808A3.806,3.806,0,0,0,273.9,223.706Z" transform="translate(12.403 -183.352)" fill="#a0cb39"/>
    <path id="Caminho_558" data-name="Caminho 558" d="M278.543,223.706a3.805,3.805,0,1,0,3.8,3.808A3.8,3.8,0,0,0,278.543,223.706Z" transform="translate(-12.417 -183.352)" fill="#a0cb39"/>
    <path id="Caminho_559" data-name="Caminho 559" d="M283.19,223.706a3.805,3.805,0,1,0,3.8,3.808A3.807,3.807,0,0,0,283.19,223.706Z" transform="translate(-37.24 -183.352)" fill="#a0cb39"/>
    <path id="Caminho_560" data-name="Caminho 560" d="M287.827,223.706a3.805,3.805,0,1,0,3.808,3.808A3.806,3.806,0,0,0,287.827,223.706Z" transform="translate(-62.059 -183.352)" fill="#a0cb39"/>
    <path id="Caminho_561" data-name="Caminho 561" d="M292.475,223.706a3.805,3.805,0,1,0,3.8,3.808A3.807,3.807,0,0,0,292.475,223.706Z" transform="translate(-86.883 -183.352)" fill="#a0cb39"/>
    <path id="Caminho_562" data-name="Caminho 562" d="M297.112,223.706a3.805,3.805,0,1,0,3.808,3.808A3.806,3.806,0,0,0,297.112,223.706Z" transform="translate(-111.702 -183.352)" fill="#a0cb39"/>
    <path id="Caminho_563" data-name="Caminho 563" d="M301.755,223.706a3.805,3.805,0,1,0,3.8,3.808A3.806,3.806,0,0,0,301.755,223.706Z" transform="translate(-136.522 -183.352)" fill="#a0cb39"/>
    <path id="Caminho_564" data-name="Caminho 564" d="M306.4,223.706a3.805,3.805,0,1,0,3.8,3.808A3.807,3.807,0,0,0,306.4,223.706Z" transform="translate(-161.346 -183.352)" fill="#a0cb39"/>
    <path id="Caminho_565" data-name="Caminho 565" d="M311.039,223.706a3.805,3.805,0,1,0,3.808,3.808A3.806,3.806,0,0,0,311.039,223.706Z" transform="translate(-186.165 -183.352)" fill="#a0cb39"/>
    <path id="Caminho_566" data-name="Caminho 566" d="M315.682,223.706a3.805,3.805,0,1,0,3.8,3.808A3.806,3.806,0,0,0,315.682,223.706Z" transform="translate(-210.985 -183.352)" fill="#a0cb39"/>
    <path id="Caminho_567" data-name="Caminho 567" d="M320.329,223.706a3.805,3.805,0,1,0,3.8,3.808A3.807,3.807,0,0,0,320.329,223.706Z" transform="translate(-235.808 -183.352)" fill="#a0cb39"/>
    <path id="Caminho_568" data-name="Caminho 568" d="M324.966,223.706a3.805,3.805,0,1,0,3.808,3.808A3.806,3.806,0,0,0,324.966,223.706Z" transform="translate(-260.627 -183.352)" fill="#a0cb39"/>
    <path id="Caminho_569" data-name="Caminho 569" d="M329.613,223.706a3.805,3.805,0,1,0,3.8,3.808A3.807,3.807,0,0,0,329.613,223.706Z" transform="translate(-285.451 -183.352)" fill="#a0cb39"/>
    <path id="Caminho_570" data-name="Caminho 570" d="M334.251,223.706a3.805,3.805,0,1,0,3.808,3.808A3.806,3.806,0,0,0,334.251,223.706Z" transform="translate(-310.27 -183.352)" fill="#a0cb39"/>
    <path id="Caminho_571" data-name="Caminho 571" d="M338.893,223.706a3.805,3.805,0,1,0,3.808,3.808A3.806,3.806,0,0,0,338.893,223.706Z" transform="translate(-335.089 -183.352)" fill="#a0cb39"/>
    <path id="Caminho_572" data-name="Caminho 572" d="M255.336,228.348a3.805,3.805,0,1,0,3.8,3.8A3.806,3.806,0,0,0,255.336,228.348Z" transform="translate(111.684 -208.171)" fill="#a0cb39"/>
    <ellipse id="Elipse_63" data-name="Elipse 63" cx="3.805" cy="3.805" rx="3.805" ry="3.805" transform="translate(343.035 20.177)" fill="#a0cb39"/>
    <path id="Caminho_573" data-name="Caminho 573" d="M264.616,228.348a3.805,3.805,0,1,0,3.8,3.8A3.8,3.8,0,0,0,264.616,228.348Z" transform="translate(62.045 -208.171)" fill="#a0cb39"/>
    <ellipse id="Elipse_64" data-name="Elipse 64" cx="3.805" cy="3.805" rx="3.805" ry="3.805" transform="translate(302.678 20.177)" fill="#a0cb39"/>
    <path id="Caminho_574" data-name="Caminho 574" d="M273.9,228.348a3.805,3.805,0,1,0,3.808,3.8A3.8,3.8,0,0,0,273.9,228.348Z" transform="translate(12.403 -208.171)" fill="#a0cb39"/>
    <path id="Caminho_575" data-name="Caminho 575" d="M278.543,228.348a3.805,3.805,0,1,0,3.8,3.8A3.8,3.8,0,0,0,278.543,228.348Z" transform="translate(-12.417 -208.171)" fill="#a0cb39"/>
    <ellipse id="Elipse_65" data-name="Elipse 65" cx="3.805" cy="3.805" rx="3.805" ry="3.805" transform="translate(242.142 20.177)" fill="#a0cb39"/>
    <path id="Caminho_576" data-name="Caminho 576" d="M287.827,228.348a3.805,3.805,0,1,0,3.808,3.8A3.8,3.8,0,0,0,287.827,228.348Z" transform="translate(-62.059 -208.171)" fill="#a0cb39"/>
    <ellipse id="Elipse_66" data-name="Elipse 66" cx="3.805" cy="3.805" rx="3.805" ry="3.805" transform="translate(201.785 20.177)" fill="#a0cb39"/>
    <path id="Caminho_577" data-name="Caminho 577" d="M297.112,228.348a3.805,3.805,0,1,0,3.808,3.8A3.8,3.8,0,0,0,297.112,228.348Z" transform="translate(-111.702 -208.171)" fill="#a0cb39"/>
    <path id="Caminho_578" data-name="Caminho 578" d="M301.755,228.348a3.805,3.805,0,1,0,3.8,3.8A3.8,3.8,0,0,0,301.755,228.348Z" transform="translate(-136.522 -208.171)" fill="#a0cb39"/>
    <ellipse id="Elipse_67" data-name="Elipse 67" cx="3.805" cy="3.805" rx="3.805" ry="3.805" transform="translate(141.25 20.177)" fill="#a0cb39"/>
    <path id="Caminho_579" data-name="Caminho 579" d="M311.039,228.348a3.805,3.805,0,1,0,3.808,3.8A3.8,3.8,0,0,0,311.039,228.348Z" transform="translate(-186.165 -208.171)" fill="#a0cb39"/>
    <ellipse id="Elipse_68" data-name="Elipse 68" cx="3.805" cy="3.805" rx="3.805" ry="3.805" transform="translate(100.893 20.177)" fill="#a0cb39"/>
    <path id="Caminho_580" data-name="Caminho 580" d="M320.329,228.348a3.805,3.805,0,1,0,3.8,3.8A3.806,3.806,0,0,0,320.329,228.348Z" transform="translate(-235.808 -208.171)" fill="#a0cb39"/>
    <path id="Caminho_581" data-name="Caminho 581" d="M324.966,228.348a3.805,3.805,0,1,0,3.808,3.8A3.8,3.8,0,0,0,324.966,228.348Z" transform="translate(-260.627 -208.171)" fill="#a0cb39"/>
    <ellipse id="Elipse_69" data-name="Elipse 69" cx="3.805" cy="3.805" rx="3.805" ry="3.805" transform="translate(40.357 20.177)" fill="#a0cb39"/>
    <path id="Caminho_582" data-name="Caminho 582" d="M334.251,228.348a3.805,3.805,0,1,0,3.808,3.8A3.8,3.8,0,0,0,334.251,228.348Z" transform="translate(-310.27 -208.171)" fill="#a0cb39"/>
    <ellipse id="Elipse_70" data-name="Elipse 70" cx="3.805" cy="3.805" rx="3.805" ry="3.805" transform="translate(0 20.177)" fill="#a0cb39"/>
    <path id="Caminho_583" data-name="Caminho 583" d="M250.689,232.991a3.8,3.8,0,1,0,3.8,3.8A3.8,3.8,0,0,0,250.689,232.991Z" transform="translate(136.507 -232.991)" fill="#a0cb39"/>
    <path id="Caminho_584" data-name="Caminho 584" d="M255.336,232.991a3.8,3.8,0,1,0,3.8,3.8A3.806,3.806,0,0,0,255.336,232.991Z" transform="translate(111.684 -232.991)" fill="#a0cb39"/>
    <path id="Caminho_585" data-name="Caminho 585" d="M259.973,232.991a3.8,3.8,0,1,0,3.807,3.8A3.8,3.8,0,0,0,259.973,232.991Z" transform="translate(86.865 -232.991)" fill="#a0cb39"/>
    <path id="Caminho_586" data-name="Caminho 586" d="M264.616,232.991a3.8,3.8,0,1,0,3.8,3.8A3.8,3.8,0,0,0,264.616,232.991Z" transform="translate(62.045 -232.991)" fill="#a0cb39"/>
    <path id="Caminho_587" data-name="Caminho 587" d="M269.263,232.991a3.8,3.8,0,1,0,3.8,3.8A3.806,3.806,0,0,0,269.263,232.991Z" transform="translate(37.222 -232.991)" fill="#a0cb39"/>
    <path id="Caminho_588" data-name="Caminho 588" d="M273.9,232.991a3.8,3.8,0,1,0,3.808,3.8A3.8,3.8,0,0,0,273.9,232.991Z" transform="translate(12.403 -232.991)" fill="#a0cb39"/>
    <path id="Caminho_589" data-name="Caminho 589" d="M278.543,232.991a3.8,3.8,0,1,0,3.8,3.8A3.8,3.8,0,0,0,278.543,232.991Z" transform="translate(-12.417 -232.991)" fill="#a0cb39"/>
    <path id="Caminho_590" data-name="Caminho 590" d="M283.19,232.991a3.8,3.8,0,1,0,3.8,3.8A3.806,3.806,0,0,0,283.19,232.991Z" transform="translate(-37.24 -232.991)" fill="#a0cb39"/>
    <path id="Caminho_591" data-name="Caminho 591" d="M287.827,232.991a3.8,3.8,0,1,0,3.808,3.8A3.8,3.8,0,0,0,287.827,232.991Z" transform="translate(-62.059 -232.991)" fill="#a0cb39"/>
    <path id="Caminho_592" data-name="Caminho 592" d="M292.475,232.991a3.8,3.8,0,1,0,3.8,3.8A3.806,3.806,0,0,0,292.475,232.991Z" transform="translate(-86.883 -232.991)" fill="#a0cb39"/>
    <path id="Caminho_593" data-name="Caminho 593" d="M297.112,232.991a3.8,3.8,0,1,0,3.808,3.8A3.8,3.8,0,0,0,297.112,232.991Z" transform="translate(-111.702 -232.991)" fill="#a0cb39"/>
    <path id="Caminho_594" data-name="Caminho 594" d="M301.755,232.991a3.8,3.8,0,1,0,3.8,3.8A3.8,3.8,0,0,0,301.755,232.991Z" transform="translate(-136.522 -232.991)" fill="#a0cb39"/>
    <path id="Caminho_595" data-name="Caminho 595" d="M306.4,232.991a3.8,3.8,0,1,0,3.8,3.8A3.806,3.806,0,0,0,306.4,232.991Z" transform="translate(-161.346 -232.991)" fill="#a0cb39"/>
    <path id="Caminho_596" data-name="Caminho 596" d="M311.039,232.991a3.8,3.8,0,1,0,3.808,3.8A3.8,3.8,0,0,0,311.039,232.991Z" transform="translate(-186.165 -232.991)" fill="#a0cb39"/>
    <path id="Caminho_597" data-name="Caminho 597" d="M315.682,232.991a3.8,3.8,0,1,0,3.8,3.8A3.8,3.8,0,0,0,315.682,232.991Z" transform="translate(-210.985 -232.991)" fill="#a0cb39"/>
    <path id="Caminho_598" data-name="Caminho 598" d="M320.329,232.991a3.8,3.8,0,1,0,3.8,3.8A3.806,3.806,0,0,0,320.329,232.991Z" transform="translate(-235.808 -232.991)" fill="#a0cb39"/>
    <path id="Caminho_599" data-name="Caminho 599" d="M324.966,232.991a3.8,3.8,0,1,0,3.808,3.8A3.8,3.8,0,0,0,324.966,232.991Z" transform="translate(-260.627 -232.991)" fill="#a0cb39"/>
    <path id="Caminho_600" data-name="Caminho 600" d="M329.613,232.991a3.8,3.8,0,1,0,3.8,3.8A3.806,3.806,0,0,0,329.613,232.991Z" transform="translate(-285.451 -232.991)" fill="#a0cb39"/>
    <path id="Caminho_601" data-name="Caminho 601" d="M334.251,232.991a3.8,3.8,0,1,0,3.808,3.8A3.8,3.8,0,0,0,334.251,232.991Z" transform="translate(-310.27 -232.991)" fill="#a0cb39"/>
    <path id="Caminho_602" data-name="Caminho 602" d="M338.893,232.991a3.8,3.8,0,1,0,3.808,3.8A3.8,3.8,0,0,0,338.893,232.991Z" transform="translate(-335.089 -232.991)" fill="#a0cb39"/>
  </g>
</svg>
