<svg xmlns="http://www.w3.org/2000/svg" width="442.961" height="471.983" viewBox="0 0 442.961 471.983">
  <g id="Grupo_787" data-name="Grupo 787" transform="matrix(0.259, -0.966, 0.966, 0.259, -1240.563, 990.312)">
    <g id="Grupo_666" data-name="Grupo 666" transform="translate(910 1040.491)">
      <g id="Grupo_664" data-name="Grupo 664" transform="translate(0 0)">
        <path id="Caminho_603" data-name="Caminho 603" d="M83.463,452.089a2.079,2.079,0,0,1-1.388-.516,1.631,1.631,0,0,1,0-2.483L472.2,99.6a2.127,2.127,0,0,1,2.772,0,1.631,1.631,0,0,1,0,2.483L84.847,451.572A2.076,2.076,0,0,1,83.463,452.089Z" transform="translate(-81.502 -99.086)" fill="#a0cb39"/>
      </g>
      <g id="Grupo_665" data-name="Grupo 665" transform="translate(236.431 109.977)">
        <path id="Caminho_604" data-name="Caminho 604" d="M144.073,233.2a1.977,1.977,0,0,1-1.395-3.374l97.459-97.455a1.975,1.975,0,0,1,2.793,2.793l-97.459,97.455A1.971,1.971,0,0,1,144.073,233.2Z" transform="translate(-142.098 -131.793)" fill="#a0cb39"/>
      </g>
    </g>
  </g>
</svg>
