<svg xmlns="http://www.w3.org/2000/svg" width="397" height="397.003" viewBox="0 0 397 397.003">
  <g id="Grupo_667" data-name="Grupo 667" transform="translate(-910 -1040.491)">
    <g id="Grupo_666" data-name="Grupo 666" transform="translate(828.498 941.406)">
      <g id="Grupo_664" data-name="Grupo 664" transform="translate(81.502 99.086)">
        <path id="Caminho_603" data-name="Caminho 603" d="M83.478,496.089a1.977,1.977,0,0,1-1.4-3.374L475.131,99.664a1.975,1.975,0,1,1,2.793,2.793L84.873,495.508A1.969,1.969,0,0,1,83.478,496.089Z" transform="translate(-81.502 -99.086)" fill="#a0cb39"/>
      </g>
      <g id="Grupo_665" data-name="Grupo 665" transform="translate(320.887 228.296)">
        <path id="Caminho_604" data-name="Caminho 604" d="M144.073,233.2a1.977,1.977,0,0,1-1.395-3.374l97.459-97.455a1.975,1.975,0,0,1,2.793,2.793l-97.459,97.455A1.971,1.971,0,0,1,144.073,233.2Z" transform="translate(-142.098 -131.793)" fill="#a0cb39"/>
      </g>
    </g>
  </g>
</svg>
