<svg id="Grupo_6684" data-name="Grupo 6684" xmlns="http://www.w3.org/2000/svg" width="198.895" height="313.553" viewBox="0 0 198.895 313.553">
  <g id="Grupo_649" data-name="Grupo 649" transform="translate(0 0)">
    <path id="Caminho_421" data-name="Caminho 421" d="M248.423,28.622V143.28l6.6,6.6V35.221Z" transform="translate(-248.423 -28.622)" fill="#a0cb39"/>
  </g>
  <g id="Grupo_650" data-name="Grupo 650" transform="translate(16.002 16.003)">
    <path id="Caminho_422" data-name="Caminho 422" d="M244.159,32.887V147.545l6.6,6.6V39.485Z" transform="translate(-244.159 -32.887)" fill="#a0cb39"/>
  </g>
  <g id="Grupo_651" data-name="Grupo 651" transform="translate(32.038 32.038)">
    <path id="Caminho_423" data-name="Caminho 423" d="M239.885,37.16V151.818l6.6,6.6V43.758Z" transform="translate(-239.885 -37.16)" fill="#a0cb39"/>
  </g>
  <g id="Grupo_652" data-name="Grupo 652" transform="translate(48.074 48.074)">
    <path id="Caminho_424" data-name="Caminho 424" d="M235.612,41.433V156.091l6.6,6.6V48.032Z" transform="translate(-235.612 -41.433)" fill="#a0cb39"/>
  </g>
  <g id="Grupo_653" data-name="Grupo 653" transform="translate(64.076 64.077)">
    <path id="Caminho_425" data-name="Caminho 425" d="M231.348,45.7V160.355l6.6,6.6V52.3Z" transform="translate(-231.348 -45.697)" fill="#a0cb39"/>
  </g>
  <g id="Grupo_654" data-name="Grupo 654" transform="translate(80.112 80.112)">
    <path id="Caminho_426" data-name="Caminho 426" d="M227.075,49.97V164.628l6.6,6.6V56.569Z" transform="translate(-227.075 -49.97)" fill="#a0cb39"/>
  </g>
  <g id="Grupo_655" data-name="Grupo 655" transform="translate(96.148 96.148)">
    <path id="Caminho_427" data-name="Caminho 427" d="M222.8,54.243V168.9l6.6,6.6V60.842Z" transform="translate(-222.802 -54.243)" fill="#a0cb39"/>
  </g>
  <g id="Grupo_656" data-name="Grupo 656" transform="translate(112.183 112.184)">
    <path id="Caminho_428" data-name="Caminho 428" d="M218.529,58.516V173.174l6.6,6.6V65.115Z" transform="translate(-218.529 -58.516)" fill="#a0cb39"/>
  </g>
  <g id="Grupo_657" data-name="Grupo 657" transform="translate(128.186 128.186)">
    <path id="Caminho_429" data-name="Caminho 429" d="M214.265,62.78V177.439l6.6,6.6V69.379Z" transform="translate(-214.265 -62.78)" fill="#a0cb39"/>
  </g>
  <g id="Grupo_658" data-name="Grupo 658" transform="translate(144.221 144.222)">
    <path id="Caminho_430" data-name="Caminho 430" d="M209.992,67.054V181.712l6.6,6.6V73.652Z" transform="translate(-209.992 -67.054)" fill="#a0cb39"/>
  </g>
  <g id="Grupo_659" data-name="Grupo 659" transform="translate(160.257 160.258)">
    <path id="Caminho_431" data-name="Caminho 431" d="M205.719,71.327V185.985l6.6,6.6V77.926Z" transform="translate(-205.719 -71.327)" fill="#a0cb39"/>
  </g>
  <g id="Grupo_660" data-name="Grupo 660" transform="translate(176.26 176.26)">
    <path id="Caminho_432" data-name="Caminho 432" d="M201.454,75.591V190.249l6.6,6.6V82.19Z" transform="translate(-201.454 -75.591)" fill="#a0cb39"/>
  </g>
  <g id="Grupo_661" data-name="Grupo 661" transform="translate(192.295 192.296)">
    <path id="Caminho_433" data-name="Caminho 433" d="M197.181,79.864V194.522l6.6,6.6V86.463Z" transform="translate(-197.181 -79.864)" fill="#a0cb39"/>
  </g>
</svg>
