<svg xmlns="http://www.w3.org/2000/svg" width="24.535" height="98.336" viewBox="0 0 24.535 98.336">
  <g id="Grupo_783" data-name="Grupo 783" transform="translate(23.269) rotate(45)">
    <g id="Grupo_649" data-name="Grupo 649" transform="translate(0 0)">
      <path id="Caminho_421" data-name="Caminho 421" d="M248.423,28.622V59.738l1.791,1.791V30.413Z" transform="translate(-248.423 -28.622)" fill="#a0cb39"/>
    </g>
    <g id="Grupo_650" data-name="Grupo 650" transform="translate(4.343 4.343)">
      <path id="Caminho_422" data-name="Caminho 422" d="M244.159,32.887V64l1.791,1.791V34.677Z" transform="translate(-244.159 -32.887)" fill="#a0cb39"/>
    </g>
    <g id="Grupo_651" data-name="Grupo 651" transform="translate(8.694 8.695)">
      <path id="Caminho_423" data-name="Caminho 423" d="M239.885,37.16V68.275l1.791,1.791V38.95Z" transform="translate(-239.885 -37.16)" fill="#a0cb39"/>
    </g>
    <g id="Grupo_652" data-name="Grupo 652" transform="translate(13.046 13.046)">
      <path id="Caminho_424" data-name="Caminho 424" d="M235.612,41.433V72.548l1.791,1.791V43.223Z" transform="translate(-235.612 -41.433)" fill="#a0cb39"/>
    </g>
    <g id="Grupo_653" data-name="Grupo 653" transform="translate(17.389 17.389)">
      <path id="Caminho_425" data-name="Caminho 425" d="M231.348,45.7V76.813l1.791,1.791V47.488Z" transform="translate(-231.348 -45.697)" fill="#a0cb39"/>
    </g>
    <g id="Grupo_654" data-name="Grupo 654" transform="translate(21.741 21.741)">
      <path id="Caminho_426" data-name="Caminho 426" d="M227.075,49.97V81.086l1.791,1.791V51.761Z" transform="translate(-227.075 -49.97)" fill="#a0cb39"/>
    </g>
    <g id="Grupo_655" data-name="Grupo 655" transform="translate(26.092 26.093)">
      <path id="Caminho_427" data-name="Caminho 427" d="M222.8,54.243V85.359l1.791,1.791V56.034Z" transform="translate(-222.802 -54.243)" fill="#a0cb39"/>
    </g>
    <g id="Grupo_656" data-name="Grupo 656" transform="translate(30.444 30.444)">
      <path id="Caminho_428" data-name="Caminho 428" d="M218.529,58.516V89.632l1.791,1.791V60.307Z" transform="translate(-218.529 -58.516)" fill="#a0cb39"/>
    </g>
    <g id="Grupo_657" data-name="Grupo 657" transform="translate(34.787 34.787)">
      <path id="Caminho_429" data-name="Caminho 429" d="M214.265,62.78V93.9l1.791,1.791V64.571Z" transform="translate(-214.265 -62.78)" fill="#a0cb39"/>
    </g>
    <g id="Grupo_658" data-name="Grupo 658" transform="translate(39.139 39.139)">
      <path id="Caminho_430" data-name="Caminho 430" d="M209.992,67.054V98.169l1.791,1.791V68.844Z" transform="translate(-209.992 -67.054)" fill="#a0cb39"/>
    </g>
    <g id="Grupo_659" data-name="Grupo 659" transform="translate(43.49 43.491)">
      <path id="Caminho_431" data-name="Caminho 431" d="M205.719,71.327v31.116l1.791,1.791V73.117Z" transform="translate(-205.719 -71.327)" fill="#a0cb39"/>
    </g>
    <g id="Grupo_660" data-name="Grupo 660" transform="translate(47.833 47.833)">
      <path id="Caminho_432" data-name="Caminho 432" d="M201.454,75.591v31.116l1.791,1.791V77.382Z" transform="translate(-201.454 -75.591)" fill="#a0cb39"/>
    </g>
    <g id="Grupo_661" data-name="Grupo 661" transform="translate(52.185 52.185)">
      <path id="Caminho_433" data-name="Caminho 433" d="M197.181,79.864V110.98l1.791,1.791V81.655Z" transform="translate(-197.181 -79.864)" fill="#a0cb39"/>
    </g>
  </g>
</svg>
