<svg xmlns="http://www.w3.org/2000/svg" width="397" height="493.494" viewBox="0 0 397 493.494">
  <g id="Grupo_740" data-name="Grupo 740" transform="translate(-1371 -2258)">
    <g id="Grupo_662" data-name="Grupo 662" transform="translate(1295.819 2229.378)">
      <g id="Grupo_649" data-name="Grupo 649" transform="translate(389.477 28.622)">
        <path id="Caminho_421" data-name="Caminho 421" d="M255.022,28.622V143.28l-6.6,6.6V35.221Z" transform="translate(-248.423 -28.622)" fill="#a0cb39"/>
      </g>
      <g id="Grupo_650" data-name="Grupo 650" transform="translate(373.475 44.625)">
        <path id="Caminho_422" data-name="Caminho 422" d="M250.758,32.887V147.545l-6.6,6.6V39.485Z" transform="translate(-244.159 -32.887)" fill="#a0cb39"/>
      </g>
      <g id="Grupo_651" data-name="Grupo 651" transform="translate(357.438 60.661)">
        <path id="Caminho_423" data-name="Caminho 423" d="M246.484,37.16V151.818l-6.6,6.6V43.758Z" transform="translate(-239.885 -37.16)" fill="#a0cb39"/>
      </g>
      <g id="Grupo_652" data-name="Grupo 652" transform="translate(341.403 76.696)">
        <path id="Caminho_424" data-name="Caminho 424" d="M242.211,41.433V156.091l-6.6,6.6V48.032Z" transform="translate(-235.612 -41.433)" fill="#a0cb39"/>
      </g>
      <g id="Grupo_653" data-name="Grupo 653" transform="translate(325.4 92.699)">
        <path id="Caminho_425" data-name="Caminho 425" d="M237.947,45.7V160.355l-6.6,6.6V52.3Z" transform="translate(-231.348 -45.697)" fill="#a0cb39"/>
      </g>
      <g id="Grupo_654" data-name="Grupo 654" transform="translate(309.365 108.734)">
        <path id="Caminho_426" data-name="Caminho 426" d="M233.674,49.97V164.628l-6.6,6.6V56.569Z" transform="translate(-227.075 -49.97)" fill="#a0cb39"/>
      </g>
      <g id="Grupo_655" data-name="Grupo 655" transform="translate(293.329 124.77)">
        <path id="Caminho_427" data-name="Caminho 427" d="M229.4,54.243V168.9l-6.6,6.6V60.842Z" transform="translate(-222.802 -54.243)" fill="#a0cb39"/>
      </g>
      <g id="Grupo_656" data-name="Grupo 656" transform="translate(277.293 140.806)">
        <path id="Caminho_428" data-name="Caminho 428" d="M225.128,58.516V173.174l-6.6,6.6V65.115Z" transform="translate(-218.529 -58.516)" fill="#a0cb39"/>
      </g>
      <g id="Grupo_657" data-name="Grupo 657" transform="translate(261.291 156.809)">
        <path id="Caminho_429" data-name="Caminho 429" d="M220.863,62.78V177.439l-6.6,6.6V69.379Z" transform="translate(-214.265 -62.78)" fill="#a0cb39"/>
      </g>
      <g id="Grupo_658" data-name="Grupo 658" transform="translate(245.255 172.844)">
        <path id="Caminho_430" data-name="Caminho 430" d="M216.591,67.054V181.712l-6.6,6.6V73.652Z" transform="translate(-209.992 -67.054)" fill="#a0cb39"/>
      </g>
      <g id="Grupo_659" data-name="Grupo 659" transform="translate(229.22 188.88)">
        <path id="Caminho_431" data-name="Caminho 431" d="M212.317,71.327V185.985l-6.6,6.6V77.926Z" transform="translate(-205.719 -71.327)" fill="#a0cb39"/>
      </g>
      <g id="Grupo_660" data-name="Grupo 660" transform="translate(213.217 204.883)">
        <path id="Caminho_432" data-name="Caminho 432" d="M208.053,75.591V190.249l-6.6,6.6V82.19Z" transform="translate(-201.454 -75.591)" fill="#a0cb39"/>
      </g>
      <g id="Grupo_661" data-name="Grupo 661" transform="translate(197.181 220.918)">
        <path id="Caminho_433" data-name="Caminho 433" d="M203.78,79.864V194.522l-6.6,6.6V86.463Z" transform="translate(-197.181 -79.864)" fill="#a0cb39"/>
      </g>
    </g>
    <g id="Grupo_669" data-name="Grupo 669" transform="translate(461 1314)">
      <g id="Grupo_666" data-name="Grupo 666" transform="translate(828.498 941.406)">
        <g id="Grupo_664" data-name="Grupo 664" transform="translate(81.502 99.086)">
          <path id="Caminho_603" data-name="Caminho 603" d="M83.478,496.089a1.977,1.977,0,0,1-1.4-3.374L475.131,99.664a1.975,1.975,0,1,1,2.793,2.793L84.873,495.508A1.969,1.969,0,0,1,83.478,496.089Z" transform="translate(-81.502 -99.086)" fill="#a0cb39"/>
        </g>
        <g id="Grupo_665" data-name="Grupo 665" transform="translate(320.887 228.296)">
          <path id="Caminho_604" data-name="Caminho 604" d="M144.073,233.2a1.977,1.977,0,0,1-1.395-3.374l97.459-97.455a1.975,1.975,0,0,1,2.793,2.793l-97.459,97.455A1.971,1.971,0,0,1,144.073,233.2Z" transform="translate(-142.098 -131.793)" fill="#a0cb39"/>
        </g>
      </g>
    </g>
  </g>
</svg>
