<svg aria-hidden="true" style="position: absolute; width: 0; height: 0; overflow: hidden;" version="1.1" xmlns="http://www.w3.org/2000/svg" xmlns:xlink="http://www.w3.org/1999/xlink">
<defs>
<symbol id="icon-bolinhas" viewBox="0 0 32 32">
<path fill="#a0cb39" style="fill: var(--color1, #a0cb39)" opacity="0.2" d="M1.963 29.726c-0.172 0-0.311 0.14-0.311 0.311s0.139 0.311 0.311 0.311 0.311-0.139 0.311-0.311c0-0 0-0 0-0v0c0 0 0 0 0 0 0-0.172-0.139-0.311-0.311-0.311-0 0-0 0-0.001 0h0z"></path>
<path fill="#a0cb39" style="fill: var(--color1, #a0cb39)" opacity="0.2" d="M0.311 29.726c-0.172 0-0.311 0.14-0.311 0.311s0.139 0.311 0.311 0.311 0.311-0.139 0.311-0.311c0-0 0-0 0-0v0c0 0 0 0 0 0 0-0.172-0.139-0.311-0.311-0.311-0 0-0 0-0.001 0h0z"></path>
<path fill="#a0cb39" style="fill: var(--color1, #a0cb39)" opacity="0.2" d="M3.614 28.074c-0.172 0-0.311 0.139-0.311 0.311s0.139 0.311 0.311 0.311c0.172 0 0.311-0.139 0.311-0.311v0c-0-0.172-0.139-0.311-0.311-0.311h-0z"></path>
<path fill="#a0cb39" style="fill: var(--color1, #a0cb39)" opacity="0.2" d="M1.963 28.074c-0.171 0-0.31 0.139-0.31 0.311s0.139 0.311 0.311 0.311 0.311-0.139 0.311-0.311v0c0 0 0 0 0 0 0-0.172-0.139-0.311-0.311-0.311-0 0-0 0-0.001 0h0z"></path>
<path fill="#a0cb39" style="fill: var(--color1, #a0cb39)" opacity="0.2" d="M0.311 28.074c-0.171 0-0.31 0.139-0.31 0.311s0.139 0.311 0.311 0.311 0.311-0.139 0.311-0.311v0c0 0 0 0 0 0 0-0.172-0.139-0.311-0.311-0.311-0 0-0 0-0.001 0h0z"></path>
<path fill="#a0cb39" style="fill: var(--color1, #a0cb39)" opacity="0.2" d="M5.266 26.423c-0.172 0-0.311 0.14-0.311 0.311s0.139 0.311 0.311 0.311c0.172 0 0.311-0.139 0.311-0.311v0c0-0 0-0 0-0 0-0.172-0.139-0.311-0.311-0.311-0 0-0 0-0 0v0z"></path>
<path fill="#a0cb39" style="fill: var(--color1, #a0cb39)" opacity="0.2" d="M1.963 26.423c-0.172 0-0.311 0.14-0.311 0.311s0.139 0.311 0.311 0.311c0.172 0 0.311-0.139 0.311-0.311v0c0-0 0-0 0-0 0-0.172-0.139-0.311-0.312-0.311-0 0-0 0-0 0v0z"></path>
<path fill="#a0cb39" style="fill: var(--color1, #a0cb39)" opacity="0.2" d="M6.917 24.771c-0 0-0 0-0 0-0.172 0-0.311 0.139-0.311 0.311s0.139 0.311 0.311 0.311c0.172 0 0.311-0.139 0.311-0.311 0-0 0-0 0-0v0c-0-0.172-0.139-0.311-0.311-0.311h-0z"></path>
<path fill="#a0cb39" style="fill: var(--color1, #a0cb39)" opacity="0.2" d="M5.266 24.771c-0.172 0-0.311 0.14-0.311 0.311s0.139 0.311 0.311 0.311 0.311-0.139 0.311-0.311c0-0 0-0 0-0v0c0 0 0 0 0 0 0-0.172-0.139-0.311-0.311-0.311-0 0-0 0-0.001 0h0z"></path>
<path fill="#a0cb39" style="fill: var(--color1, #a0cb39)" opacity="0.2" d="M3.614 24.771c-0 0-0 0-0 0-0.172 0-0.311 0.139-0.311 0.311s0.139 0.311 0.311 0.311c0.172 0 0.311-0.139 0.311-0.311 0-0 0-0 0-0v0c-0-0.172-0.139-0.311-0.311-0.311h-0z"></path>
<path fill="#a0cb39" style="fill: var(--color1, #a0cb39)" opacity="0.2" d="M1.963 24.771c-0.172 0-0.311 0.14-0.311 0.311s0.139 0.311 0.311 0.311 0.311-0.139 0.311-0.311c0-0 0-0 0-0v0c0 0 0 0 0 0 0-0.172-0.139-0.311-0.311-0.311-0 0-0 0-0.001 0h0z"></path>
<path fill="#a0cb39" style="fill: var(--color1, #a0cb39)" opacity="0.2" d="M0.311 24.771c-0.172 0-0.311 0.14-0.311 0.311s0.139 0.311 0.311 0.311 0.311-0.139 0.311-0.311c0-0 0-0 0-0v0c0 0 0 0 0 0 0-0.172-0.139-0.311-0.311-0.311-0 0-0 0-0.001 0h0z"></path>
<path fill="#a0cb39" style="fill: var(--color1, #a0cb39)" opacity="0.2" d="M6.917 23.12c-0.172 0-0.311 0.139-0.311 0.311s0.139 0.311 0.311 0.311c0.172 0 0.311-0.139 0.311-0.311v0c-0-0.172-0.139-0.311-0.311-0.311h-0z"></path>
<path fill="#a0cb39" style="fill: var(--color1, #a0cb39)" opacity="0.2" d="M5.266 23.12c-0.171 0-0.31 0.139-0.31 0.311s0.139 0.311 0.311 0.311 0.311-0.139 0.311-0.311v0c0 0 0 0 0 0 0-0.172-0.139-0.311-0.311-0.311-0 0-0 0-0.001 0h0z"></path>
<path fill="#a0cb39" style="fill: var(--color1, #a0cb39)" opacity="0.2" d="M1.963 23.12c-0.171 0-0.31 0.139-0.31 0.311s0.139 0.311 0.311 0.311 0.311-0.139 0.311-0.311v0c0 0 0 0 0 0 0-0.172-0.139-0.311-0.311-0.311-0 0-0 0-0.001 0h0z"></path>
<path fill="#a0cb39" style="fill: var(--color1, #a0cb39)" opacity="0.2" d="M10.22 21.468c-0.172 0-0.311 0.14-0.311 0.311s0.139 0.311 0.311 0.311c0.172 0 0.311-0.139 0.311-0.311v0c0-0 0-0 0-0 0-0.172-0.139-0.311-0.312-0.311-0 0-0 0-0 0v0z"></path>
<path fill="#a0cb39" style="fill: var(--color1, #a0cb39)" opacity="0.2" d="M8.569 21.468c-0 0-0 0-0 0-0.172 0-0.311 0.139-0.311 0.311s0.139 0.311 0.311 0.311c0.172 0 0.311-0.139 0.311-0.311v0c0-0 0-0 0-0 0-0.172-0.139-0.311-0.311-0.311h-0z"></path>
<path fill="#a0cb39" style="fill: var(--color1, #a0cb39)" opacity="0.2" d="M6.917 21.468c-0 0-0 0-0 0-0.172 0-0.311 0.139-0.311 0.311s0.139 0.311 0.311 0.311c0.172 0 0.311-0.139 0.311-0.311v0c0-0 0-0 0-0 0-0.172-0.139-0.311-0.311-0.312h-0z"></path>
<path fill="#a0cb39" style="fill: var(--color1, #a0cb39)" opacity="0.2" d="M5.266 21.468c-0.172 0-0.311 0.14-0.311 0.311s0.139 0.311 0.311 0.311c0.172 0 0.311-0.139 0.311-0.311v0c0-0 0-0 0-0 0-0.172-0.139-0.311-0.311-0.311-0 0-0 0-0 0v0z"></path>
<path fill="#a0cb39" style="fill: var(--color1, #a0cb39)" opacity="0.2" d="M3.614 21.468c-0 0-0 0-0 0-0.172 0-0.311 0.139-0.311 0.311s0.139 0.311 0.311 0.311c0.172 0 0.311-0.139 0.311-0.311v0c0-0 0-0 0-0 0-0.172-0.139-0.311-0.311-0.312h-0z"></path>
<path fill="#a0cb39" style="fill: var(--color1, #a0cb39)" opacity="0.2" d="M1.963 21.468c-0.172 0-0.311 0.14-0.311 0.311s0.139 0.311 0.311 0.311c0.172 0 0.311-0.139 0.311-0.311v0c0-0 0-0 0-0 0-0.172-0.139-0.311-0.312-0.311-0 0-0 0-0 0v0z"></path>
<path fill="#a0cb39" style="fill: var(--color1, #a0cb39)" opacity="0.2" d="M0.311 21.468c-0.172 0-0.311 0.14-0.311 0.311s0.139 0.311 0.311 0.311c0.172 0 0.311-0.139 0.311-0.311v0c0-0 0-0 0-0 0-0.172-0.139-0.311-0.311-0.311-0 0-0 0-0 0v0z"></path>
<path fill="#a0cb39" style="fill: var(--color1, #a0cb39)" opacity="0.2" d="M11.871 19.817c-0 0-0 0-0 0-0.172 0-0.311 0.139-0.311 0.311s0.139 0.311 0.311 0.311c0.172 0 0.311-0.139 0.311-0.311 0-0 0-0 0-0v0c-0-0.172-0.139-0.311-0.311-0.311h-0z"></path>
<path fill="#a0cb39" style="fill: var(--color1, #a0cb39)" opacity="0.2" d="M10.22 19.817c-0.172 0-0.311 0.14-0.311 0.311s0.139 0.311 0.311 0.311 0.311-0.139 0.311-0.311c0-0 0-0 0-0v0c0 0 0 0 0 0 0-0.172-0.139-0.311-0.311-0.311-0 0-0 0-0.001 0h0z"></path>
<path fill="#a0cb39" style="fill: var(--color1, #a0cb39)" opacity="0.2" d="M8.569 19.817c-0 0-0 0-0 0-0.172 0-0.311 0.139-0.311 0.311s0.139 0.311 0.311 0.311c0.172 0 0.311-0.139 0.311-0.311 0-0 0-0 0-0v0c0-0.172-0.139-0.311-0.311-0.311v0z"></path>
<path fill="#a0cb39" style="fill: var(--color1, #a0cb39)" opacity="0.2" d="M6.917 19.817c-0 0-0 0-0 0-0.172 0-0.311 0.139-0.311 0.311s0.139 0.311 0.311 0.311c0.172 0 0.311-0.139 0.311-0.311 0-0 0-0 0-0v0c-0-0.172-0.139-0.311-0.311-0.311h-0z"></path>
<path fill="#a0cb39" style="fill: var(--color1, #a0cb39)" opacity="0.2" d="M5.266 19.817c-0.172 0-0.311 0.14-0.311 0.311s0.139 0.311 0.311 0.311 0.311-0.139 0.311-0.311c0-0 0-0 0-0v0c0 0 0 0 0 0 0-0.172-0.139-0.311-0.311-0.311-0 0-0 0-0.001 0h0z"></path>
<path fill="#a0cb39" style="fill: var(--color1, #a0cb39)" opacity="0.2" d="M3.614 19.817c-0 0-0 0-0 0-0.172 0-0.311 0.139-0.311 0.311s0.139 0.311 0.311 0.311c0.172 0 0.311-0.139 0.311-0.311 0-0 0-0 0-0v0c-0-0.172-0.139-0.311-0.311-0.311h-0z"></path>
<path fill="#a0cb39" style="fill: var(--color1, #a0cb39)" opacity="0.2" d="M1.963 19.817c-0.172 0-0.311 0.14-0.311 0.311s0.139 0.311 0.311 0.311 0.311-0.139 0.311-0.311c0-0 0-0 0-0v0c0 0 0 0 0 0 0-0.172-0.139-0.311-0.311-0.311-0 0-0 0-0.001 0h0z"></path>
<path fill="#a0cb39" style="fill: var(--color1, #a0cb39)" opacity="0.2" d="M0.311 19.817c-0.172 0-0.311 0.14-0.311 0.311s0.139 0.311 0.311 0.311 0.311-0.139 0.311-0.311c0-0 0-0 0-0v0c0 0 0 0 0 0 0-0.172-0.139-0.311-0.311-0.311-0 0-0 0-0.001 0h0z"></path>
<path fill="#a0cb39" style="fill: var(--color1, #a0cb39)" opacity="0.2" d="M13.523 18.166c-0.172 0-0.311 0.139-0.311 0.311s0.139 0.311 0.311 0.311c0.172 0 0.311-0.139 0.311-0.311v0c0-0.172-0.139-0.311-0.311-0.311v0z"></path>
<path fill="#a0cb39" style="fill: var(--color1, #a0cb39)" opacity="0.2" d="M10.22 18.166c-0.171 0-0.31 0.139-0.31 0.311s0.139 0.311 0.311 0.311 0.311-0.139 0.311-0.311v0c0 0 0 0 0 0 0-0.172-0.139-0.311-0.311-0.311-0 0-0 0-0.001 0h0z"></path>
<path fill="#a0cb39" style="fill: var(--color1, #a0cb39)" opacity="0.2" d="M6.917 18.166c-0.172 0-0.311 0.139-0.311 0.311s0.139 0.311 0.311 0.311c0.172 0 0.311-0.139 0.311-0.311v0c0-0.172-0.139-0.311-0.311-0.311v0z"></path>
<path fill="#a0cb39" style="fill: var(--color1, #a0cb39)" opacity="0.2" d="M5.266 18.166c-0.171 0-0.31 0.139-0.31 0.311s0.139 0.311 0.311 0.311 0.311-0.139 0.311-0.311v0c0 0 0 0 0 0 0-0.172-0.139-0.311-0.311-0.311-0 0-0 0-0.001 0h0z"></path>
<path fill="#a0cb39" style="fill: var(--color1, #a0cb39)" opacity="0.2" d="M1.963 18.166c-0.171 0-0.31 0.139-0.31 0.311s0.139 0.311 0.311 0.311 0.311-0.139 0.311-0.311v0c0 0 0 0 0 0 0-0.172-0.139-0.311-0.311-0.311-0 0-0 0-0.001 0h0z"></path>
<path fill="#a0cb39" style="fill: var(--color1, #a0cb39)" opacity="0.2" d="M15.174 16.514c-0.172 0-0.311 0.14-0.311 0.311s0.139 0.311 0.311 0.311c0.172 0 0.311-0.139 0.311-0.311v0c0-0 0-0 0-0 0-0.172-0.139-0.311-0.312-0.311-0 0-0 0-0 0v0z"></path>
<path fill="#a0cb39" style="fill: var(--color1, #a0cb39)" opacity="0.2" d="M13.523 16.514c-0 0-0 0-0 0-0.172 0-0.311 0.139-0.311 0.311s0.139 0.311 0.311 0.311c0.172 0 0.311-0.139 0.311-0.311v0c0-0 0-0 0-0 0-0.172-0.139-0.311-0.311-0.311h-0z"></path>
<path fill="#a0cb39" style="fill: var(--color1, #a0cb39)" opacity="0.2" d="M11.871 16.514c-0 0-0 0-0 0-0.172 0-0.311 0.139-0.311 0.311s0.139 0.311 0.311 0.311c0.172 0 0.311-0.139 0.311-0.311v0c0-0 0-0 0-0 0-0.172-0.139-0.311-0.311-0.312h-0z"></path>
<path fill="#a0cb39" style="fill: var(--color1, #a0cb39)" opacity="0.2" d="M10.22 16.514c-0.172 0-0.311 0.14-0.311 0.311s0.139 0.311 0.311 0.311c0.172 0 0.311-0.139 0.311-0.311v0c0-0 0-0 0-0 0-0.172-0.139-0.311-0.312-0.311-0 0-0 0-0 0v0z"></path>
<path fill="#a0cb39" style="fill: var(--color1, #a0cb39)" opacity="0.2" d="M8.569 16.514c-0 0-0 0-0 0-0.172 0-0.311 0.139-0.311 0.311s0.139 0.311 0.311 0.311c0.172 0 0.311-0.139 0.311-0.311v0c0-0 0-0 0-0 0-0.172-0.139-0.311-0.311-0.311h-0z"></path>
<path fill="#a0cb39" style="fill: var(--color1, #a0cb39)" opacity="0.2" d="M6.917 16.514c-0 0-0 0-0 0-0.172 0-0.311 0.139-0.311 0.311s0.139 0.311 0.311 0.311c0.172 0 0.311-0.139 0.311-0.311v0c0-0 0-0 0-0 0-0.172-0.139-0.311-0.311-0.312h-0z"></path>
<path fill="#a0cb39" style="fill: var(--color1, #a0cb39)" opacity="0.2" d="M5.266 16.514c-0.172 0-0.311 0.14-0.311 0.311s0.139 0.311 0.311 0.311c0.172 0 0.311-0.139 0.311-0.311v0c0-0 0-0 0-0 0-0.172-0.139-0.311-0.311-0.311-0 0-0 0-0 0v0z"></path>
<path fill="#a0cb39" style="fill: var(--color1, #a0cb39)" opacity="0.2" d="M3.614 16.514c-0 0-0 0-0 0-0.172 0-0.311 0.139-0.311 0.311s0.139 0.311 0.311 0.311c0.172 0 0.311-0.139 0.311-0.311v0c0-0 0-0 0-0 0-0.172-0.139-0.311-0.311-0.312h-0z"></path>
<path fill="#a0cb39" style="fill: var(--color1, #a0cb39)" opacity="0.2" d="M1.963 16.514c-0.172 0-0.311 0.14-0.311 0.311s0.139 0.311 0.311 0.311c0.172 0 0.311-0.139 0.311-0.311v0c0-0 0-0 0-0 0-0.172-0.139-0.311-0.312-0.311-0 0-0 0-0 0v0z"></path>
<path fill="#a0cb39" style="fill: var(--color1, #a0cb39)" opacity="0.2" d="M0.311 16.514c-0.172 0-0.311 0.14-0.311 0.311s0.139 0.311 0.311 0.311c0.172 0 0.311-0.139 0.311-0.311v0c0-0 0-0 0-0 0-0.172-0.139-0.311-0.311-0.311-0 0-0 0-0 0v0z"></path>
<path fill="#a0cb39" style="fill: var(--color1, #a0cb39)" opacity="0.2" d="M15.174 14.863c-0.172 0-0.311 0.139-0.311 0.311s0.139 0.311 0.311 0.311 0.311-0.139 0.311-0.311c0-0 0-0 0-0v0c0 0 0 0 0 0 0-0.172-0.139-0.311-0.311-0.311-0 0-0 0-0.001 0h0z"></path>
<path fill="#a0cb39" style="fill: var(--color1, #a0cb39)" opacity="0.2" d="M13.523 14.863c-0 0-0 0-0 0-0.172 0-0.311 0.139-0.311 0.311s0.139 0.311 0.311 0.311c0.172 0 0.311-0.139 0.311-0.311 0-0 0-0 0-0v0c0-0.172-0.139-0.311-0.311-0.311v0z"></path>
<path fill="#a0cb39" style="fill: var(--color1, #a0cb39)" opacity="0.2" d="M10.22 14.863c-0.172 0-0.311 0.139-0.311 0.311s0.139 0.311 0.311 0.311 0.311-0.139 0.311-0.311c0-0 0-0 0-0v0c0 0 0 0 0 0 0-0.172-0.139-0.311-0.311-0.311-0 0-0 0-0.001 0h0z"></path>
<path fill="#a0cb39" style="fill: var(--color1, #a0cb39)" opacity="0.2" d="M6.917 14.863c-0 0-0 0-0 0-0.172 0-0.311 0.139-0.311 0.311s0.139 0.311 0.311 0.311c0.172 0 0.311-0.139 0.311-0.311 0-0 0-0 0-0v0c-0-0.172-0.139-0.311-0.311-0.311h-0z"></path>
<path fill="#a0cb39" style="fill: var(--color1, #a0cb39)" opacity="0.2" d="M5.266 14.863c-0.172 0-0.311 0.139-0.311 0.311s0.139 0.311 0.311 0.311 0.311-0.139 0.311-0.311c0-0 0-0 0-0v0c0 0 0 0 0 0 0-0.172-0.139-0.311-0.311-0.311-0 0-0 0-0.001 0h0z"></path>
<path fill="#a0cb39" style="fill: var(--color1, #a0cb39)" opacity="0.2" d="M1.963 14.863c-0.172 0-0.311 0.139-0.311 0.311s0.139 0.311 0.311 0.311 0.311-0.139 0.311-0.311c0-0 0-0 0-0v0c0 0 0 0 0 0 0-0.172-0.139-0.311-0.311-0.311-0 0-0 0-0.001 0h0z"></path>
<path fill="#a0cb39" style="fill: var(--color1, #a0cb39)" opacity="0.2" d="M18.477 13.211c-0.172 0-0.311 0.139-0.311 0.311s0.139 0.311 0.311 0.311c0.172 0 0.311-0.139 0.311-0.311v0c0-0 0-0 0-0 0-0.172-0.139-0.312-0.311-0.312-0 0-0 0-0 0v0z"></path>
<path fill="#a0cb39" style="fill: var(--color1, #a0cb39)" opacity="0.2" d="M15.174 13.211c-0.172 0-0.311 0.139-0.311 0.311s0.139 0.311 0.311 0.311c0.172 0 0.311-0.139 0.311-0.311v0c0-0 0-0 0-0 0-0.172-0.139-0.312-0.312-0.312-0 0-0 0-0 0v0z"></path>
<path fill="#a0cb39" style="fill: var(--color1, #a0cb39)" opacity="0.2" d="M13.523 13.211c-0 0-0 0-0 0-0.172 0-0.311 0.139-0.311 0.311s0.139 0.311 0.311 0.311c0.172 0 0.311-0.139 0.311-0.311v0c0-0 0-0 0-0 0-0.172-0.139-0.311-0.311-0.312h-0z"></path>
<path fill="#a0cb39" style="fill: var(--color1, #a0cb39)" opacity="0.2" d="M10.22 13.211c-0.172 0-0.311 0.139-0.311 0.311s0.139 0.311 0.311 0.311c0.172 0 0.311-0.139 0.311-0.311v0c0-0 0-0 0-0 0-0.172-0.139-0.312-0.312-0.312-0 0-0 0-0 0v0z"></path>
<path fill="#a0cb39" style="fill: var(--color1, #a0cb39)" opacity="0.2" d="M6.917 13.211c-0 0-0 0-0 0-0.172 0-0.311 0.139-0.311 0.311s0.139 0.311 0.311 0.311c0.172 0 0.311-0.139 0.311-0.311v0c0-0 0-0 0-0 0-0.172-0.139-0.311-0.311-0.312h-0z"></path>
<path fill="#a0cb39" style="fill: var(--color1, #a0cb39)" opacity="0.2" d="M5.266 13.211c-0.172 0-0.311 0.139-0.311 0.311s0.139 0.311 0.311 0.311c0.172 0 0.311-0.139 0.311-0.311v0c0-0 0-0 0-0 0-0.172-0.139-0.312-0.311-0.312-0 0-0 0-0 0v0z"></path>
<path fill="#a0cb39" style="fill: var(--color1, #a0cb39)" opacity="0.2" d="M1.963 13.211c-0.172 0-0.311 0.139-0.311 0.311s0.139 0.311 0.311 0.311c0.172 0 0.311-0.139 0.311-0.311v0c0-0 0-0 0-0 0-0.172-0.139-0.312-0.312-0.312-0 0-0 0-0 0v0z"></path>
<path fill="#a0cb39" style="fill: var(--color1, #a0cb39)" opacity="0.2" d="M20.129 11.56c-0 0-0 0-0 0-0.172 0-0.311 0.139-0.311 0.311s0.139 0.311 0.311 0.311c0.172 0 0.311-0.139 0.311-0.311v0c0-0 0-0 0-0 0-0.172-0.139-0.311-0.311-0.312h-0z"></path>
<path fill="#a0cb39" style="fill: var(--color1, #a0cb39)" opacity="0.2" d="M18.477 11.56c-0.172 0-0.311 0.139-0.311 0.311s0.139 0.311 0.311 0.311c0.172 0 0.311-0.139 0.311-0.311v0c0-0 0-0 0-0 0-0.172-0.139-0.312-0.311-0.312-0 0-0 0-0 0v0z"></path>
<path fill="#a0cb39" style="fill: var(--color1, #a0cb39)" opacity="0.2" d="M16.826 11.56c-0 0-0 0-0 0-0.172 0-0.311 0.139-0.311 0.311s0.139 0.311 0.311 0.311c0.172 0 0.311-0.139 0.311-0.311v0c0-0 0-0 0-0 0-0.172-0.139-0.311-0.311-0.312h-0z"></path>
<path fill="#a0cb39" style="fill: var(--color1, #a0cb39)" opacity="0.2" d="M15.174 11.56c-0.172 0-0.311 0.139-0.311 0.311s0.139 0.311 0.311 0.311c0.172 0 0.311-0.139 0.311-0.311v0c0-0 0-0 0-0 0-0.172-0.139-0.312-0.312-0.312-0 0-0 0-0 0v0z"></path>
<path fill="#a0cb39" style="fill: var(--color1, #a0cb39)" opacity="0.2" d="M13.523 11.56c-0 0-0 0-0 0-0.172 0-0.311 0.139-0.311 0.311s0.139 0.311 0.311 0.311c0.172 0 0.311-0.139 0.311-0.311v0c0-0 0-0 0-0 0-0.172-0.139-0.311-0.311-0.312h-0z"></path>
<path fill="#a0cb39" style="fill: var(--color1, #a0cb39)" opacity="0.2" d="M11.871 11.56c-0 0-0 0-0 0-0.172 0-0.311 0.139-0.311 0.311s0.139 0.311 0.311 0.311c0.172 0 0.311-0.139 0.311-0.311v0c0-0 0-0 0-0 0-0.172-0.139-0.311-0.311-0.312h-0z"></path>
<path fill="#a0cb39" style="fill: var(--color1, #a0cb39)" opacity="0.2" d="M10.22 11.56c-0.172 0-0.311 0.139-0.311 0.311s0.139 0.311 0.311 0.311c0.172 0 0.311-0.139 0.311-0.311v0c0-0 0-0 0-0 0-0.172-0.139-0.312-0.312-0.312-0 0-0 0-0 0v0z"></path>
<path fill="#a0cb39" style="fill: var(--color1, #a0cb39)" opacity="0.2" d="M8.569 11.56c-0 0-0 0-0 0-0.172 0-0.311 0.139-0.311 0.311s0.139 0.311 0.311 0.311c0.172 0 0.311-0.139 0.311-0.311v0c0-0 0-0 0-0 0-0.172-0.139-0.311-0.311-0.312h-0z"></path>
<path fill="#a0cb39" style="fill: var(--color1, #a0cb39)" opacity="0.2" d="M6.917 11.56c-0 0-0 0-0 0-0.172 0-0.311 0.139-0.311 0.311s0.139 0.311 0.311 0.311c0.172 0 0.311-0.139 0.311-0.311v0c0-0 0-0 0-0 0-0.172-0.139-0.311-0.311-0.312h-0z"></path>
<path fill="#a0cb39" style="fill: var(--color1, #a0cb39)" opacity="0.2" d="M5.266 11.56c-0.172 0-0.311 0.139-0.311 0.311s0.139 0.311 0.311 0.311c0.172 0 0.311-0.139 0.311-0.311v0c0-0 0-0 0-0 0-0.172-0.139-0.312-0.311-0.312-0 0-0 0-0 0v0z"></path>
<path fill="#a0cb39" style="fill: var(--color1, #a0cb39)" opacity="0.2" d="M3.614 11.56c-0 0-0 0-0 0-0.172 0-0.311 0.139-0.311 0.311s0.139 0.311 0.311 0.311c0.172 0 0.311-0.139 0.311-0.311v0c0-0 0-0 0-0 0-0.172-0.139-0.311-0.311-0.312h-0z"></path>
<path fill="#a0cb39" style="fill: var(--color1, #a0cb39)" opacity="0.2" d="M1.963 11.56c-0.172 0-0.311 0.139-0.311 0.311s0.139 0.311 0.311 0.311c0.172 0 0.311-0.139 0.311-0.311v0c0-0 0-0 0-0 0-0.172-0.139-0.312-0.312-0.312-0 0-0 0-0 0v0z"></path>
<path fill="#a0cb39" style="fill: var(--color1, #a0cb39)" opacity="0.2" d="M0.311 11.56c-0.172 0-0.311 0.139-0.311 0.311s0.139 0.311 0.311 0.311 0.311-0.139 0.311-0.311v0c0-0.172-0.139-0.312-0.311-0.312-0 0-0 0-0 0v0z"></path>
<path fill="#a0cb39" style="fill: var(--color1, #a0cb39)" opacity="0.2" d="M21.78 9.909c-0 0-0 0-0 0-0.172 0-0.311 0.139-0.311 0.311s0.139 0.311 0.311 0.311c0.172 0 0.311-0.139 0.311-0.311 0-0 0-0 0-0v0c0-0.172-0.139-0.311-0.311-0.311v0z"></path>
<path fill="#a0cb39" style="fill: var(--color1, #a0cb39)" opacity="0.2" d="M18.477 9.909c-0.172 0-0.311 0.139-0.311 0.311s0.139 0.311 0.311 0.311 0.311-0.139 0.311-0.311c0-0 0-0 0-0v0c0 0 0 0 0 0 0-0.172-0.139-0.311-0.311-0.311-0 0-0 0-0.001 0h0z"></path>
<path fill="#a0cb39" style="fill: var(--color1, #a0cb39)" opacity="0.2" d="M15.174 9.909c-0.172 0-0.311 0.139-0.311 0.311s0.139 0.311 0.311 0.311 0.311-0.139 0.311-0.311c0-0 0-0 0-0v0c0 0 0 0 0 0 0-0.172-0.139-0.311-0.311-0.311-0 0-0 0-0.001 0h0z"></path>
<path fill="#a0cb39" style="fill: var(--color1, #a0cb39)" opacity="0.2" d="M13.523 9.909c-0 0-0 0-0 0-0.172 0-0.311 0.139-0.311 0.311s0.139 0.311 0.311 0.311c0.172 0 0.311-0.139 0.311-0.311 0-0 0-0 0-0v0c0-0.172-0.139-0.311-0.311-0.311v0z"></path>
<path fill="#a0cb39" style="fill: var(--color1, #a0cb39)" opacity="0.2" d="M10.22 9.909c-0.172 0-0.311 0.139-0.311 0.311s0.139 0.311 0.311 0.311 0.311-0.139 0.311-0.311c0-0 0-0 0-0v0c0 0 0 0 0 0 0-0.172-0.139-0.311-0.311-0.311-0 0-0 0-0.001 0h0z"></path>
<path fill="#a0cb39" style="fill: var(--color1, #a0cb39)" opacity="0.2" d="M6.917 9.909c-0 0-0 0-0 0-0.172 0-0.311 0.139-0.311 0.311s0.139 0.311 0.311 0.311c0.172 0 0.311-0.139 0.311-0.311 0-0 0-0 0-0v0c-0-0.172-0.139-0.311-0.311-0.311h-0z"></path>
<path fill="#a0cb39" style="fill: var(--color1, #a0cb39)" opacity="0.2" d="M5.266 9.909c-0.172 0-0.311 0.139-0.311 0.311s0.139 0.311 0.311 0.311 0.311-0.139 0.311-0.311c0-0 0-0 0-0v0c0 0 0 0 0 0 0-0.172-0.139-0.311-0.311-0.311-0 0-0 0-0.001 0h0z"></path>
<path fill="#a0cb39" style="fill: var(--color1, #a0cb39)" opacity="0.2" d="M1.963 9.909c-0.172 0-0.311 0.139-0.311 0.311s0.139 0.311 0.311 0.311 0.311-0.139 0.311-0.311c0-0 0-0 0-0v0c0 0 0 0 0 0 0-0.172-0.139-0.311-0.311-0.311-0 0-0 0-0.001 0h0z"></path>
<path fill="#a0cb39" style="fill: var(--color1, #a0cb39)" opacity="0.2" d="M23.431 8.257c-0.172 0-0.311 0.139-0.311 0.311s0.139 0.311 0.311 0.311c0.172 0 0.311-0.139 0.311-0.311v0c0-0 0-0 0-0 0-0.172-0.139-0.312-0.311-0.312-0 0-0 0-0 0v0z"></path>
<path fill="#a0cb39" style="fill: var(--color1, #a0cb39)" opacity="0.2" d="M21.78 8.257c-0 0-0 0-0 0-0.172 0-0.311 0.139-0.311 0.311s0.139 0.311 0.311 0.311c0.172 0 0.311-0.139 0.311-0.311v0c0-0 0-0 0-0.001 0-0.172-0.139-0.311-0.311-0.311 0 0 0 0 0 0v0z"></path>
<path fill="#a0cb39" style="fill: var(--color1, #a0cb39)" opacity="0.2" d="M20.129 8.257c-0 0-0 0-0 0-0.172 0-0.311 0.139-0.311 0.311s0.139 0.311 0.311 0.311c0.172 0 0.311-0.139 0.311-0.311v0c0-0 0-0 0-0 0-0.172-0.139-0.311-0.311-0.312h-0z"></path>
<path fill="#a0cb39" style="fill: var(--color1, #a0cb39)" opacity="0.2" d="M18.477 8.257c-0.172 0-0.311 0.139-0.311 0.311s0.139 0.311 0.311 0.311c0.172 0 0.311-0.139 0.311-0.311v0c0-0 0-0 0-0 0-0.172-0.139-0.312-0.311-0.312-0 0-0 0-0 0v0z"></path>
<path fill="#a0cb39" style="fill: var(--color1, #a0cb39)" opacity="0.2" d="M16.826 8.257c-0 0-0 0-0 0-0.172 0-0.311 0.139-0.311 0.311s0.139 0.311 0.311 0.311c0.172 0 0.311-0.139 0.311-0.311v0c0-0 0-0 0-0 0-0.172-0.139-0.311-0.311-0.312h-0z"></path>
<path fill="#a0cb39" style="fill: var(--color1, #a0cb39)" opacity="0.2" d="M15.174 8.257c-0.172 0-0.311 0.139-0.311 0.311s0.139 0.311 0.311 0.311c0.172 0 0.311-0.139 0.311-0.311v0c0-0 0-0 0-0 0-0.172-0.139-0.312-0.312-0.312-0 0-0 0-0 0v0z"></path>
<path fill="#a0cb39" style="fill: var(--color1, #a0cb39)" opacity="0.2" d="M13.523 8.257c-0 0-0 0-0 0-0.172 0-0.311 0.139-0.311 0.311s0.139 0.311 0.311 0.311c0.172 0 0.311-0.139 0.311-0.311v0c0-0 0-0 0-0 0-0.172-0.139-0.311-0.311-0.312h-0z"></path>
<path fill="#a0cb39" style="fill: var(--color1, #a0cb39)" opacity="0.2" d="M11.871 8.257c-0 0-0 0-0 0-0.172 0-0.311 0.139-0.311 0.311s0.139 0.311 0.311 0.311c0.172 0 0.311-0.139 0.311-0.311v0c0-0 0-0 0-0 0-0.172-0.139-0.311-0.311-0.312h-0z"></path>
<path fill="#a0cb39" style="fill: var(--color1, #a0cb39)" opacity="0.2" d="M10.22 8.257c-0.172 0-0.311 0.139-0.311 0.311s0.139 0.311 0.311 0.311c0.172 0 0.311-0.139 0.311-0.311v0c0-0 0-0 0-0 0-0.172-0.139-0.312-0.312-0.312-0 0-0 0-0 0v0z"></path>
<path fill="#a0cb39" style="fill: var(--color1, #a0cb39)" opacity="0.2" d="M8.569 8.257c-0 0-0 0-0 0-0.172 0-0.311 0.139-0.311 0.311s0.139 0.311 0.311 0.311c0.172 0 0.311-0.139 0.311-0.311v0c0-0 0-0 0-0 0-0.172-0.139-0.311-0.311-0.312h-0z"></path>
<path fill="#a0cb39" style="fill: var(--color1, #a0cb39)" opacity="0.2" d="M6.917 8.257c-0 0-0 0-0 0-0.172 0-0.311 0.139-0.311 0.311s0.139 0.311 0.311 0.311c0.172 0 0.311-0.139 0.311-0.311v0c0-0 0-0 0-0 0-0.172-0.139-0.311-0.311-0.312h-0z"></path>
<path fill="#a0cb39" style="fill: var(--color1, #a0cb39)" opacity="0.2" d="M5.266 8.257c-0.172 0-0.311 0.139-0.311 0.311s0.139 0.311 0.311 0.311c0.172 0 0.311-0.139 0.311-0.311v0c0-0 0-0 0-0 0-0.172-0.139-0.312-0.311-0.312-0 0-0 0-0 0v0z"></path>
<path fill="#a0cb39" style="fill: var(--color1, #a0cb39)" opacity="0.2" d="M3.614 8.257c-0 0-0 0-0 0-0.172 0-0.311 0.139-0.311 0.311s0.139 0.311 0.311 0.311c0.172 0 0.311-0.139 0.311-0.311v0c0-0 0-0 0-0 0-0.172-0.139-0.311-0.311-0.312h-0z"></path>
<path fill="#a0cb39" style="fill: var(--color1, #a0cb39)" opacity="0.2" d="M1.963 8.257c-0.172 0-0.311 0.139-0.311 0.311s0.139 0.311 0.311 0.311c0.172 0 0.311-0.139 0.311-0.311v0c0-0 0-0 0-0 0-0.172-0.139-0.312-0.312-0.312-0 0-0 0-0 0v0z"></path>
<path fill="#a0cb39" style="fill: var(--color1, #a0cb39)" opacity="0.2" d="M0.311 8.257c-0.172 0-0.311 0.139-0.311 0.311s0.139 0.311 0.311 0.311c0.172 0 0.311-0.139 0.311-0.311v0c0-0 0-0 0-0 0-0.172-0.139-0.312-0.311-0.312-0 0-0 0-0 0v0z"></path>
<path fill="#a0cb39" style="fill: var(--color1, #a0cb39)" opacity="0.2" d="M25.083 6.606c-0 0-0 0-0 0-0.172 0-0.311 0.139-0.311 0.311s0.139 0.311 0.311 0.311c0.172 0 0.311-0.139 0.311-0.311 0-0 0-0 0-0v0c-0-0.172-0.139-0.311-0.311-0.311h-0z"></path>
<path fill="#a0cb39" style="fill: var(--color1, #a0cb39)" opacity="0.2" d="M23.431 6.606c-0.172 0-0.311 0.139-0.311 0.311s0.139 0.311 0.311 0.311 0.311-0.139 0.311-0.311c0-0 0-0 0-0v0c0 0 0 0 0 0 0-0.172-0.139-0.311-0.311-0.311-0 0-0 0-0.001 0h0z"></path>
<path fill="#a0cb39" style="fill: var(--color1, #a0cb39)" opacity="0.2" d="M21.78 6.606c-0 0-0 0-0 0-0.172 0-0.311 0.139-0.311 0.311s0.139 0.311 0.311 0.311c0.172 0 0.311-0.139 0.311-0.311 0-0 0-0 0-0v0c0-0.172-0.139-0.311-0.311-0.311v0z"></path>
<path fill="#a0cb39" style="fill: var(--color1, #a0cb39)" opacity="0.2" d="M20.129 6.606c-0 0-0 0-0 0-0.172 0-0.311 0.139-0.311 0.311s0.139 0.311 0.311 0.311c0.172 0 0.311-0.139 0.311-0.311 0-0 0-0 0-0v0c-0-0.172-0.139-0.311-0.311-0.311h-0z"></path>
<path fill="#a0cb39" style="fill: var(--color1, #a0cb39)" opacity="0.2" d="M18.477 6.606c-0.172 0-0.311 0.139-0.311 0.311s0.139 0.311 0.311 0.311 0.311-0.139 0.311-0.311c0-0 0-0 0-0v0c0 0 0 0 0 0 0-0.172-0.139-0.311-0.311-0.311-0 0-0 0-0.001 0h0z"></path>
<path fill="#a0cb39" style="fill: var(--color1, #a0cb39)" opacity="0.2" d="M16.826 6.606c-0 0-0 0-0 0-0.172 0-0.311 0.139-0.311 0.311s0.139 0.311 0.311 0.311c0.172 0 0.311-0.139 0.311-0.311 0-0 0-0 0-0v0c-0-0.172-0.139-0.311-0.311-0.311h-0z"></path>
<path fill="#a0cb39" style="fill: var(--color1, #a0cb39)" opacity="0.2" d="M15.174 6.606c-0.172 0-0.311 0.139-0.311 0.311s0.139 0.311 0.311 0.311 0.311-0.139 0.311-0.311c0-0 0-0 0-0v0c0 0 0 0 0 0 0-0.172-0.139-0.311-0.311-0.311-0 0-0 0-0.001 0h0z"></path>
<path fill="#a0cb39" style="fill: var(--color1, #a0cb39)" opacity="0.2" d="M13.523 6.606c-0 0-0 0-0 0-0.172 0-0.311 0.139-0.311 0.311s0.139 0.311 0.311 0.311c0.172 0 0.311-0.139 0.311-0.311 0-0 0-0 0-0v0c0-0.172-0.139-0.311-0.311-0.311v0z"></path>
<path fill="#a0cb39" style="fill: var(--color1, #a0cb39)" opacity="0.2" d="M11.871 6.606c-0 0-0 0-0 0-0.172 0-0.311 0.139-0.311 0.311s0.139 0.311 0.311 0.311c0.172 0 0.311-0.139 0.311-0.311 0-0 0-0 0-0v0c-0-0.172-0.139-0.311-0.311-0.311h-0z"></path>
<path fill="#a0cb39" style="fill: var(--color1, #a0cb39)" opacity="0.2" d="M10.22 6.606c-0.172 0-0.311 0.139-0.311 0.311s0.139 0.311 0.311 0.311 0.311-0.139 0.311-0.311c0-0 0-0 0-0v0c0 0 0 0 0 0 0-0.172-0.139-0.311-0.311-0.311-0 0-0 0-0.001 0h0z"></path>
<path fill="#a0cb39" style="fill: var(--color1, #a0cb39)" opacity="0.2" d="M8.569 6.606c-0 0-0 0-0 0-0.172 0-0.311 0.139-0.311 0.311s0.139 0.311 0.311 0.311c0.172 0 0.311-0.139 0.311-0.311 0-0 0-0 0-0v0c0-0.172-0.139-0.311-0.311-0.311v0z"></path>
<path fill="#a0cb39" style="fill: var(--color1, #a0cb39)" opacity="0.2" d="M6.917 6.606c-0 0-0 0-0 0-0.172 0-0.311 0.139-0.311 0.311s0.139 0.311 0.311 0.311c0.172 0 0.311-0.139 0.311-0.311 0-0 0-0 0-0v0c-0-0.172-0.139-0.311-0.311-0.311h-0z"></path>
<path fill="#a0cb39" style="fill: var(--color1, #a0cb39)" opacity="0.2" d="M5.266 6.606c-0.172 0-0.311 0.139-0.311 0.311s0.139 0.311 0.311 0.311 0.311-0.139 0.311-0.311c0-0 0-0 0-0v0c0 0 0 0 0 0 0-0.172-0.139-0.311-0.311-0.311-0 0-0 0-0.001 0h0z"></path>
<path fill="#a0cb39" style="fill: var(--color1, #a0cb39)" opacity="0.2" d="M3.614 6.606c-0 0-0 0-0 0-0.172 0-0.311 0.139-0.311 0.311s0.139 0.311 0.311 0.311c0.172 0 0.311-0.139 0.311-0.311 0-0 0-0 0-0v0c-0-0.172-0.139-0.311-0.311-0.311h-0z"></path>
<path fill="#a0cb39" style="fill: var(--color1, #a0cb39)" opacity="0.2" d="M1.963 6.606c-0.172 0-0.311 0.139-0.311 0.311s0.139 0.311 0.311 0.311 0.311-0.139 0.311-0.311c0-0 0-0 0-0v0c0 0 0 0 0 0 0-0.172-0.139-0.311-0.311-0.311-0 0-0 0-0.001 0h0z"></path>
<path fill="#a0cb39" style="fill: var(--color1, #a0cb39)" opacity="0.2" d="M0.311 6.606c-0.172 0-0.311 0.139-0.311 0.311s0.139 0.311 0.311 0.311 0.311-0.139 0.311-0.311c0-0 0-0 0-0v0c0 0 0 0 0 0 0-0.172-0.139-0.311-0.311-0.311-0 0-0 0-0.001 0h0z"></path>
<path fill="#a0cb39" style="fill: var(--color1, #a0cb39)" opacity="0.2" d="M26.734 4.954c-0.172 0-0.311 0.139-0.311 0.311s0.139 0.311 0.311 0.311c0.172 0 0.311-0.139 0.311-0.311v0c0-0.172-0.139-0.311-0.311-0.311v0z"></path>
<path fill="#a0cb39" style="fill: var(--color1, #a0cb39)" opacity="0.2" d="M23.431 4.954c-0.171 0-0.31 0.139-0.31 0.311s0.139 0.311 0.311 0.311 0.311-0.139 0.311-0.311v0c0 0 0 0 0 0 0-0.172-0.139-0.311-0.311-0.311-0 0-0 0-0.001 0h0z"></path>
<path fill="#a0cb39" style="fill: var(--color1, #a0cb39)" opacity="0.2" d="M21.78 4.954c-0.172 0-0.311 0.139-0.311 0.311s0.139 0.311 0.311 0.311c0.172 0 0.311-0.139 0.311-0.311v0c0-0.172-0.139-0.311-0.311-0.311v0z"></path>
<path fill="#a0cb39" style="fill: var(--color1, #a0cb39)" opacity="0.2" d="M18.477 4.954c-0.171 0-0.31 0.139-0.31 0.311s0.139 0.311 0.311 0.311 0.311-0.139 0.311-0.311v0c0 0 0 0 0 0 0-0.172-0.139-0.311-0.311-0.311-0 0-0 0-0.001 0h0z"></path>
<path fill="#a0cb39" style="fill: var(--color1, #a0cb39)" opacity="0.2" d="M15.174 4.954c-0.171 0-0.31 0.139-0.31 0.311s0.139 0.311 0.311 0.311 0.311-0.139 0.311-0.311v0c0 0 0 0 0 0 0-0.172-0.139-0.311-0.311-0.311-0 0-0 0-0.001 0h0z"></path>
<path fill="#a0cb39" style="fill: var(--color1, #a0cb39)" opacity="0.2" d="M13.523 4.954c-0.172 0-0.311 0.139-0.311 0.311s0.139 0.311 0.311 0.311c0.172 0 0.311-0.139 0.311-0.311v0c0-0.172-0.139-0.311-0.311-0.311v0z"></path>
<path fill="#a0cb39" style="fill: var(--color1, #a0cb39)" opacity="0.2" d="M10.22 4.954c-0.171 0-0.31 0.139-0.31 0.311s0.139 0.311 0.311 0.311 0.311-0.139 0.311-0.311v0c0 0 0 0 0 0 0-0.172-0.139-0.311-0.311-0.311-0 0-0 0-0.001 0h0z"></path>
<path fill="#a0cb39" style="fill: var(--color1, #a0cb39)" opacity="0.2" d="M6.917 4.954c-0.172 0-0.311 0.139-0.311 0.311s0.139 0.311 0.311 0.311c0.172 0 0.311-0.139 0.311-0.311v0c-0-0.172-0.139-0.311-0.311-0.311h-0z"></path>
<path fill="#a0cb39" style="fill: var(--color1, #a0cb39)" opacity="0.2" d="M5.266 4.954c-0.171 0-0.31 0.139-0.31 0.311s0.139 0.311 0.311 0.311 0.311-0.139 0.311-0.311v0c0 0 0 0 0 0 0-0.172-0.139-0.311-0.311-0.311-0 0-0 0-0.001 0h0z"></path>
<path fill="#a0cb39" style="fill: var(--color1, #a0cb39)" opacity="0.2" d="M1.963 4.954c-0.171 0-0.31 0.139-0.31 0.311s0.139 0.311 0.311 0.311 0.311-0.139 0.311-0.311v0c0 0 0 0 0 0 0-0.172-0.139-0.311-0.311-0.311-0 0-0 0-0.001 0h0z"></path>
<path fill="#a0cb39" style="fill: var(--color1, #a0cb39)" opacity="0.2" d="M28.386 3.303c-0.172 0-0.311 0.139-0.311 0.311s0.139 0.311 0.311 0.311c0.172 0 0.311-0.139 0.311-0.311v0c0-0 0-0 0-0 0-0.172-0.139-0.312-0.311-0.312-0 0-0 0-0 0v0z"></path>
<path fill="#a0cb39" style="fill: var(--color1, #a0cb39)" opacity="0.2" d="M26.734 3.303c-0 0-0 0-0 0-0.172 0-0.311 0.139-0.311 0.311s0.139 0.311 0.311 0.311c0.172 0 0.311-0.139 0.311-0.311v0c0-0 0-0 0-0.001 0-0.172-0.139-0.311-0.311-0.311 0 0 0 0 0 0v0z"></path>
<path fill="#a0cb39" style="fill: var(--color1, #a0cb39)" opacity="0.2" d="M25.083 3.303c-0 0-0 0-0 0-0.172 0-0.311 0.139-0.311 0.311s0.139 0.311 0.311 0.311c0.172 0 0.311-0.139 0.311-0.311v0c0-0 0-0 0-0 0-0.172-0.139-0.311-0.311-0.312h-0z"></path>
<path fill="#a0cb39" style="fill: var(--color1, #a0cb39)" opacity="0.2" d="M23.431 3.303c-0.172 0-0.311 0.139-0.311 0.311s0.139 0.311 0.311 0.311c0.172 0 0.311-0.139 0.311-0.311v0c0-0 0-0 0-0 0-0.172-0.139-0.312-0.311-0.312-0 0-0 0-0 0v0z"></path>
<path fill="#a0cb39" style="fill: var(--color1, #a0cb39)" opacity="0.2" d="M21.78 3.303c-0 0-0 0-0 0-0.172 0-0.311 0.139-0.311 0.311s0.139 0.311 0.311 0.311c0.172 0 0.311-0.139 0.311-0.311v0c0-0 0-0 0-0.001 0-0.172-0.139-0.311-0.311-0.311 0 0 0 0 0 0v0z"></path>
<path fill="#a0cb39" style="fill: var(--color1, #a0cb39)" opacity="0.2" d="M20.129 3.303c-0 0-0 0-0 0-0.172 0-0.311 0.139-0.311 0.311s0.139 0.311 0.311 0.311c0.172 0 0.311-0.139 0.311-0.311v0c0-0 0-0 0-0 0-0.172-0.139-0.311-0.311-0.312h-0z"></path>
<path fill="#a0cb39" style="fill: var(--color1, #a0cb39)" opacity="0.2" d="M18.477 3.303c-0.172 0-0.311 0.139-0.311 0.311s0.139 0.311 0.311 0.311c0.172 0 0.311-0.139 0.311-0.311v0c0-0 0-0 0-0 0-0.172-0.139-0.312-0.311-0.312-0 0-0 0-0 0v0z"></path>
<path fill="#a0cb39" style="fill: var(--color1, #a0cb39)" opacity="0.2" d="M16.826 3.303c-0 0-0 0-0 0-0.172 0-0.311 0.139-0.311 0.311s0.139 0.311 0.311 0.311c0.172 0 0.311-0.139 0.311-0.311v0c0-0 0-0 0-0 0-0.172-0.139-0.311-0.311-0.312h-0z"></path>
<path fill="#a0cb39" style="fill: var(--color1, #a0cb39)" opacity="0.2" d="M15.174 3.303c-0.172 0-0.311 0.139-0.311 0.311s0.139 0.311 0.311 0.311c0.172 0 0.311-0.139 0.311-0.311v0c0-0 0-0 0-0 0-0.172-0.139-0.312-0.312-0.312-0 0-0 0-0 0v0z"></path>
<path fill="#a0cb39" style="fill: var(--color1, #a0cb39)" opacity="0.2" d="M13.523 3.303c-0 0-0 0-0 0-0.172 0-0.311 0.139-0.311 0.311s0.139 0.311 0.311 0.311c0.172 0 0.311-0.139 0.311-0.311v0c0-0 0-0 0-0 0-0.172-0.139-0.311-0.311-0.312h-0z"></path>
<path fill="#a0cb39" style="fill: var(--color1, #a0cb39)" opacity="0.2" d="M11.871 3.303c-0 0-0 0-0 0-0.172 0-0.311 0.139-0.311 0.311s0.139 0.311 0.311 0.311c0.172 0 0.311-0.139 0.311-0.311v0c0-0 0-0 0-0 0-0.172-0.139-0.311-0.311-0.312h-0z"></path>
<path fill="#a0cb39" style="fill: var(--color1, #a0cb39)" opacity="0.2" d="M10.22 3.303c-0.172 0-0.311 0.139-0.311 0.311s0.139 0.311 0.311 0.311c0.172 0 0.311-0.139 0.311-0.311v0c0-0 0-0 0-0 0-0.172-0.139-0.312-0.312-0.312-0 0-0 0-0 0v0z"></path>
<path fill="#a0cb39" style="fill: var(--color1, #a0cb39)" opacity="0.2" d="M8.569 3.303c-0 0-0 0-0 0-0.172 0-0.311 0.139-0.311 0.311s0.139 0.311 0.311 0.311c0.172 0 0.311-0.139 0.311-0.311v0c0-0 0-0 0-0 0-0.172-0.139-0.311-0.311-0.312h-0z"></path>
<path fill="#a0cb39" style="fill: var(--color1, #a0cb39)" opacity="0.2" d="M6.917 3.303c-0 0-0 0-0 0-0.172 0-0.311 0.139-0.311 0.311s0.139 0.311 0.311 0.311c0.172 0 0.311-0.139 0.311-0.311v0c0-0 0-0 0-0 0-0.172-0.139-0.311-0.311-0.312h-0z"></path>
<path fill="#a0cb39" style="fill: var(--color1, #a0cb39)" opacity="0.2" d="M5.266 3.303c-0.172 0-0.311 0.139-0.311 0.311s0.139 0.311 0.311 0.311c0.172 0 0.311-0.139 0.311-0.311v0c0-0 0-0 0-0 0-0.172-0.139-0.312-0.311-0.312-0 0-0 0-0 0v0z"></path>
<path fill="#a0cb39" style="fill: var(--color1, #a0cb39)" opacity="0.2" d="M3.614 3.303c-0 0-0 0-0 0-0.172 0-0.311 0.139-0.311 0.311s0.139 0.311 0.311 0.311c0.172 0 0.311-0.139 0.311-0.311v0c0-0 0-0 0-0 0-0.172-0.139-0.311-0.311-0.312h-0z"></path>
<path fill="#a0cb39" style="fill: var(--color1, #a0cb39)" opacity="0.2" d="M1.963 3.303c-0.172 0-0.311 0.139-0.311 0.311s0.139 0.311 0.311 0.311c0.172 0 0.311-0.139 0.311-0.311v0c0-0 0-0 0-0 0-0.172-0.139-0.312-0.312-0.312-0 0-0 0-0 0v0z"></path>
<path fill="#a0cb39" style="fill: var(--color1, #a0cb39)" opacity="0.2" d="M0.311 3.303c-0.172 0-0.311 0.139-0.311 0.311s0.139 0.311 0.311 0.311c0.172 0 0.311-0.139 0.311-0.311v0c0-0 0-0 0-0 0-0.172-0.139-0.312-0.311-0.312-0 0-0 0-0 0v0z"></path>
<path fill="#a0cb39" style="fill: var(--color1, #a0cb39)" opacity="0.2" d="M30.037 1.651c-0 0-0 0-0 0-0.172 0-0.311 0.139-0.311 0.311s0.139 0.311 0.311 0.311c0.172 0 0.311-0.139 0.311-0.311 0-0 0-0 0-0v0c-0-0.172-0.139-0.311-0.311-0.311h-0z"></path>
<path fill="#a0cb39" style="fill: var(--color1, #a0cb39)" opacity="0.2" d="M26.734 1.651c-0 0-0 0-0 0-0.172 0-0.311 0.139-0.311 0.311s0.139 0.311 0.311 0.311c0.172 0 0.311-0.139 0.311-0.311 0-0 0-0 0-0v0c0-0.172-0.139-0.311-0.311-0.311v0z"></path>
<path fill="#a0cb39" style="fill: var(--color1, #a0cb39)" opacity="0.2" d="M23.431 1.651c-0.172 0-0.311 0.139-0.311 0.311s0.139 0.311 0.311 0.311 0.311-0.139 0.311-0.311c0-0 0-0 0-0v0c0 0 0 0 0 0 0-0.172-0.139-0.311-0.311-0.311-0 0-0 0-0.001 0h0z"></path>
<path fill="#a0cb39" style="fill: var(--color1, #a0cb39)" opacity="0.2" d="M21.78 1.651c-0 0-0 0-0 0-0.172 0-0.311 0.139-0.311 0.311s0.139 0.311 0.311 0.311c0.172 0 0.311-0.139 0.311-0.311 0-0 0-0 0-0v0c0-0.172-0.139-0.311-0.311-0.311v0z"></path>
<path fill="#a0cb39" style="fill: var(--color1, #a0cb39)" opacity="0.2" d="M18.477 1.651c-0.172 0-0.311 0.139-0.311 0.311s0.139 0.311 0.311 0.311 0.311-0.139 0.311-0.311c0-0 0-0 0-0v0c0 0 0 0 0 0 0-0.172-0.139-0.311-0.311-0.311-0 0-0 0-0.001 0h0z"></path>
<path fill="#a0cb39" style="fill: var(--color1, #a0cb39)" opacity="0.2" d="M15.174 1.651c-0.172 0-0.311 0.139-0.311 0.311s0.139 0.311 0.311 0.311 0.311-0.139 0.311-0.311c0-0 0-0 0-0v0c0 0 0 0 0 0 0-0.172-0.139-0.311-0.311-0.311-0 0-0 0-0.001 0h0z"></path>
<path fill="#a0cb39" style="fill: var(--color1, #a0cb39)" opacity="0.2" d="M13.523 1.651c-0 0-0 0-0 0-0.172 0-0.311 0.139-0.311 0.311s0.139 0.311 0.311 0.311c0.172 0 0.311-0.139 0.311-0.311 0-0 0-0 0-0v0c0-0.172-0.139-0.311-0.311-0.311v0z"></path>
<path fill="#a0cb39" style="fill: var(--color1, #a0cb39)" opacity="0.2" d="M10.22 1.651c-0.172 0-0.311 0.139-0.311 0.311s0.139 0.311 0.311 0.311 0.311-0.139 0.311-0.311c0-0 0-0 0-0v0c0 0 0 0 0 0 0-0.172-0.139-0.311-0.311-0.311-0 0-0 0-0.001 0h0z"></path>
<path fill="#a0cb39" style="fill: var(--color1, #a0cb39)" opacity="0.2" d="M6.917 1.651c-0 0-0 0-0 0-0.172 0-0.311 0.139-0.311 0.311s0.139 0.311 0.311 0.311c0.172 0 0.311-0.139 0.311-0.311 0-0 0-0 0-0v0c-0-0.172-0.139-0.311-0.311-0.311h-0z"></path>
<path fill="#a0cb39" style="fill: var(--color1, #a0cb39)" opacity="0.2" d="M5.266 1.651c-0.172 0-0.311 0.139-0.311 0.311s0.139 0.311 0.311 0.311 0.311-0.139 0.311-0.311c0-0 0-0 0-0v0c0 0 0 0 0 0 0-0.172-0.139-0.311-0.311-0.311-0 0-0 0-0.001 0h0z"></path>
<path fill="#a0cb39" style="fill: var(--color1, #a0cb39)" opacity="0.2" d="M1.963 1.651c-0.172 0-0.311 0.139-0.311 0.311s0.139 0.311 0.311 0.311 0.311-0.139 0.311-0.311c0-0 0-0 0-0v0c0 0 0 0 0 0 0-0.172-0.139-0.311-0.311-0.311-0 0-0 0-0.001 0h0z"></path>
<path fill="#a0cb39" style="fill: var(--color1, #a0cb39)" opacity="0.2" d="M31.689 0c-0.172 0-0.311 0.139-0.311 0.311s0.139 0.311 0.311 0.311c0.172 0 0.311-0.139 0.311-0.311v0c0-0.172-0.139-0.311-0.311-0.311v0z"></path>
<path fill="#a0cb39" style="fill: var(--color1, #a0cb39)" opacity="0.2" d="M30.037 0c-0.172 0-0.311 0.139-0.311 0.311s0.139 0.311 0.311 0.311c0.172 0 0.311-0.139 0.311-0.311v0c-0-0.172-0.139-0.311-0.311-0.311h-0z"></path>
<path fill="#a0cb39" style="fill: var(--color1, #a0cb39)" opacity="0.2" d="M28.386 0c-0.172 0-0.31 0.139-0.31 0.311s0.139 0.311 0.311 0.311 0.311-0.139 0.311-0.311v0c0 0 0 0 0 0 0-0.172-0.139-0.311-0.311-0.311-0 0-0 0-0.001 0h0z"></path>
<path fill="#a0cb39" style="fill: var(--color1, #a0cb39)" opacity="0.2" d="M26.734 0c-0.172 0-0.311 0.139-0.311 0.311s0.139 0.311 0.311 0.311c0.172 0 0.311-0.139 0.311-0.311v0c0-0.172-0.139-0.311-0.311-0.311v0z"></path>
<path fill="#a0cb39" style="fill: var(--color1, #a0cb39)" opacity="0.2" d="M25.083 0c-0.172 0-0.311 0.139-0.311 0.311s0.139 0.311 0.311 0.311c0.172 0 0.311-0.139 0.311-0.311v0c-0-0.172-0.139-0.311-0.311-0.311h-0z"></path>
<path fill="#a0cb39" style="fill: var(--color1, #a0cb39)" opacity="0.2" d="M23.431 0c-0.171 0-0.31 0.139-0.31 0.311s0.139 0.311 0.311 0.311 0.311-0.139 0.311-0.311v0c0 0 0 0 0 0 0-0.172-0.139-0.311-0.311-0.311-0 0-0 0-0.001 0h0z"></path>
<path fill="#a0cb39" style="fill: var(--color1, #a0cb39)" opacity="0.2" d="M21.78 0c-0.172 0-0.311 0.139-0.311 0.311s0.139 0.311 0.311 0.311c0.172 0 0.311-0.139 0.311-0.311v0c0-0.172-0.139-0.311-0.311-0.311v0z"></path>
<path fill="#a0cb39" style="fill: var(--color1, #a0cb39)" opacity="0.2" d="M20.129 0c-0.172 0-0.311 0.139-0.311 0.311s0.139 0.311 0.311 0.311c0.172 0 0.311-0.139 0.311-0.311v0c-0-0.172-0.139-0.311-0.311-0.311h-0z"></path>
<path fill="#a0cb39" style="fill: var(--color1, #a0cb39)" opacity="0.2" d="M18.477 0c-0.171 0-0.31 0.139-0.31 0.311s0.139 0.311 0.311 0.311 0.311-0.139 0.311-0.311v0c0 0 0 0 0 0 0-0.172-0.139-0.311-0.311-0.311-0 0-0 0-0.001 0h0z"></path>
<path fill="#a0cb39" style="fill: var(--color1, #a0cb39)" opacity="0.2" d="M16.826 0c-0.172 0-0.311 0.139-0.311 0.311s0.139 0.311 0.311 0.311c0.172 0 0.311-0.139 0.311-0.311v0c-0-0.172-0.139-0.311-0.311-0.311h-0z"></path>
<path fill="#a0cb39" style="fill: var(--color1, #a0cb39)" opacity="0.2" d="M15.174 0c-0.171 0-0.31 0.139-0.31 0.311s0.139 0.311 0.311 0.311 0.311-0.139 0.311-0.311v0c0 0 0 0 0 0 0-0.172-0.139-0.311-0.311-0.311-0 0-0 0-0.001 0h0z"></path>
<path fill="#a0cb39" style="fill: var(--color1, #a0cb39)" opacity="0.2" d="M13.523 0c-0.172 0-0.311 0.139-0.311 0.311s0.139 0.311 0.311 0.311c0.172 0 0.311-0.139 0.311-0.311v0c0-0.172-0.139-0.311-0.311-0.311v0z"></path>
<path fill="#a0cb39" style="fill: var(--color1, #a0cb39)" opacity="0.2" d="M11.871 0c-0.172 0-0.311 0.139-0.311 0.311s0.139 0.311 0.311 0.311c0.172 0 0.311-0.139 0.311-0.311v0c-0-0.172-0.139-0.311-0.311-0.311h-0z"></path>
<path fill="#a0cb39" style="fill: var(--color1, #a0cb39)" opacity="0.2" d="M10.22 0c-0.171 0-0.31 0.139-0.31 0.311s0.139 0.311 0.311 0.311 0.311-0.139 0.311-0.311v0c0 0 0 0 0 0 0-0.172-0.139-0.311-0.311-0.311-0 0-0 0-0.001 0h0z"></path>
<path fill="#a0cb39" style="fill: var(--color1, #a0cb39)" opacity="0.2" d="M8.569 0c-0.172 0-0.311 0.139-0.311 0.311s0.139 0.311 0.311 0.311c0.172 0 0.311-0.139 0.311-0.311v0c0-0.172-0.139-0.311-0.311-0.311v0z"></path>
<path fill="#a0cb39" style="fill: var(--color1, #a0cb39)" opacity="0.2" d="M6.917 0c-0.172 0-0.311 0.139-0.311 0.311s0.139 0.311 0.311 0.311c0.172 0 0.311-0.139 0.311-0.311v0c-0-0.172-0.139-0.311-0.311-0.311h-0z"></path>
<path fill="#a0cb39" style="fill: var(--color1, #a0cb39)" opacity="0.2" d="M5.266 0c-0.171 0-0.31 0.139-0.31 0.311s0.139 0.311 0.311 0.311 0.311-0.139 0.311-0.311v0c0 0 0 0 0 0 0-0.172-0.139-0.311-0.311-0.311-0 0-0 0-0.001 0h0z"></path>
<path fill="#a0cb39" style="fill: var(--color1, #a0cb39)" opacity="0.2" d="M3.614 0c-0.172 0-0.311 0.139-0.311 0.311s0.139 0.311 0.311 0.311c0.172 0 0.311-0.139 0.311-0.311v0c-0-0.172-0.139-0.311-0.311-0.311h-0z"></path>
<path fill="#a0cb39" style="fill: var(--color1, #a0cb39)" opacity="0.2" d="M1.963 0c-0.171 0-0.31 0.139-0.31 0.311s0.139 0.311 0.311 0.311 0.311-0.139 0.311-0.311v0c0 0 0 0 0 0 0-0.172-0.139-0.311-0.311-0.311-0 0-0 0-0.001 0h0z"></path>
<path fill="#a0cb39" style="fill: var(--color1, #a0cb39)" opacity="0.2" d="M0.311 0c-0.171 0-0.31 0.139-0.31 0.311s0.139 0.311 0.311 0.311 0.311-0.139 0.311-0.311v0c0 0 0 0 0 0 0-0.172-0.139-0.311-0.311-0.311-0 0-0 0-0.001 0h0z"></path>
</symbol>
<symbol id="icon-orna-1" viewBox="0 0 32 32">
<path fill="#a0cb39" style="fill: var(--color1, #a0cb39)" d="M0.159 32c-0 0-0 0-0 0-0.088 0-0.159-0.071-0.159-0.159 0-0.044 0.018-0.084 0.047-0.113v0l31.682-31.681c0.029-0.029 0.069-0.047 0.113-0.047 0.088 0 0.159 0.071 0.159 0.159 0 0.044-0.018 0.084-0.047 0.113l-31.681 31.681c-0.029 0.029-0.069 0.047-0.112 0.047v0z"></path>
<path fill="#a0cb39" style="fill: var(--color1, #a0cb39)" d="M19.455 18.589c-0.088-0-0.159-0.071-0.159-0.159 0-0.044 0.018-0.084 0.047-0.113v0l7.856-7.855c0.029-0.028 0.068-0.046 0.112-0.046 0.088 0 0.159 0.071 0.159 0.159 0 0.044-0.017 0.083-0.046 0.112l-7.856 7.855c-0.029 0.029-0.069 0.047-0.113 0.047-0 0-0 0-0 0v0z"></path>
</symbol>
<symbol id="icon-orna-3" viewBox="0 0 32 32">
<path fill="#a0cb39" style="fill: var(--color1, #a0cb39)" d="M26.129 0v11.685l-0.673 0.673v-11.685z"></path>
<path fill="#a0cb39" style="fill: var(--color1, #a0cb39)" d="M24.499 1.631v11.685l-0.673 0.673v-11.685z"></path>
<path fill="#a0cb39" style="fill: var(--color1, #a0cb39)" d="M22.864 3.265v11.685l-0.673 0.673v-11.685z"></path>
<path fill="#a0cb39" style="fill: var(--color1, #a0cb39)" d="M21.23 4.899v11.685l-0.673 0.673v-11.685z"></path>
<path fill="#a0cb39" style="fill: var(--color1, #a0cb39)" d="M19.599 6.53v11.685l-0.673 0.673v-11.685z"></path>
<path fill="#a0cb39" style="fill: var(--color1, #a0cb39)" d="M17.965 8.164v11.685l-0.673 0.673v-11.685z"></path>
<path fill="#a0cb39" style="fill: var(--color1, #a0cb39)" d="M16.331 9.799v11.685l-0.673 0.673v-11.685z"></path>
<path fill="#a0cb39" style="fill: var(--color1, #a0cb39)" d="M14.697 11.433v11.685l-0.673 0.673v-11.685z"></path>
<path fill="#a0cb39" style="fill: var(--color1, #a0cb39)" d="M13.066 13.064v11.685l-0.673 0.673v-11.685z"></path>
<path fill="#a0cb39" style="fill: var(--color1, #a0cb39)" d="M11.432 14.698v11.685l-0.673 0.673v-11.685z"></path>
<path fill="#a0cb39" style="fill: var(--color1, #a0cb39)" d="M9.797 16.332v11.685l-0.673 0.673v-11.685z"></path>
<path fill="#a0cb39" style="fill: var(--color1, #a0cb39)" d="M8.167 17.963v11.685l-0.673 0.673v-11.685z"></path>
<path fill="#a0cb39" style="fill: var(--color1, #a0cb39)" d="M6.532 19.597v11.685l-0.673 0.673v-11.685z"></path>
</symbol>
<symbol id="icon-orna-4" viewBox="0 0 32 32">
<path fill="#a0cb39" style="fill: var(--color1, #a0cb39)" d="M5.86 0v11.685l0.673 0.673v-11.685z"></path>
<path fill="#a0cb39" style="fill: var(--color1, #a0cb39)" d="M7.491 1.631v11.685l0.673 0.673v-11.685z"></path>
<path fill="#a0cb39" style="fill: var(--color1, #a0cb39)" d="M9.125 3.265v11.685l0.673 0.673v-11.685z"></path>
<path fill="#a0cb39" style="fill: var(--color1, #a0cb39)" d="M10.759 4.899v11.685l0.673 0.673v-11.685z"></path>
<path fill="#a0cb39" style="fill: var(--color1, #a0cb39)" d="M12.39 6.53v11.685l0.673 0.673v-11.685z"></path>
<path fill="#a0cb39" style="fill: var(--color1, #a0cb39)" d="M14.024 8.164v11.685l0.673 0.673v-11.685z"></path>
<path fill="#a0cb39" style="fill: var(--color1, #a0cb39)" d="M15.658 9.799v11.685l0.673 0.673v-11.685z"></path>
<path fill="#a0cb39" style="fill: var(--color1, #a0cb39)" d="M17.293 11.433v11.685l0.673 0.673v-11.685z"></path>
<path fill="#a0cb39" style="fill: var(--color1, #a0cb39)" d="M18.923 13.064v11.685l0.673 0.673v-11.685z"></path>
<path fill="#a0cb39" style="fill: var(--color1, #a0cb39)" d="M20.558 14.698v11.685l0.673 0.673v-11.685z"></path>
<path fill="#a0cb39" style="fill: var(--color1, #a0cb39)" d="M22.192 16.332v11.685l0.673 0.673v-11.685z"></path>
<path fill="#a0cb39" style="fill: var(--color1, #a0cb39)" d="M23.823 17.963v11.685l0.673 0.673v-11.685z"></path>
<path fill="#a0cb39" style="fill: var(--color1, #a0cb39)" d="M25.457 19.597v11.685l0.673 0.673v-11.685z"></path>
</symbol>
<symbol id="icon-orna-5" viewBox="0 0 32 32">
<path fill="#a0cb39" style="fill: var(--color1, #a0cb39)" d="M10.481 32.044v-10.306l0.593-0.593v10.306z"></path>
<path fill="#a0cb39" style="fill: var(--color1, #a0cb39)" d="M11.92 30.606v-10.306l0.593-0.593v10.307z"></path>
<path fill="#a0cb39" style="fill: var(--color1, #a0cb39)" d="M13.361 29.165v-10.306l0.593-0.593v10.307z"></path>
<path fill="#a0cb39" style="fill: var(--color1, #a0cb39)" d="M14.803 27.723v-10.306l0.593-0.593v10.306z"></path>
<path fill="#a0cb39" style="fill: var(--color1, #a0cb39)" d="M16.241 26.284v-10.306l0.593-0.593v10.306z"></path>
<path fill="#a0cb39" style="fill: var(--color1, #a0cb39)" d="M17.682 24.843v-10.306l0.593-0.593v10.306z"></path>
<path fill="#a0cb39" style="fill: var(--color1, #a0cb39)" d="M19.124 23.402v-10.306l0.593-0.593v10.306z"></path>
<path fill="#a0cb39" style="fill: var(--color1, #a0cb39)" d="M20.565 21.96v-10.306l0.593-0.593v10.306z"></path>
<path fill="#a0cb39" style="fill: var(--color1, #a0cb39)" d="M22.004 20.522v-10.306l0.593-0.593v10.307z"></path>
<path fill="#a0cb39" style="fill: var(--color1, #a0cb39)" d="M23.445 19.081v-10.306l0.593-0.593v10.307z"></path>
<path fill="#a0cb39" style="fill: var(--color1, #a0cb39)" d="M24.887 17.639v-10.306l0.593-0.593v10.306z"></path>
<path fill="#a0cb39" style="fill: var(--color1, #a0cb39)" d="M26.325 16.201v-10.306l0.593-0.593v10.306z"></path>
<path fill="#a0cb39" style="fill: var(--color1, #a0cb39)" d="M27.766 14.759v-10.306l0.593-0.593v10.306z"></path>
<path fill="#a0cb39" style="fill: var(--color1, #a0cb39)" d="M26.895 0c0.064 0 0.116 0.052 0.116 0.116 0 0.032-0.013 0.061-0.034 0.082v0l-23.138 23.138c-0.021 0.021-0.050 0.034-0.082 0.034-0.064 0-0.116-0.052-0.116-0.116 0-0.032 0.013-0.061 0.034-0.082v0l23.138-23.138c0.021-0.021 0.050-0.034 0.082-0.034h0z"></path>
<path fill="#a0cb39" style="fill: var(--color1, #a0cb39)" d="M17.631 2.641c0.098 0 0.177 0.080 0.177 0.178 0 0.049-0.020 0.093-0.052 0.126v0l-8.76 8.76c-0.032 0.032-0.076 0.051-0.125 0.051-0.098 0-0.178-0.079-0.178-0.178 0-0.049 0.020-0.093 0.051-0.125l8.76-8.76c0.032-0.032 0.077-0.052 0.126-0.052 0 0 0 0 0 0v0z"></path>
</symbol>
<symbol id="icon-orna-6" viewBox="0 0 32 32">
<path fill="#a0cb39" style="fill: var(--color1, #a0cb39)" d="M19.516 0l-7.184 7.184v0.827l7.184-7.184z"></path>
<path fill="#a0cb39" style="fill: var(--color1, #a0cb39)" d="M19.516 2.006l-7.184 7.184v0.827l7.184-7.184z"></path>
<path fill="#a0cb39" style="fill: var(--color1, #a0cb39)" d="M19.516 4.015l-7.184 7.184v0.827l7.184-7.184z"></path>
<path fill="#a0cb39" style="fill: var(--color1, #a0cb39)" d="M19.516 6.024l-7.184 7.184v0.827l7.184-7.184z"></path>
<path fill="#a0cb39" style="fill: var(--color1, #a0cb39)" d="M19.516 8.031l-7.184 7.184v0.827l7.184-7.184z"></path>
<path fill="#a0cb39" style="fill: var(--color1, #a0cb39)" d="M19.516 10.040l-7.184 7.184v0.827l7.184-7.184z"></path>
<path fill="#a0cb39" style="fill: var(--color1, #a0cb39)" d="M19.516 12.049l-7.184 7.184v0.827l7.184-7.184z"></path>
<path fill="#a0cb39" style="fill: var(--color1, #a0cb39)" d="M19.516 14.059l-7.184 7.184v0.827l7.184-7.184z"></path>
<path fill="#a0cb39" style="fill: var(--color1, #a0cb39)" d="M19.516 16.064l-7.185 7.185v0.827l7.185-7.185z"></path>
<path fill="#a0cb39" style="fill: var(--color1, #a0cb39)" d="M19.516 18.074l-7.184 7.184v0.827l7.184-7.184z"></path>
<path fill="#a0cb39" style="fill: var(--color1, #a0cb39)" d="M19.516 20.083l-7.184 7.184v0.827l7.185-7.185z"></path>
<path fill="#a0cb39" style="fill: var(--color1, #a0cb39)" d="M19.516 22.088l-7.184 7.184v0.827l7.184-7.184z"></path>
<path fill="#a0cb39" style="fill: var(--color1, #a0cb39)" d="M19.516 24.098l-7.184 7.184v0.827l7.184-7.184z"></path>
</symbol>
<symbol id="icon-orna-7" viewBox="0 0 32 32">
<path fill="#a0cb39" style="fill: var(--color1, #a0cb39)" d="M10.481 32.044v-10.306l0.593-0.593v10.306z"></path>
<path fill="#a0cb39" style="fill: var(--color1, #a0cb39)" d="M11.92 30.606v-10.306l0.593-0.593v10.307z"></path>
<path fill="#a0cb39" style="fill: var(--color1, #a0cb39)" d="M13.361 29.165v-10.306l0.593-0.593v10.307z"></path>
<path fill="#a0cb39" style="fill: var(--color1, #a0cb39)" d="M14.803 27.723v-10.306l0.593-0.593v10.306z"></path>
<path fill="#a0cb39" style="fill: var(--color1, #a0cb39)" d="M16.241 26.284v-10.306l0.593-0.593v10.306z"></path>
<path fill="#a0cb39" style="fill: var(--color1, #a0cb39)" d="M17.682 24.843v-10.306l0.593-0.593v10.306z"></path>
<path fill="#a0cb39" style="fill: var(--color1, #a0cb39)" d="M19.124 23.402v-10.306l0.593-0.593v10.306z"></path>
<path fill="#a0cb39" style="fill: var(--color1, #a0cb39)" d="M20.565 21.96v-10.306l0.593-0.593v10.306z"></path>
<path fill="#a0cb39" style="fill: var(--color1, #a0cb39)" d="M22.004 20.522v-10.306l0.593-0.593v10.307z"></path>
<path fill="#a0cb39" style="fill: var(--color1, #a0cb39)" d="M23.445 19.081v-10.306l0.593-0.593v10.307z"></path>
<path fill="#a0cb39" style="fill: var(--color1, #a0cb39)" d="M24.887 17.639v-10.306l0.593-0.593v10.306z"></path>
<path fill="#a0cb39" style="fill: var(--color1, #a0cb39)" d="M26.325 16.201v-10.306l0.593-0.593v10.306z"></path>
<path fill="#a0cb39" style="fill: var(--color1, #a0cb39)" d="M27.766 14.759v-10.306l0.593-0.593v10.306z"></path>
<path fill="#a0cb39" style="fill: var(--color1, #a0cb39)" d="M26.895 0c0.064 0 0.116 0.052 0.116 0.116 0 0.032-0.013 0.061-0.034 0.082v0l-23.138 23.138c-0.021 0.021-0.050 0.034-0.082 0.034-0.064 0-0.116-0.052-0.116-0.116 0-0.032 0.013-0.061 0.034-0.082v0l23.138-23.138c0.021-0.021 0.050-0.034 0.082-0.034h0z"></path>
<path fill="#a0cb39" style="fill: var(--color1, #a0cb39)" d="M17.631 2.641c0.098 0 0.177 0.080 0.177 0.178 0 0.049-0.020 0.093-0.052 0.126v0l-8.76 8.76c-0.032 0.032-0.076 0.051-0.125 0.051-0.098 0-0.178-0.079-0.178-0.178 0-0.049 0.020-0.093 0.051-0.125l8.76-8.76c0.032-0.032 0.077-0.052 0.126-0.052 0 0 0 0 0 0v0z"></path>
</symbol>
</defs>
</svg>
