<svg width="141" height="21" viewBox="0 0 141 21" fill="none" xmlns="http://www.w3.org/2000/svg">
<path d="M129.898 17.0173L135.054 20.1357C135.998 20.7072 137.154 19.8623 136.905 18.7939L135.539 12.9299L140.098 8.97921C140.931 8.25864 140.483 6.89203 139.39 6.80507L133.39 6.2957L131.041 0.754738C130.619 -0.251579 129.178 -0.251579 128.755 0.754738L126.407 6.28327L120.407 6.79264C119.313 6.87961 118.866 8.24621 119.699 8.96679L124.258 12.9175L122.892 18.7815C122.643 19.8499 123.798 20.6947 124.743 20.1232L129.898 17.0173V17.0173Z" fill="#FBC200"/>
<path d="M40.4473 17.0173L45.6031 20.1357C46.5473 20.7072 47.7027 19.8623 47.4542 18.7939L46.0876 12.9299L50.6471 8.97921C51.4795 8.25864 51.0323 6.89203 49.939 6.80507L43.9383 6.2957L41.5903 0.754738C41.1679 -0.251579 39.7267 -0.251579 39.3043 0.754738L36.9562 6.28327L30.9556 6.79264C29.8623 6.87961 29.4151 8.24621 30.2475 8.96679L34.8069 12.9175L33.4403 18.7815C33.1919 19.8499 34.3473 20.6947 35.2915 20.1232L40.4473 17.0173V17.0173Z" fill="#FBC200"/>
<path d="M70.2637 17.0173L75.4195 20.1357C76.3637 20.7072 77.5191 19.8623 77.2707 18.7939L75.9041 12.9299L80.4635 8.97921C81.2959 8.25864 80.8487 6.89203 79.7554 6.80507L73.7548 6.2957L71.4067 0.754738C70.9843 -0.251579 69.5431 -0.251579 69.1207 0.754738L66.7726 6.28327L60.772 6.79264C59.6787 6.87961 59.2315 8.24621 60.0639 8.96679L64.6234 12.9175L63.2567 18.7815C63.0083 19.8499 64.1637 20.6947 65.1079 20.1232L70.2637 17.0173V17.0173Z" fill="#FBC200"/>
<path d="M100.082 17.0173L105.238 20.1357C106.182 20.7072 107.337 19.8623 107.089 18.7939L105.722 12.9299L110.282 8.97921C111.114 8.25864 110.667 6.89203 109.574 6.80507L103.573 6.2957L101.225 0.754738C100.803 -0.251579 99.3615 -0.251579 98.9391 0.754738L96.591 6.28327L90.5904 6.79264C89.4971 6.87961 89.0498 8.24621 89.8822 8.96679L94.4417 12.9175L93.0751 18.7815C92.8266 19.8499 93.982 20.6947 94.9262 20.1232L100.082 17.0173V17.0173Z" fill="#FBC200"/>
<path d="M10.6309 17.0173L15.7867 20.1357C16.7309 20.7072 17.8863 19.8623 17.6378 18.7939L16.2712 12.9299L20.8307 8.97921C21.6631 8.25864 21.2159 6.89203 20.1226 6.80507L14.1219 6.2957L11.7739 0.754738C11.3515 -0.251579 9.91031 -0.251579 9.48791 0.754738L7.13983 6.28327L1.1392 6.79264C0.0459147 6.87961 -0.401338 8.24621 0.431049 8.96679L4.99054 12.9175L3.62393 18.7815C3.37546 19.8499 4.53086 20.6947 5.47506 20.1232L10.6309 17.0173V17.0173Z" fill="#FBC200"/>
</svg>
