<svg xmlns="http://www.w3.org/2000/svg" width="87.597" height="87.101" viewBox="0 0 87.597 87.101">
  <g id="blocks" transform="translate(0 0)">
    <path id="Caminho_407" data-name="Caminho 407" d="M84.942,18.36A2.658,2.658,0,0,0,87.6,15.706V8.743a2.658,2.658,0,0,0-2.655-2.655H80.569V2.654A2.657,2.657,0,0,0,77.914,0H62.383a2.658,2.658,0,0,0-2.655,2.655v22.34a1.284,1.284,0,1,0,2.569,0V2.654a.086.086,0,0,1,.086-.086H77.914A.086.086,0,0,1,78,2.654V51.933H70.512V32.687a2.658,2.658,0,0,0-2.655-2.655H2.655A2.658,2.658,0,0,0,0,32.687V62.545A2.658,2.658,0,0,0,2.655,65.2h40.83V84.446A2.658,2.658,0,0,0,46.14,87.1H80.67a2.658,2.658,0,0,0,2.655-2.655V54.588a2.657,2.657,0,0,0-2.655-2.655h-.1V49h4.373A2.658,2.658,0,0,0,87.6,46.341V39.379a2.657,2.657,0,0,0-2.655-2.655H80.569V33.678h4.373A2.658,2.658,0,0,0,87.6,31.023V24.061a2.658,2.658,0,0,0-2.655-2.655H80.569V18.36ZM2.655,62.631a.086.086,0,0,1-.086-.086V32.687a.086.086,0,0,1,.086-.086h65.2a.086.086,0,0,1,.086.086V51.933H63.588a6.138,6.138,0,0,0-10.87,0H48.3A6.136,6.136,0,1,0,42.86,60.92a6.066,6.066,0,0,0,.625-.031v1.743Zm57.64-10.7H56.011a3.56,3.56,0,0,1,4.284,0Zm-16.81,6.36a3.657,3.657,0,0,1-.624.057A3.567,3.567,0,1,1,45.212,52.1a2.658,2.658,0,0,0-1.728,2.485Zm37.271-3.705V84.446a.086.086,0,0,1-.086.086H46.139a.085.085,0,0,1-.086-.086V54.588a.085.085,0,0,1,.086-.086H80.67a.086.086,0,0,1,.086.086Zm4.186-45.93a.086.086,0,0,1,.086.086V15.7a.086.086,0,0,1-.086.086H80.569V8.658Zm0,30.635a.086.086,0,0,1,.086.086v6.962a.086.086,0,0,1-.086.086H80.569V39.293Zm0-15.318a.086.086,0,0,1,.086.086v6.962a.086.086,0,0,1-.086.086H80.569V23.975Zm0,0" fill="#a0cb39"/>
    <path id="Caminho_408" data-name="Caminho 408" d="M75.487,27.868h34.506a2.658,2.658,0,0,0,2.655-2.655V9.683a2.657,2.657,0,0,0-2.655-2.655h-3.482V2.655A2.657,2.657,0,0,0,103.856,0H96.894a2.658,2.658,0,0,0-2.655,2.655,1.284,1.284,0,0,0,2.569,0,.086.086,0,0,1,.086-.086h6.962a.086.086,0,0,1,.086.086V7.028H91.193V2.655A2.658,2.658,0,0,0,88.539,0H81.576a2.658,2.658,0,0,0-2.655,2.655V7.028H75.487a2.657,2.657,0,0,0-2.655,2.655V25.214a2.658,2.658,0,0,0,2.655,2.655Zm6-25.213a.086.086,0,0,1,.086-.086h6.962a.086.086,0,0,1,.086.086V7.028H81.491ZM75.4,9.683a.086.086,0,0,1,.086-.086h34.506a.086.086,0,0,1,.086.086V25.214a.086.086,0,0,1-.086.086H75.487a.086.086,0,0,1-.086-.086Zm0,0" transform="translate(-60.372 -0.001)" fill="#a0cb39"/>
    <path id="Caminho_409" data-name="Caminho 409" d="M41.726,200.559a6.136,6.136,0,1,0,6.135,6.136A6.143,6.143,0,0,0,41.726,200.559Zm0,9.7a3.567,3.567,0,1,1,3.567-3.567A3.572,3.572,0,0,1,41.726,210.262Zm0,0" transform="translate(-29.501 -166.246)" fill="#a0cb39"/>
    <path id="Caminho_410" data-name="Caminho 410" d="M41.726,284.348a6.136,6.136,0,1,0,6.135,6.136A6.143,6.143,0,0,0,41.726,284.348Zm0,9.7a3.567,3.567,0,1,1,3.567-3.567A3.571,3.571,0,0,1,41.726,294.051Zm0,0" transform="translate(-29.501 -235.7)" fill="#a0cb39"/>
    <path id="Caminho_411" data-name="Caminho 411" d="M135.9,200.559a6.093,6.093,0,0,0-4.885,2.422,1.284,1.284,0,1,0,2.044,1.556,3.567,3.567,0,1,1,0,4.32,1.284,1.284,0,0,0-2.042,1.559,6.136,6.136,0,1,0,4.879-9.858Zm0,0" transform="translate(-108.38 -166.246)" fill="#a0cb39"/>
    <path id="Caminho_412" data-name="Caminho 412" d="M131.108,284.348a6.136,6.136,0,1,0,6.136,6.136A6.143,6.143,0,0,0,131.108,284.348Zm0,9.7a3.567,3.567,0,1,1,3.567-3.567A3.571,3.571,0,0,1,131.108,294.051Zm0,0" transform="translate(-103.591 -235.7)" fill="#a0cb39"/>
    <path id="Caminho_413" data-name="Caminho 413" d="M220.792,212.831a6.136,6.136,0,1,0-6.136-6.136A6.143,6.143,0,0,0,220.792,212.831Zm0-9.7a3.567,3.567,0,1,1-3.567,3.567A3.571,3.571,0,0,1,220.792,203.128Zm0,0" transform="translate(-177.932 -166.246)" fill="#a0cb39"/>
    <path id="Caminho_414" data-name="Caminho 414" d="M310.174,212.831a6.136,6.136,0,1,0-6.136-6.136A6.143,6.143,0,0,0,310.174,212.831Zm0-9.7a3.567,3.567,0,1,1-3.567,3.567A3.572,3.572,0,0,1,310.174,203.128Zm0,0" transform="translate(-252.021 -166.246)" fill="#a0cb39"/>
    <path id="Caminho_415" data-name="Caminho 415" d="M296.178,328.57a6.136,6.136,0,1,0,6.136,6.136A6.143,6.143,0,0,0,296.178,328.57Zm0,9.7a3.567,3.567,0,1,1,3.567-3.567A3.571,3.571,0,0,1,296.178,338.273Zm0,0" transform="translate(-240.42 -272.356)" fill="#a0cb39"/>
    <path id="Caminho_416" data-name="Caminho 416" d="M296.178,412.355a6.136,6.136,0,1,0,6.136,6.136A6.143,6.143,0,0,0,296.178,412.355Zm0,9.7a3.567,3.567,0,1,1,3.567-3.567A3.571,3.571,0,0,1,296.178,422.057Zm0,0" transform="translate(-240.42 -341.807)" fill="#a0cb39"/>
    <path id="Caminho_417" data-name="Caminho 417" d="M379.426,334.706a6.136,6.136,0,1,0,6.136-6.136A6.143,6.143,0,0,0,379.426,334.706Zm6.136-3.567a3.567,3.567,0,1,1-3.567,3.567A3.571,3.571,0,0,1,385.562,331.14Zm0,0" transform="translate(-314.511 -272.357)" fill="#a0cb39"/>
    <path id="Caminho_418" data-name="Caminho 418" d="M385.561,412.355a6.136,6.136,0,1,0,6.136,6.136A6.143,6.143,0,0,0,385.561,412.355Zm0,9.7a3.567,3.567,0,1,1,3.567-3.567A3.571,3.571,0,0,1,385.561,422.057Zm0,0" transform="translate(-314.511 -341.807)" fill="#a0cb39"/>
  </g>
</svg>
