<svg xmlns="http://www.w3.org/2000/svg" width="77.778" height="51.084" viewBox="0 0 77.778 51.084">
  <g id="console_1_" data-name="console (1)" transform="translate(0 -55.109)">
    <g id="Grupo_509" data-name="Grupo 509" transform="translate(0 55.109)">
      <g id="Grupo_508" data-name="Grupo 508" transform="translate(0 0)">
        <path id="Caminho_419" data-name="Caminho 419" d="M77.736,90.438a72.6,72.6,0,0,0-2.131-14.047,53.913,53.913,0,0,0-4.359-11.819C64.464,52.656,57.1,54.5,48.286,56.822a63.1,63.1,0,0,1-8.913,1.744H38.4a63.1,63.1,0,0,1-8.913-1.744c-8.816-2.228-16.178-4.166-22.959,7.847A49.386,49.386,0,0,0,2.173,76.488,72.6,72.6,0,0,0,.042,90.535C-.152,95.475.333,99.06,1.4,101.579a7.342,7.342,0,0,0,4.65,4.359,9.472,9.472,0,0,0,6.2-.678c3.778-1.55,8.138-4.844,12.4-8.816,3-2.906,8.622-4.359,14.241-4.359s11.238,1.453,14.241,4.359c4.263,3.972,8.622,7.266,12.4,8.816a10.134,10.134,0,0,0,6.2.678,7.239,7.239,0,0,0,4.65-4.456C77.446,99.06,77.93,95.475,77.736,90.438Zm-4.65,9.688a3.842,3.842,0,0,1-2.325,2.422,6.69,6.69,0,0,1-3.972-.484c-3.391-1.356-7.363-4.359-11.238-8.041C51.871,90.341,45.38,88.5,38.889,88.5S25.908,90.341,22.13,93.829c-3.972,3.681-7.944,6.781-11.238,8.041a6.009,6.009,0,0,1-3.972.484A3.842,3.842,0,0,1,4.6,99.932c-.775-1.841-1.163-4.844-.969-9.3A66.823,66.823,0,0,1,5.661,77.263,46.225,46.225,0,0,1,9.73,66.316c5.328-9.591,11.528-8.041,18.891-6.1a56.828,56.828,0,0,0,9.494,1.841h1.453a56.125,56.125,0,0,0,9.591-1.841c7.363-1.841,13.563-3.488,18.891,6.1a44.67,44.67,0,0,1,4.069,10.947,73.324,73.324,0,0,1,2.034,13.369C74.346,95.088,73.958,98.091,73.086,100.125Z" transform="translate(0 -55.109)" fill="#a0cb39"/>
      </g>
    </g>
    <g id="Grupo_511" data-name="Grupo 511" transform="translate(10.02 64.766)">
      <g id="Grupo_510" data-name="Grupo 510">
        <path id="Caminho_420" data-name="Caminho 420" d="M61.329,101.762a5.886,5.886,0,0,0-3.488-1.647,5.512,5.512,0,0,0-1.55-3.391l-.1-.1a5.487,5.487,0,0,0-3.972-1.647,5.72,5.72,0,0,0-3.972,1.647,5.631,5.631,0,0,0-1.647,3.488,5.771,5.771,0,0,0-3.488,1.55l-.1.1a5.487,5.487,0,0,0-1.647,3.972,5.72,5.72,0,0,0,1.647,3.972,5.4,5.4,0,0,0,3.584,1.647,5.168,5.168,0,0,0,1.647,3.488,5.487,5.487,0,0,0,3.972,1.647,5.72,5.72,0,0,0,3.972-1.647,5.886,5.886,0,0,0,1.647-3.488,5.168,5.168,0,0,0,3.488-1.647,5.487,5.487,0,0,0,1.647-3.972A5.72,5.72,0,0,0,61.329,101.762Zm-2.422,5.425a1.972,1.972,0,0,1-1.453.581H56.1a1.839,1.839,0,0,0-1.841,1.841v1.259a2.035,2.035,0,1,1-4.069,0v-1.356a1.839,1.839,0,0,0-1.841-1.841H46.992a1.987,1.987,0,0,1-1.453-3.391l.1-.1a2.315,2.315,0,0,1,1.356-.484h1.356a1.839,1.839,0,0,0,1.841-1.841V100.5a2.055,2.055,0,0,1,3.488-1.453l.1.1a2.315,2.315,0,0,1,.484,1.356v1.356A1.839,1.839,0,0,0,56.1,103.7h1.356a2.055,2.055,0,0,1,1.453,3.488Z" transform="translate(-41.373 -94.981)" fill="#a0cb39"/>
      </g>
    </g>
    <g id="Grupo_513" data-name="Grupo 513" transform="translate(52.355 65.25)">
      <g id="Grupo_512" data-name="Grupo 512" transform="translate(0 0)">
        <circle id="Elipse_26" data-name="Elipse 26" cx="3.391" cy="3.391" r="3.391" fill="#a0cb39"/>
      </g>
    </g>
    <g id="Grupo_515" data-name="Grupo 515" transform="translate(52.355 79.007)">
      <g id="Grupo_514" data-name="Grupo 514">
        <circle id="Elipse_27" data-name="Elipse 27" cx="3.391" cy="3.391" r="3.391" fill="#a0cb39"/>
      </g>
    </g>
    <g id="Grupo_517" data-name="Grupo 517" transform="translate(45.477 72.128)">
      <g id="Grupo_516" data-name="Grupo 516" transform="translate(0 0)">
        <circle id="Elipse_28" data-name="Elipse 28" cx="3.391" cy="3.391" r="3.391" fill="#a0cb39"/>
      </g>
    </g>
    <g id="Grupo_519" data-name="Grupo 519" transform="translate(59.233 72.128)">
      <g id="Grupo_518" data-name="Grupo 518" transform="translate(0 0)">
        <circle id="Elipse_29" data-name="Elipse 29" cx="3.391" cy="3.391" r="3.391" fill="#a0cb39"/>
      </g>
    </g>
  </g>
</svg>
