<svg xmlns="http://www.w3.org/2000/svg" width="83.841" height="78.255" viewBox="0 0 83.841 78.255">
  <g id="volume" transform="translate(0 -15.99)">
    <g id="Grupo_500" data-name="Grupo 500" transform="translate(0 15.99)">
      <g id="Grupo_499" data-name="Grupo 499" transform="translate(0 0)">
        <path id="Caminho_404" data-name="Caminho 404" d="M48.723,16.267a2.786,2.786,0,0,0-2.957.335L18.579,38.351H5.589A5.6,5.6,0,0,0,0,43.941V66.3a5.6,5.6,0,0,0,5.589,5.589h12.99L45.761,93.636A2.8,2.8,0,0,0,50.3,91.451V18.788A2.8,2.8,0,0,0,48.723,16.267ZM16.768,66.3H5.589V43.941H16.768ZM44.715,85.632,22.358,67.746V42.493L44.715,24.607Z" transform="translate(0 -15.99)" fill="#a0cb39"/>
      </g>
    </g>
    <g id="Grupo_502" data-name="Grupo 502" transform="translate(59.695 34.547)">
      <g id="Grupo_501" data-name="Grupo 501">
        <path id="Caminho_405" data-name="Caminho 405" d="M346.522,123.037a2.794,2.794,0,0,0-3.929,3.974,22.319,22.319,0,0,1,0,31.58,2.792,2.792,0,1,0,3.929,3.968,27.9,27.9,0,0,0,0-39.523Z" transform="translate(-341.76 -122.229)" fill="#a0cb39"/>
      </g>
    </g>
    <g id="Grupo_504" data-name="Grupo 504" transform="translate(67.577 26.671)">
      <g id="Grupo_503" data-name="Grupo 503" transform="translate(0 0)">
        <path id="Caminho_406" data-name="Caminho 406" d="M391.649,77.946a2.794,2.794,0,1,0-3.935,3.968,33.371,33.371,0,0,1,0,47.342,2.794,2.794,0,1,0,3.935,3.968,38.958,38.958,0,0,0,0-55.279Z" transform="translate(-386.888 -77.137)" fill="#a0cb39"/>
      </g>
    </g>
  </g>
</svg>
