<svg id="Grupo_690" data-name="Grupo 690" xmlns="http://www.w3.org/2000/svg" width="34.563" height="34.563" viewBox="0 0 34.563 34.563">
  <g id="Grupo_689" data-name="Grupo 689" transform="translate(0 0)">
    <ellipse id="Elipse_83" data-name="Elipse 83" cx="17.281" cy="17.281" rx="17.281" ry="17.281" fill="#43525a"/>
  </g>
  <path id="Caminho_618" data-name="Caminho 618" d="M425.937,191.669h-17.2a1.483,1.483,0,0,0-1.483,1.483v10.281a1.483,1.483,0,0,0,1.483,1.483h17.2a1.483,1.483,0,0,0,1.483-1.483V193.152A1.483,1.483,0,0,0,425.937,191.669Zm.288,1.714-8.7,4.834a.341.341,0,0,1-.166.043h-.044a.341.341,0,0,1-.166-.043l-8.7-4.834a.342.342,0,1,1,.332-.6l8.556,4.754,8.556-4.754a.342.342,0,1,1,.332.6Z" transform="translate(-400.055 -181.011)" fill="#fff"/>
</svg>
