<svg xmlns="http://www.w3.org/2000/svg" width="42" height="42" viewBox="0 0 42 42">
  <g id="Grupo_679" data-name="Grupo 679" transform="translate(-1684 -3024)">
    <circle id="Elipse_71" data-name="Elipse 71" cx="21" cy="21" r="21" transform="translate(1684 3024)" fill="#61c0ff"/>
    <path id="Caminho_133" data-name="Caminho 133" d="M29.852,0,27.914,0A3.4,3.4,0,0,0,24.33,3.677v1.7H22.382a.3.3,0,0,0-.3.3V8.135a.3.3,0,0,0,.3.3H24.33v6.2a.3.3,0,0,0,.3.3h2.542a.3.3,0,0,0,.3-.3v-6.2h2.278a.3.3,0,0,0,.3-.3V5.678a.3.3,0,0,0-.3-.3H27.481V3.936c0-.691.165-1.042,1.065-1.042h1.305a.3.3,0,0,0,.3-.3V.308A.3.3,0,0,0,29.852,0Z" transform="translate(1678.868 3037.59)" fill="#fff"/>
  </g>
</svg>
