<svg xmlns="http://www.w3.org/2000/svg" width="42" height="42" viewBox="0 0 42 42">
  <g id="Grupo_680" data-name="Grupo 680" transform="translate(-1746 -3024)">
    <circle id="Elipse_72" data-name="Elipse 72" cx="21" cy="21" r="21" transform="translate(1746 3024)" fill="#ff5e64"/>
    <path id="Caminho_134" data-name="Caminho 134" d="M15.767,81.091c-.447-.795-.931-.941-1.918-1S10.383,80,8.235,80s-4.632.028-5.617.094-1.471.2-1.921,1S0,83.251,0,85.657v.008c0,2.4.237,3.773.7,4.558s.935.939,1.92,1.005,3.466.092,5.618.092,4.627-.034,5.614-.091,1.472-.211,1.918-1.005c.464-.785.7-2.162.7-4.558v-.008C16.466,83.251,16.232,81.884,15.767,81.091ZM6.175,88.748V82.573l5.146,3.087Z" transform="translate(1758.767 2959.34)" fill="#fff"/>
  </g>
</svg>
