<svg xmlns="http://www.w3.org/2000/svg" width="42" height="42" viewBox="0 0 42 42">
  <g id="Grupo_681" data-name="Grupo 681" transform="translate(-1808 -3024)">
    <circle id="Elipse_73" data-name="Elipse 73" cx="21" cy="21" r="21" transform="translate(1808 3024)" fill="#8159c8"/>
    <path id="Caminho_136" data-name="Caminho 136" d="M11.668,0H4.33A4.336,4.336,0,0,0,0,4.331v7.338A4.336,4.336,0,0,0,4.33,16h7.338A4.336,4.336,0,0,0,16,11.669V4.331A4.336,4.336,0,0,0,11.668,0Zm3.393,11.669a3.4,3.4,0,0,1-3.393,3.393H4.33A3.4,3.4,0,0,1,.937,11.669V4.331A3.4,3.4,0,0,1,4.33.938h7.338a3.4,3.4,0,0,1,3.393,3.393Zm0,0" transform="translate(1821.001 3037)" fill="#fff"/>
    <path id="Caminho_137" data-name="Caminho 137" d="M120.379,116a4.375,4.375,0,1,0,4.375,4.375A4.38,4.38,0,0,0,120.379,116Zm0,7.812a3.437,3.437,0,1,1,3.437-3.437A3.441,3.441,0,0,1,120.379,123.816Zm0,0" transform="translate(1708.621 2924.621)" fill="#fff"/>
    <path id="Caminho_138" data-name="Caminho 138" d="M359.27,66.285a1.293,1.293,0,1,0,1.293,1.293A1.294,1.294,0,0,0,359.27,66.285Zm0,1.647a.355.355,0,1,1,.355-.355A.355.355,0,0,1,359.27,67.933Zm0,0" transform="translate(1474.21 2972.786)" fill="#fff"/>
  </g>
</svg>
