<svg width="165" height="35" viewBox="0 0 165 35" fill="none" xmlns="http://www.w3.org/2000/svg">
<g clip-path="url(#clip0)">
<path d="M59.0158 12.2886C58.6316 11.3428 58.0071 10.6447 57.1414 10.1932C56.2757 9.74162 55.22 9.51532 53.9732 9.51532C53.3177 9.51532 52.7221 9.5847 52.1873 9.72347C51.6525 9.86224 51.1754 10.0544 50.7558 10.2999C50.3363 10.5454 49.9713 10.8347 49.6617 11.1688C49.3521 11.5029 49.0959 11.8627 48.8953 12.2501C48.6946 12.6376 48.5451 13.0465 48.448 13.4777C48.3509 13.909 48.3018 14.3402 48.3018 14.7715V15.1526C48.3018 15.8614 48.4331 16.5264 48.6957 17.1466C48.9582 17.7668 49.3351 18.308 49.8261 18.7681C50.3161 19.2292 50.9117 19.5921 51.6119 19.8579C52.3122 20.1237 53.0968 20.2572 53.9646 20.2572C54.6617 20.2572 55.2851 20.192 55.8348 20.0618C56.3846 19.9316 56.866 19.7458 57.2791 19.5035C57.6922 19.2612 58.0423 18.9655 58.3295 18.6175C58.6155 18.2685 58.845 17.8757 59.0158 17.4391V19.2996C59.0158 19.843 58.9283 20.3479 58.7543 20.8154C58.5803 21.2819 58.3038 21.6854 57.926 22.0249C57.5481 22.3643 57.0624 22.6323 56.4678 22.8265C55.8743 23.0219 55.1612 23.119 54.3276 23.119C54.0618 23.119 53.7469 23.1083 53.3839 23.0881C53.021 23.0678 52.6538 23.039 52.2855 23.0037C51.9162 22.9685 51.5628 22.9269 51.2266 22.8799C50.8903 22.8329 50.6117 22.7828 50.394 22.7294L50.2702 23.3058C50.5007 23.3475 50.7804 23.3912 51.1081 23.4393C51.4358 23.4862 51.7817 23.5289 52.1446 23.5673C52.5075 23.6058 52.8726 23.6367 53.2388 23.6602C53.6049 23.6837 53.939 23.6954 54.24 23.6954C55.2445 23.6954 56.091 23.577 56.7795 23.341C57.468 23.1051 58.0252 22.7838 58.4501 22.3793C58.8749 21.9747 59.1813 21.5061 59.367 20.9745C59.5538 20.4429 59.6467 19.8814 59.6467 19.29V9.73628H59.0169V12.2886H59.0158ZM59.0158 14.9295C59.0158 16.4591 58.5953 17.6333 57.753 18.4521C56.9108 19.2708 55.6544 19.6797 53.9817 19.6797C53.1309 19.6797 52.3912 19.5526 51.7614 19.2986C51.1316 19.0445 50.6075 18.7061 50.188 18.2834C49.7684 17.8607 49.4557 17.3761 49.2486 16.8295C49.0415 16.283 48.938 15.7173 48.938 15.1323V14.7694C48.938 14.4384 48.9743 14.0926 49.049 13.7328C49.1226 13.372 49.2401 13.0198 49.3991 12.6739C49.5582 12.3281 49.7684 11.9993 50.0278 11.6855C50.2883 11.3727 50.6053 11.0973 50.98 10.8614C51.3558 10.6255 51.7913 10.4376 52.2876 10.2988C52.784 10.1601 53.3476 10.0907 53.9806 10.0907C54.6478 10.0907 55.236 10.1547 55.7441 10.2818C56.2522 10.4088 56.692 10.5828 57.0645 10.8048C57.4371 11.0258 57.7488 11.2873 57.9996 11.5894C58.2505 11.8904 58.4512 12.2171 58.6017 12.5693C58.7522 12.9205 58.8589 13.2888 58.9208 13.672C58.9827 14.0563 59.0137 14.4406 59.0137 14.8238V14.9295H59.0158Z" fill="#090417"/>
<path d="M67.888 9.59966C67.2316 9.59966 66.6338 9.69039 66.0947 9.87079C65.5556 10.0512 65.0796 10.2935 64.6686 10.5967C64.2576 10.8998 63.9096 11.2531 63.6257 11.6556C63.3417 12.0591 63.1282 12.4861 62.9831 12.9355V9.81635H62.3906V19.559H62.9831V14.9711C62.9831 14.6487 63.0226 14.305 63.0994 13.941C63.1773 13.577 63.3001 13.2151 63.4666 12.8565C63.6331 12.4978 63.8466 12.1541 64.105 11.8264C64.3633 11.4987 64.6718 11.2094 65.0304 10.9585C65.3891 10.7087 65.799 10.5081 66.2602 10.3576C66.7213 10.207 67.239 10.1323 67.8123 10.1323C68.0236 10.1323 68.1976 10.1334 68.3332 10.1366L68.3246 9.60286C68.2008 9.60072 68.0546 9.59966 67.888 9.59966Z" fill="#090417"/>
<path d="M81.2337 14.4043C81.2337 14.7267 81.1846 15.0704 81.0874 15.4344C80.9903 15.7984 80.8451 16.1603 80.654 16.5189C80.4619 16.8776 80.2206 17.2192 79.9282 17.5448C79.6357 17.8703 79.2941 18.1575 78.9023 18.4083C78.5106 18.6581 78.0697 18.8588 77.5797 19.0093C77.0908 19.1598 76.5486 19.2346 75.9529 19.2346C75.1022 19.2346 74.3998 19.1203 73.8468 18.893C73.2939 18.6645 72.8573 18.3507 72.5371 17.9504C72.2168 17.5501 71.9948 17.0751 71.8699 16.5243C71.745 15.9735 71.682 15.3757 71.682 14.7309V9.81636H71.0811V14.7459C71.0811 15.1078 71.1003 15.4824 71.1398 15.8721C71.1782 16.2617 71.2561 16.6417 71.3735 17.0142C71.4899 17.3868 71.6585 17.7401 71.8784 18.0732C72.0983 18.4073 72.3876 18.6998 72.7463 18.9527C73.105 19.2057 73.5448 19.4064 74.0646 19.5537C74.5845 19.701 75.2057 19.7747 75.9295 19.7747C76.5795 19.7747 77.1944 19.6872 77.773 19.5121C78.3515 19.337 78.8714 19.0936 79.3325 18.7819C79.7937 18.4702 80.1886 18.0966 80.5163 17.66C80.844 17.2235 81.0831 16.7463 81.2337 16.2297V19.558H81.8261V9.81636H81.2337V14.4043Z" fill="#090417"/>
<path d="M94.0293 11.1379C93.5788 10.6735 93.0173 10.301 92.3437 10.0202C91.6713 9.73949 90.8867 9.59859 89.9911 9.59859C88.7838 9.59859 87.7857 9.81635 86.9968 10.2529C86.2069 10.6895 85.6369 11.3471 85.2868 12.2256V9.81635H84.6943V22.6034H85.2868V17.1562C85.4426 17.5458 85.6508 17.9013 85.9123 18.2237C86.1738 18.546 86.4962 18.8214 86.8794 19.0499C87.2637 19.2783 87.7131 19.4555 88.2308 19.5836C88.7485 19.7117 89.3399 19.7757 90.0071 19.7757C90.8461 19.7757 91.5987 19.6476 92.2637 19.3925C92.9276 19.1363 93.4913 18.7873 93.9524 18.3453C94.4136 17.9034 94.7669 17.3857 95.0113 16.7943C95.2558 16.2019 95.3785 15.57 95.3785 14.8964V14.6124C95.3785 13.9677 95.2664 13.3432 95.0412 12.7401C94.817 12.1359 94.4797 11.6022 94.0293 11.1379ZM94.7711 14.9711C94.7711 15.4995 94.674 16.0194 94.4797 16.5307C94.2855 17.042 93.9908 17.4988 93.5959 17.8991C93.2009 18.2994 92.7035 18.6218 92.1025 18.8663C91.5015 19.1107 90.7981 19.2335 89.9921 19.2335C88.4518 19.2335 87.2829 18.8588 86.4845 18.1073C85.6871 17.3569 85.2878 16.2585 85.2878 14.8131V14.6541C85.2878 14.3146 85.3145 13.9677 85.3668 13.6112C85.4202 13.2557 85.5109 12.9088 85.6422 12.5725C85.7725 12.2363 85.9507 11.9203 86.176 11.6257C86.4012 11.3311 86.6873 11.0738 87.0353 10.8539C87.3833 10.634 87.7996 10.4611 88.2863 10.333C88.7731 10.2049 89.341 10.1409 89.9921 10.1409C90.8376 10.1409 91.5613 10.2743 92.1644 10.5412C92.7675 10.808 93.2628 11.1517 93.6492 11.5713C94.0357 11.9908 94.3196 12.4583 94.5 12.9728C94.6804 13.4873 94.7711 13.9944 94.7711 14.495V14.9711Z" fill="#090417"/>
<path d="M108.192 11.0343C107.727 10.5892 107.145 10.2391 106.444 9.98287C105.744 9.72668 104.921 9.59966 103.975 9.59966C103.03 9.59966 102.207 9.72775 101.506 9.98287C100.806 10.2391 100.223 10.5892 99.7589 11.0343C99.2945 11.4795 98.9465 12.0036 98.716 12.6067C98.4854 13.2098 98.3701 13.8567 98.3701 14.5463V14.8217C98.3701 15.5112 98.4854 16.1581 98.716 16.7612C98.9465 17.3644 99.2945 17.8885 99.7589 18.3336C100.223 18.7787 100.806 19.1299 101.506 19.3883C102.207 19.6466 103.03 19.7757 103.975 19.7757C104.921 19.7757 105.744 19.6466 106.444 19.3883C107.145 19.1299 107.727 18.7777 108.192 18.3336C108.656 17.8885 109.002 17.3644 109.23 16.7612C109.458 16.1581 109.572 15.5112 109.572 14.8217V14.5463C109.572 13.8567 109.458 13.2109 109.23 12.6067C109.002 12.0025 108.656 11.4784 108.192 11.0343ZM108.972 14.8622C108.972 15.207 108.936 15.555 108.863 15.9051C108.791 16.2553 108.672 16.5936 108.509 16.9182C108.344 17.2437 108.133 17.5469 107.875 17.8276C107.616 18.1084 107.302 18.3528 106.932 18.562C106.563 18.7702 106.133 18.9346 105.644 19.0541C105.155 19.1737 104.599 19.2335 103.975 19.2335C103.352 19.2335 102.797 19.1726 102.307 19.0499C101.817 18.9271 101.388 18.7606 101.018 18.5492C100.648 18.3379 100.333 18.0902 100.072 17.8063C99.8101 17.5223 99.5988 17.2181 99.4376 16.8925C99.2764 16.567 99.1579 16.2307 99.0832 15.8838C99.0085 15.5358 98.9711 15.1953 98.9711 14.8622V14.495C98.9711 14.1673 99.0074 13.8321 99.08 13.4905C99.1526 13.149 99.2678 12.8159 99.4258 12.4935C99.5838 12.1712 99.7909 11.868 100.047 11.5841C100.302 11.3001 100.616 11.0514 100.985 10.8379C101.355 10.6244 101.787 10.4547 102.282 10.3287C102.777 10.2038 103.341 10.1409 103.975 10.1409C104.609 10.1409 105.172 10.2038 105.664 10.3287C106.156 10.4536 106.588 10.6255 106.961 10.8422C107.334 11.0589 107.646 11.3108 107.899 11.5969C108.152 11.8829 108.359 12.1882 108.521 12.5106C108.682 12.833 108.797 13.165 108.866 13.5076C108.936 13.8492 108.971 14.1823 108.971 14.5046V14.8622H108.972Z" fill="#090417"/>
<path d="M136.394 12.0078C136.282 11.6182 136.122 11.2457 135.918 10.903C135.703 10.5412 135.416 10.222 135.063 9.95298C134.715 9.68825 134.288 9.4769 133.794 9.32639C133.311 9.18015 132.734 9.10542 132.083 9.10542C131.406 9.10542 130.77 9.19936 130.191 9.38296C129.61 9.56763 129.087 9.82275 128.636 10.143C128.182 10.4654 127.793 10.8529 127.48 11.2948C127.451 11.3353 127.424 11.3759 127.397 11.4165C127.228 11.0012 126.976 10.6233 126.651 10.2914C126.3 9.93377 125.841 9.64342 125.286 9.42673C124.738 9.21324 124.05 9.10542 123.242 9.10542C122.581 9.10542 121.958 9.19082 121.396 9.35948C120.829 9.52814 120.315 9.76938 119.869 10.0757C119.537 10.3031 119.241 10.5657 118.982 10.8582V9.32212H117.402V20.0522H118.982V14.9711C118.982 14.6797 119.013 14.3627 119.074 14.0296C119.134 13.7019 119.233 13.3721 119.369 13.0475C119.502 12.7284 119.68 12.4177 119.898 12.1253C120.107 11.8435 120.37 11.5894 120.677 11.3695C120.985 11.1507 121.351 10.9713 121.767 10.8368C122.183 10.7034 122.671 10.6351 123.218 10.6351C123.755 10.6351 124.206 10.6959 124.56 10.8166C124.901 10.934 125.182 11.0888 125.392 11.2766C125.603 11.4645 125.758 11.6791 125.869 11.9321C125.992 12.2128 126.084 12.5128 126.141 12.8234C126.199 13.1468 126.233 13.4852 126.241 13.83C126.249 14.1993 126.254 14.5569 126.254 14.9039V20.0522H127.834V14.8953C127.839 14.605 127.874 14.2911 127.94 13.9624C128.005 13.6411 128.108 13.3144 128.247 12.9931C128.383 12.6771 128.563 12.3729 128.779 12.0858C128.99 11.8082 129.25 11.5595 129.554 11.345C129.859 11.1315 130.22 10.9575 130.631 10.8283C131.043 10.6991 131.524 10.634 132.061 10.634C132.7 10.634 133.22 10.729 133.606 10.9148C133.986 11.0984 134.276 11.3385 134.489 11.6502C134.711 11.9737 134.867 12.3622 134.955 12.8042C135.049 13.2813 135.095 13.8022 135.095 14.3531V20.0511H136.667V14.3274C136.667 13.9517 136.65 13.5663 136.614 13.182C136.575 12.7828 136.501 12.3868 136.394 12.0078Z" fill="#090417"/>
<path d="M144.408 18.0593L140.056 9.32213H138.302L143.648 20.0522H145.152L150.489 9.32213H148.744L144.408 18.0593Z" fill="#090417"/>
<path d="M158.672 14.4929L163.409 9.32213H161.32L157.65 13.308L153.988 9.32213H151.891L156.628 14.5014L151.471 20.0522H153.594L157.65 15.6874L161.714 20.0522H163.836L158.672 14.4929Z" fill="#090417"/>
<path d="M15.0375 13.0839L9.96064 18.1607C9.74715 18.3742 9.4109 18.3849 9.20915 18.1831L0.800781 9.77473L6.59281 3.86528L15.0599 12.3324C15.2616 12.5341 15.252 12.8704 15.0375 13.0839Z" fill="#4C12BC"/>
<path d="M24.0723 9.07234L25.8112 9.02004C25.2326 9.00296 24.653 9.0211 24.0723 9.07234Z" fill="#1D64CC"/>
<path d="M25.4404 22.7112L32.3191 29.59C32.9511 28.4488 33.3311 27.1572 33.3716 25.7962L33.7944 11.7847C31.4726 10.0288 28.6972 9.11075 25.8535 9.02109L25.4404 22.7112Z" fill="#4C12BC"/>
<path d="M32.3188 29.5908L32.318 29.59C32.3172 29.5908 32.3172 29.5916 32.3164 29.5932L32.3188 29.5908Z" fill="#1D64CC"/>
<path d="M16.6691 24.8675C16.4556 25.081 16.445 25.4173 16.6467 25.619L25.0978 34.0701C25.1138 34.0701 25.1287 34.0669 25.1447 34.0658C28.1998 33.9559 30.8994 32.154 32.3191 29.5899L25.4404 22.7112L22.4975 19.7683C22.2957 19.5665 21.9595 19.5772 21.746 19.7907L16.6691 24.8675Z" fill="#7055FA"/>
<path d="M33.4534 1.39519C33.0381 0.985287 32.4489 0.795279 31.8479 0.813426L30.472 0.855057L9.07368 1.4998C4.63839 1.6343 0.933237 5.33838 0.799805 9.77474L24.0725 9.07235C24.6532 9.02112 25.2329 9.00297 25.8114 9.02005L25.8509 9.01898V9.02218C28.6946 9.11185 31.47 10.0299 33.7918 11.7858L34.0138 4.41076L34.0554 3.02307C34.0736 2.42102 33.8836 1.83178 33.4726 1.41654C33.4694 1.41334 33.4672 1.4112 33.464 1.408C33.4608 1.40373 33.4566 1.39946 33.4534 1.39519Z" fill="#7055FA"/>
</g>
<defs>
<clipPath id="clip0">
<rect width="164.637" height="34.8824" fill="white"/>
</clipPath>
</defs>
</svg>
