<svg xmlns="http://www.w3.org/2000/svg" width="25.75" height="38.625" viewBox="0 0 25.75 38.625">
  <g id="mouse" transform="translate(25.75 38.625) rotate(180)">
    <g id="Grupo_497" data-name="Grupo 497">
      <g id="Grupo_496" data-name="Grupo 496">
        <g id="Grupo_830" data-name="Grupo 830">
          <path id="Caminho_401" data-name="Caminho 401" d="M12.875,0A12.887,12.887,0,0,0,0,12.869V25.757a12.875,12.875,0,0,0,25.75,0V12.869A12.887,12.887,0,0,0,12.875,0ZM24.319,25.757a11.444,11.444,0,0,1-22.889,0V12.869a11.444,11.444,0,0,1,22.889,0Z" fill="#fff"/>
          <path id="Caminho_402" data-name="Caminho 402" d="M.715,0A.715.715,0,0,0,0,.715V7.193a.715.715,0,1,0,1.431,0V.715A.715.715,0,0,0,.715,0Z" transform="translate(12.16 4.292)" fill="#fff"/>
        </g>
      </g>
    </g>
  </g>
</svg>
