<svg width="142" height="386" viewBox="0 0 142 386" fill="none" xmlns="http://www.w3.org/2000/svg">
<circle cx="137" cy="381" r="5" transform="rotate(180 137 381)" fill="#7055FA"/>
<circle cx="137" cy="181" r="5" transform="rotate(180 137 181)" fill="#7055FA"/>
<circle cx="137" cy="281" r="5" transform="rotate(180 137 281)" fill="#7055FA"/>
<circle cx="137" cy="81" r="5" transform="rotate(180 137 81)" fill="#7055FA"/>
<circle cx="137" cy="331" r="5" transform="rotate(180 137 331)" fill="#7055FA"/>
<circle cx="137" cy="131" r="5" transform="rotate(180 137 131)" fill="#7055FA"/>
<circle cx="137" cy="231" r="5" transform="rotate(180 137 231)" fill="#7055FA"/>
<circle cx="137" cy="31" r="5" transform="rotate(180 137 31)" fill="#7055FA"/>
<circle cx="137" cy="356" r="5" transform="rotate(180 137 356)" fill="#7055FA"/>
<circle cx="137" cy="156" r="5" transform="rotate(180 137 156)" fill="#7055FA"/>
<circle cx="137" cy="256" r="5" transform="rotate(180 137 256)" fill="#7055FA"/>
<circle cx="137" cy="56" r="5" transform="rotate(180 137 56)" fill="#7055FA"/>
<circle cx="137" cy="306" r="5" transform="rotate(180 137 306)" fill="#7055FA"/>
<circle cx="137" cy="106" r="5" transform="rotate(180 137 106)" fill="#7055FA"/>
<circle cx="137" cy="206" r="5" transform="rotate(180 137 206)" fill="#7055FA"/>
<circle cx="137" cy="6" r="5" transform="rotate(180 137 6)" fill="#7055FA"/>
<circle cx="104" cy="381" r="5" transform="rotate(180 104 381)" fill="#7055FA"/>
<circle cx="104" cy="181" r="5" transform="rotate(180 104 181)" fill="#7055FA"/>
<circle cx="104" cy="281" r="5" transform="rotate(180 104 281)" fill="#7055FA"/>
<circle cx="104" cy="81" r="5" transform="rotate(180 104 81)" fill="#7055FA"/>
<circle cx="104" cy="331" r="5" transform="rotate(180 104 331)" fill="#7055FA"/>
<circle cx="104" cy="131" r="5" transform="rotate(180 104 131)" fill="#7055FA"/>
<circle cx="104" cy="231" r="5" transform="rotate(180 104 231)" fill="#7055FA"/>
<circle cx="104" cy="31" r="5" transform="rotate(180 104 31)" fill="#7055FA"/>
<circle cx="104" cy="356" r="5" transform="rotate(180 104 356)" fill="#7055FA"/>
<circle cx="104" cy="156" r="5" transform="rotate(180 104 156)" fill="#7055FA"/>
<circle cx="104" cy="256" r="5" transform="rotate(180 104 256)" fill="#7055FA"/>
<circle cx="104" cy="56" r="5" transform="rotate(180 104 56)" fill="#7055FA"/>
<circle cx="104" cy="306" r="5" transform="rotate(180 104 306)" fill="#7055FA"/>
<circle cx="104" cy="106" r="5" transform="rotate(180 104 106)" fill="#7055FA"/>
<circle cx="104" cy="206" r="5" transform="rotate(180 104 206)" fill="#7055FA"/>
<circle cx="104" cy="6" r="5" transform="rotate(180 104 6)" fill="#7055FA"/>
<circle cx="71" cy="380" r="5" transform="rotate(180 71 380)" fill="#7055FA"/>
<circle cx="71" cy="180" r="5" transform="rotate(180 71 180)" fill="#7055FA"/>
<circle cx="71" cy="280" r="5" transform="rotate(180 71 280)" fill="#7055FA"/>
<circle cx="71" cy="80" r="5" transform="rotate(180 71 80)" fill="#7055FA"/>
<circle cx="71" cy="330" r="5" transform="rotate(180 71 330)" fill="#7055FA"/>
<circle cx="71" cy="130" r="5" transform="rotate(180 71 130)" fill="#7055FA"/>
<circle cx="71" cy="230" r="5" transform="rotate(180 71 230)" fill="#7055FA"/>
<circle cx="71" cy="30" r="5" transform="rotate(180 71 30)" fill="#7055FA"/>
<circle cx="71" cy="355" r="5" transform="rotate(180 71 355)" fill="#7055FA"/>
<circle cx="71" cy="155" r="5" transform="rotate(180 71 155)" fill="#7055FA"/>
<circle cx="71" cy="255" r="5" transform="rotate(180 71 255)" fill="#7055FA"/>
<circle cx="71" cy="55" r="5" transform="rotate(180 71 55)" fill="#7055FA"/>
<circle cx="71" cy="305" r="5" transform="rotate(180 71 305)" fill="#7055FA"/>
<circle cx="71" cy="105" r="5" transform="rotate(180 71 105)" fill="#7055FA"/>
<circle cx="71" cy="205" r="5" transform="rotate(180 71 205)" fill="#7055FA"/>
<circle cx="71" cy="5" r="5" transform="rotate(180 71 5)" fill="#7055FA"/>
<circle cx="38" cy="380" r="5" transform="rotate(180 38 380)" fill="#7055FA"/>
<circle cx="38" cy="180" r="5" transform="rotate(180 38 180)" fill="#7055FA"/>
<circle cx="38" cy="280" r="5" transform="rotate(180 38 280)" fill="#7055FA"/>
<circle cx="38" cy="80" r="5" transform="rotate(180 38 80)" fill="#7055FA"/>
<circle cx="38" cy="330" r="5" transform="rotate(180 38 330)" fill="#7055FA"/>
<circle cx="38" cy="130" r="5" transform="rotate(180 38 130)" fill="#7055FA"/>
<circle cx="38" cy="230" r="5" transform="rotate(180 38 230)" fill="#7055FA"/>
<circle cx="38" cy="30" r="5" transform="rotate(180 38 30)" fill="#7055FA"/>
<circle cx="38" cy="355" r="5" transform="rotate(180 38 355)" fill="#7055FA"/>
<circle cx="38" cy="155" r="5" transform="rotate(180 38 155)" fill="#7055FA"/>
<circle cx="38" cy="255" r="5" transform="rotate(180 38 255)" fill="#7055FA"/>
<circle cx="38" cy="55" r="5" transform="rotate(180 38 55)" fill="#7055FA"/>
<circle cx="38" cy="305" r="5" transform="rotate(180 38 305)" fill="#7055FA"/>
<circle cx="38" cy="105" r="5" transform="rotate(180 38 105)" fill="#7055FA"/>
<circle cx="38" cy="205" r="5" transform="rotate(180 38 205)" fill="#7055FA"/>
<circle cx="38" cy="5" r="5" transform="rotate(180 38 5)" fill="#7055FA"/>
<circle cx="5" cy="380" r="5" transform="rotate(180 5 380)" fill="#7055FA"/>
<circle cx="5" cy="180" r="5" transform="rotate(180 5 180)" fill="#7055FA"/>
<circle cx="5" cy="280" r="5" transform="rotate(180 5 280)" fill="#7055FA"/>
<circle cx="5" cy="80" r="5" transform="rotate(180 5 80)" fill="#7055FA"/>
<circle cx="5" cy="330" r="5" transform="rotate(180 5 330)" fill="#7055FA"/>
<circle cx="5" cy="130" r="5" transform="rotate(180 5 130)" fill="#7055FA"/>
<circle cx="5" cy="230" r="5" transform="rotate(180 5 230)" fill="#7055FA"/>
<circle cx="5" cy="30" r="5" transform="rotate(180 5 30)" fill="#7055FA"/>
<circle cx="5" cy="355" r="5" transform="rotate(180 5 355)" fill="#7055FA"/>
<circle cx="5" cy="155" r="5" transform="rotate(180 5 155)" fill="#7055FA"/>
<circle cx="5" cy="255" r="5" transform="rotate(180 5 255)" fill="#7055FA"/>
<circle cx="5" cy="55" r="5" transform="rotate(180 5 55)" fill="#7055FA"/>
<circle cx="5" cy="305" r="5" transform="rotate(180 5 305)" fill="#7055FA"/>
<circle cx="5" cy="105" r="5" transform="rotate(180 5 105)" fill="#7055FA"/>
<circle cx="5" cy="205" r="5" transform="rotate(180 5 205)" fill="#7055FA"/>
<circle cx="5" cy="5" r="5" transform="rotate(180 5 5)" fill="#7055FA"/>
</svg>
