<svg width="191" height="395" viewBox="0 0 191 395" fill="none" xmlns="http://www.w3.org/2000/svg">
<circle cx="183.5" cy="387.5" r="7.5" transform="rotate(180 183.5 387.5)" fill="#7055FA"/>
<circle cx="183.5" cy="185.5" r="7.5" transform="rotate(180 183.5 185.5)" fill="#7055FA"/>
<circle cx="183.5" cy="286.5" r="7.5" transform="rotate(180 183.5 286.5)" fill="#7055FA"/>
<circle cx="183.5" cy="84.5" r="7.5" transform="rotate(180 183.5 84.5)" fill="#7055FA"/>
<circle cx="183.5" cy="336.5" r="7.5" transform="rotate(180 183.5 336.5)" fill="#7055FA"/>
<circle cx="183.5" cy="134.5" r="7.5" transform="rotate(180 183.5 134.5)" fill="#7055FA"/>
<circle cx="183.5" cy="235.5" r="7.5" transform="rotate(180 183.5 235.5)" fill="#7055FA"/>
<circle cx="183.5" cy="33.5" r="7.5" transform="rotate(180 183.5 33.5)" fill="#7055FA"/>
<circle cx="183.5" cy="362.5" r="7.5" transform="rotate(180 183.5 362.5)" fill="#7055FA"/>
<circle cx="183.5" cy="160.5" r="7.5" transform="rotate(180 183.5 160.5)" fill="#7055FA"/>
<circle cx="183.5" cy="261.5" r="7.5" transform="rotate(180 183.5 261.5)" fill="#7055FA"/>
<circle cx="183.5" cy="59.5" r="7.5" transform="rotate(180 183.5 59.5)" fill="#7055FA"/>
<circle cx="183.5" cy="311.5" r="7.5" transform="rotate(180 183.5 311.5)" fill="#7055FA"/>
<circle cx="183.5" cy="109.5" r="7.5" transform="rotate(180 183.5 109.5)" fill="#7055FA"/>
<circle cx="183.5" cy="210.5" r="7.5" transform="rotate(180 183.5 210.5)" fill="#7055FA"/>
<circle cx="183.5" cy="8.5" r="7.5" transform="rotate(180 183.5 8.5)" fill="#7055FA"/>
<circle cx="139.5" cy="387.5" r="7.5" transform="rotate(180 139.5 387.5)" fill="#7055FA"/>
<circle cx="139.5" cy="185.5" r="7.5" transform="rotate(180 139.5 185.5)" fill="#7055FA"/>
<circle cx="139.5" cy="286.5" r="7.5" transform="rotate(180 139.5 286.5)" fill="#7055FA"/>
<circle cx="139.5" cy="84.5" r="7.5" transform="rotate(180 139.5 84.5)" fill="#7055FA"/>
<circle cx="139.5" cy="336.5" r="7.5" transform="rotate(180 139.5 336.5)" fill="#7055FA"/>
<circle cx="139.5" cy="134.5" r="7.5" transform="rotate(180 139.5 134.5)" fill="#7055FA"/>
<circle cx="139.5" cy="235.5" r="7.5" transform="rotate(180 139.5 235.5)" fill="#7055FA"/>
<circle cx="139.5" cy="33.5" r="7.5" transform="rotate(180 139.5 33.5)" fill="#7055FA"/>
<circle cx="139.5" cy="362.5" r="7.5" transform="rotate(180 139.5 362.5)" fill="#7055FA"/>
<circle cx="139.5" cy="160.5" r="7.5" transform="rotate(180 139.5 160.5)" fill="#7055FA"/>
<circle cx="139.5" cy="261.5" r="7.5" transform="rotate(180 139.5 261.5)" fill="#7055FA"/>
<circle cx="139.5" cy="59.5" r="7.5" transform="rotate(180 139.5 59.5)" fill="#7055FA"/>
<circle cx="139.5" cy="311.5" r="7.5" transform="rotate(180 139.5 311.5)" fill="#7055FA"/>
<circle cx="139.5" cy="109.5" r="7.5" transform="rotate(180 139.5 109.5)" fill="#7055FA"/>
<circle cx="139.5" cy="210.5" r="7.5" transform="rotate(180 139.5 210.5)" fill="#7055FA"/>
<circle cx="139.5" cy="8.5" r="7.5" transform="rotate(180 139.5 8.5)" fill="#7055FA"/>
<circle cx="95.5" cy="386.5" r="7.5" transform="rotate(180 95.5 386.5)" fill="#7055FA"/>
<circle cx="95.5" cy="184.5" r="7.5" transform="rotate(180 95.5 184.5)" fill="#7055FA"/>
<circle cx="95.5" cy="285.5" r="7.5" transform="rotate(180 95.5 285.5)" fill="#7055FA"/>
<circle cx="95.5" cy="83.5" r="7.5" transform="rotate(180 95.5 83.5)" fill="#7055FA"/>
<circle cx="95.5" cy="335.5" r="7.5" transform="rotate(180 95.5 335.5)" fill="#7055FA"/>
<circle cx="95.5" cy="133.5" r="7.5" transform="rotate(180 95.5 133.5)" fill="#7055FA"/>
<circle cx="95.5" cy="234.5" r="7.5" transform="rotate(180 95.5 234.5)" fill="#7055FA"/>
<circle cx="95.5" cy="32.5" r="7.5" transform="rotate(180 95.5 32.5)" fill="#7055FA"/>
<circle cx="95.5" cy="361.5" r="7.5" transform="rotate(180 95.5 361.5)" fill="#7055FA"/>
<circle cx="95.5" cy="159.5" r="7.5" transform="rotate(180 95.5 159.5)" fill="#7055FA"/>
<circle cx="95.5" cy="260.5" r="7.5" transform="rotate(180 95.5 260.5)" fill="#7055FA"/>
<circle cx="95.5" cy="58.5" r="7.5" transform="rotate(180 95.5 58.5)" fill="#7055FA"/>
<circle cx="95.5" cy="310.5" r="7.5" transform="rotate(180 95.5 310.5)" fill="#7055FA"/>
<circle cx="95.5" cy="108.5" r="7.5" transform="rotate(180 95.5 108.5)" fill="#7055FA"/>
<circle cx="95.5" cy="209.5" r="7.5" transform="rotate(180 95.5 209.5)" fill="#7055FA"/>
<circle cx="95.5" cy="7.5" r="7.5" transform="rotate(180 95.5 7.5)" fill="#7055FA"/>
<circle cx="51.5" cy="386.5" r="7.5" transform="rotate(180 51.5 386.5)" fill="#7055FA"/>
<circle cx="51.5" cy="184.5" r="7.5" transform="rotate(180 51.5 184.5)" fill="#7055FA"/>
<circle cx="51.5" cy="285.5" r="7.5" transform="rotate(180 51.5 285.5)" fill="#7055FA"/>
<circle cx="51.5" cy="83.5" r="7.5" transform="rotate(180 51.5 83.5)" fill="#7055FA"/>
<circle cx="51.5" cy="335.5" r="7.5" transform="rotate(180 51.5 335.5)" fill="#7055FA"/>
<circle cx="51.5" cy="133.5" r="7.5" transform="rotate(180 51.5 133.5)" fill="#7055FA"/>
<circle cx="51.5" cy="234.5" r="7.5" transform="rotate(180 51.5 234.5)" fill="#7055FA"/>
<circle cx="51.5" cy="32.5" r="7.5" transform="rotate(180 51.5 32.5)" fill="#7055FA"/>
<circle cx="51.5" cy="361.5" r="7.5" transform="rotate(180 51.5 361.5)" fill="#7055FA"/>
<circle cx="51.5" cy="159.5" r="7.5" transform="rotate(180 51.5 159.5)" fill="#7055FA"/>
<circle cx="51.5" cy="260.5" r="7.5" transform="rotate(180 51.5 260.5)" fill="#7055FA"/>
<circle cx="51.5" cy="58.5" r="7.5" transform="rotate(180 51.5 58.5)" fill="#7055FA"/>
<circle cx="51.5" cy="310.5" r="7.5" transform="rotate(180 51.5 310.5)" fill="#7055FA"/>
<circle cx="51.5" cy="108.5" r="7.5" transform="rotate(180 51.5 108.5)" fill="#7055FA"/>
<circle cx="51.5" cy="209.5" r="7.5" transform="rotate(180 51.5 209.5)" fill="#7055FA"/>
<circle cx="51.5" cy="7.5" r="7.5" transform="rotate(180 51.5 7.5)" fill="#7055FA"/>
<circle cx="7.5" cy="386.5" r="7.5" transform="rotate(180 7.5 386.5)" fill="#7055FA"/>
<circle cx="7.5" cy="184.5" r="7.5" transform="rotate(180 7.5 184.5)" fill="#7055FA"/>
<circle cx="7.5" cy="285.5" r="7.5" transform="rotate(180 7.5 285.5)" fill="#7055FA"/>
<circle cx="7.5" cy="83.5" r="7.5" transform="rotate(180 7.5 83.5)" fill="#7055FA"/>
<circle cx="7.5" cy="335.5" r="7.5" transform="rotate(180 7.5 335.5)" fill="#7055FA"/>
<circle cx="7.5" cy="133.5" r="7.5" transform="rotate(180 7.5 133.5)" fill="#7055FA"/>
<circle cx="7.5" cy="234.5" r="7.5" transform="rotate(180 7.5 234.5)" fill="#7055FA"/>
<circle cx="7.5" cy="32.5" r="7.5" transform="rotate(180 7.5 32.5)" fill="#7055FA"/>
<circle cx="7.5" cy="361.5" r="7.5" transform="rotate(180 7.5 361.5)" fill="#7055FA"/>
<circle cx="7.5" cy="159.5" r="7.5" transform="rotate(180 7.5 159.5)" fill="#7055FA"/>
<circle cx="7.5" cy="260.5" r="7.5" transform="rotate(180 7.5 260.5)" fill="#7055FA"/>
<circle cx="7.5" cy="58.5" r="7.5" transform="rotate(180 7.5 58.5)" fill="#7055FA"/>
<circle cx="7.5" cy="310.5" r="7.5" transform="rotate(180 7.5 310.5)" fill="#7055FA"/>
<circle cx="7.5" cy="108.5" r="7.5" transform="rotate(180 7.5 108.5)" fill="#7055FA"/>
<circle cx="7.5" cy="209.5" r="7.5" transform="rotate(180 7.5 209.5)" fill="#7055FA"/>
<circle cx="7.5" cy="7.5" r="7.5" transform="rotate(180 7.5 7.5)" fill="#7055FA"/>
</svg>
