<svg xmlns="http://www.w3.org/2000/svg" width="33.073" height="21.96" viewBox="0 0 33.073 21.96">
  <g id="brazil_4_" data-name="brazil (4)" transform="translate(0 -86.02)">
    <path id="Caminho_605" data-name="Caminho 605" d="M32.815,107.98H.258A.258.258,0,0,1,0,107.722V86.278a.258.258,0,0,1,.258-.258H32.815a.258.258,0,0,1,.258.258v21.443A.258.258,0,0,1,32.815,107.98Z" transform="translate(0 0)" fill="#4ba543"/>
    <path id="Caminho_606" data-name="Caminho 606" d="M481.1,86.02v21.96h1.738a.258.258,0,0,0,.258-.258V86.278a.258.258,0,0,0-.258-.258Z" transform="translate(-450.018)" fill="#43a047"/>
    <path id="Caminho_607" data-name="Caminho 607" d="M68.52,132.3l11.859-8.269a.258.258,0,0,1,.3,0L92.534,132.3a.258.258,0,0,1,0,.424l-11.859,8.269a.258.258,0,0,1-.3,0L68.52,132.722A.258.258,0,0,1,68.52,132.3Z" transform="translate(-63.991 -35.511)" fill="#fece3f"/>
    <circle id="Elipse_74" data-name="Elipse 74" cx="4.791" cy="4.791" r="4.791" transform="translate(11.745 92.209)" fill="#2387eb"/>
    <path id="Caminho_608" data-name="Caminho 608" d="M241.545,181.827a4.809,4.809,0,0,0-1,.1,4.792,4.792,0,0,1,0,9.373,4.791,4.791,0,1,0,1-9.478Z" transform="translate(-225.009 -89.618)" fill="#207bd6"/>
    <path id="Caminho_609" data-name="Caminho 609" d="M183.12,215.327l9.253,2.4a4.783,4.783,0,0,0,.246-1.515,4.843,4.843,0,0,0-.025-.49l-8.691-2.257A4.764,4.764,0,0,0,183.12,215.327Z" transform="translate(-171.291 -119.215)" fill="#efefef"/>
    <path id="Caminho_610" data-name="Caminho 610" d="M297.539,242.1l1.862.484a4.783,4.783,0,0,0,.246-1.515,4.848,4.848,0,0,0-.025-.49l-2.083-.541a4.82,4.82,0,0,1,0,2.063Z" transform="translate(-278.319 -144.064)" fill="#dcdcdc"/>
  </g>
</svg>
