<svg id="Grupo_682" data-name="Grupo 682" xmlns="http://www.w3.org/2000/svg" width="34.563" height="34.563" viewBox="0 0 34.563 34.563">
  <g id="Grupo_681" data-name="Grupo 681" transform="translate(0 0)">
    <ellipse id="Elipse_75" data-name="Elipse 75" cx="17.281" cy="17.281" rx="17.281" ry="17.281" fill="#43525a"/>
  </g>
  <path id="Caminho_615" data-name="Caminho 615" d="M81.519,104.148a3.748,3.748,0,0,0-.859-.534c-.3-.147-2.475-1.214-2.884-1.361-.351-.126-.748-.269-1.1.261-.271.4-1.062,1.325-1.32,1.616-.181.206-.346.273-.747.072a14.46,14.46,0,0,1-3.346-2.045A12.316,12.316,0,0,1,68.952,99.3c-.184-.31-.065-.454.163-.681.14-.137.754-.88.8-.951.1-.149.273-.508.273-.508a.908.908,0,0,0-.032-.855c-.071-.138-1.188-2.829-1.294-3.082-.319-.76-.658-.8-.984-.781-.158.011-1.637.022-2.107.533l-.083.088a4.692,4.692,0,0,0-1.425,3.475A5.339,5.339,0,0,0,64.487,98a9.493,9.493,0,0,0,1.522,2.937c.015.02,1.1,1.522,1.638,2.145a14.811,14.811,0,0,0,5.592,4.186,13.211,13.211,0,0,0,4.158,1.2,8.836,8.836,0,0,0,.94-.146,4.381,4.381,0,0,0,2.949-2.069A3.442,3.442,0,0,0,81.519,104.148Z" transform="translate(-55.651 -83.172)" fill="#fff"/>
</svg>
