<svg id="Grupo_687" data-name="Grupo 687" xmlns="http://www.w3.org/2000/svg" width="34.563" height="34.563" viewBox="0 0 34.563 34.563">
  <g id="Grupo_684" data-name="Grupo 684" transform="translate(0 0)">
    <ellipse id="Elipse_79" data-name="Elipse 79" cx="17.281" cy="17.281" rx="17.281" ry="17.281" fill="#43525a"/>
  </g>
  <g id="Grupo_686" data-name="Grupo 686" transform="translate(6.993 6.992)">
    <g id="Grupo_685" data-name="Grupo 685">
      <path id="Caminho_616" data-name="Caminho 616" d="M82.375,195.857a10.088,10.088,0,0,0-20.156-.188c-.007.147-.012.294-.012.442a9.93,9.93,0,0,0,1.375,5.048.143.143,0,0,1,.013.12l-1.787,5.278a.093.093,0,0,0,.116.118l5.5-1.748a.149.149,0,0,1,.113.01,10.166,10.166,0,0,0,4.761,1.186A10.061,10.061,0,0,0,82.379,196.11C82.379,196.037,82.375,195.857,82.375,195.857Zm-16.89,4.762A8,8,0,0,1,64.1,196.11c0-.259.013-.517.039-.787a8.194,8.194,0,0,1,16.313.151c.019.248.028.449.028.635a8.2,8.2,0,0,1-11.651,7.363c-.3-.14-.872-.481-1.052-.59a.146.146,0,0,0-.12-.014l-2.766.88a.081.081,0,0,1-.1-.1l.893-2.635a.146.146,0,0,0-.02-.134C65.613,200.8,65.524,200.677,65.485,200.619Z" transform="translate(-61.803 -186.101)" fill="#fff"/>
    </g>
    <path id="Caminho_617" data-name="Caminho 617" d="M79.83,201.166a2.165,2.165,0,0,0-.5-.309c-.172-.086-1.435-.7-1.672-.789-.2-.073-.433-.155-.64.151-.157.232-.616.768-.765.937-.105.12-.2.159-.433.042a8.373,8.373,0,0,1-1.94-1.186,7.142,7.142,0,0,1-1.338-1.654c-.107-.18-.037-.263.094-.4.081-.08.437-.51.465-.552.057-.087.159-.294.159-.294a.527.527,0,0,0-.019-.5c-.041-.08-.689-1.64-.751-1.787-.184-.44-.381-.463-.57-.453-.092.007-.949.013-1.222.31l-.048.051a2.721,2.721,0,0,0-.826,2.015,3.1,3.1,0,0,0,.128.845,5.512,5.512,0,0,0,.882,1.7c.009.012.636.883.95,1.244a8.584,8.584,0,0,0,3.242,2.427,7.663,7.663,0,0,0,2.411.693,5.229,5.229,0,0,0,.545-.084,2.542,2.542,0,0,0,1.71-1.2A2,2,0,0,0,79.83,201.166Z" transform="translate(-64.544 -188.929)" fill="#fff"/>
  </g>
</svg>
