<svg width="174" height="174" viewBox="0 0 174 174" fill="none" xmlns="http://www.w3.org/2000/svg">
<circle cx="87" cy="87" r="87" fill="#43525A"/>
<path d="M128.905 100.586L110.254 92.5905C108.58 91.8785 106.72 91.728 104.953 92.1615C103.186 92.5951 101.607 93.5894 100.452 94.9956L94.4484 102.339C84.8178 97.0904 76.9023 89.1794 71.6479 79.5517L78.9917 73.5482C80.3978 72.3923 81.392 70.8123 81.8255 69.0444C82.259 67.2766 82.1086 65.4159 81.3968 63.7406L73.4141 45.1022C72.6436 43.2883 71.2584 41.8041 69.5019 40.9106C67.7453 40.0171 65.7301 39.7714 63.8103 40.2167L46.5176 44.2026C44.6621 44.6236 43.0055 45.6644 41.8207 47.1532C40.6359 48.642 39.9938 50.49 40 52.3927C40 97.6045 76.66 134.018 121.618 134C123.521 134.006 125.368 133.363 126.857 132.178C128.345 130.993 129.385 129.336 129.805 127.481L133.789 110.182C134.228 108.264 133.98 106.253 133.087 104.499C132.195 102.745 130.715 101.36 128.905 100.586V100.586ZM121.27 125.204C81.3233 125.021 48.9961 92.6915 48.8125 52.7231L65.4627 48.886L73.1901 66.9186L60.6892 77.1466C69.2061 95.3224 78.7163 104.801 96.8572 113.315L107.082 100.81L125.109 108.541L121.27 125.204Z" fill="white"/>
</svg>
