<svg width="174" height="174" viewBox="0 0 174 174" fill="none" xmlns="http://www.w3.org/2000/svg">
<circle cx="87" cy="87" r="87" fill="#43525A"/>
<path d="M129 46H45C37.2679 46 31 52.1933 31 59.8333V115.167C31 122.807 37.2679 129 45 129H129C136.732 129 143 122.807 143 115.167V59.8333C143 52.1933 136.732 46 129 46ZM129 115.167H45V80.5718C49.2262 83.7448 68.3333 97.3217 68.3333 97.3217C72.545 100.549 79.5975 105.944 87 105.944C94.4025 105.944 101.455 100.549 105.667 97.3217C105.667 97.3217 124.771 83.7477 129 80.5718V115.167ZM129 63.6923C128.309 64.2254 96.3887 87.3069 94.8487 88.3473C92.3696 90.0275 89.2779 92.1111 87 92.1111C84.2554 92.1111 80.3821 89.0707 77.8125 87.0591C76.8179 86.2752 45.6912 63.3032 45 62.77V59.8333H129V63.6923Z" fill="white"/>
</svg>
