<svg width="174" height="174" viewBox="0 0 174 174" fill="none" xmlns="http://www.w3.org/2000/svg">
<circle cx="87" cy="87" r="87" fill="#43525A"/>
<path d="M119.921 53.6594C111.129 44.8469 99.4214 40 86.979 40C61.2969 40 40.3987 60.8982 40.3987 86.5804C40.3987 94.7844 42.5388 102.8 46.6094 109.871L40 134L64.696 127.517C71.4942 131.23 79.1527 133.182 86.958 133.182H86.979C112.64 133.182 134 112.283 134 86.6013C134 74.1589 128.713 62.4719 119.921 53.6594V53.6594ZM86.979 125.334C80.0129 125.334 73.1937 123.467 67.2558 119.942L65.85 119.103L51.2045 122.942L55.1071 108.654L54.1839 107.185C50.3022 101.016 48.267 93.9031 48.267 86.5804C48.267 65.2415 65.6402 47.8683 87 47.8683C97.3442 47.8683 107.059 51.8969 114.361 59.2196C121.663 66.5424 126.153 76.2571 126.132 86.6013C126.132 107.961 108.318 125.334 86.979 125.334V125.334ZM108.213 96.3371C107.059 95.7496 101.331 92.9379 100.261 92.5603C99.1906 92.1616 98.4143 91.9728 97.638 93.1478C96.8616 94.3228 94.6375 96.9246 93.9451 97.7219C93.2737 98.4982 92.5813 98.6031 91.4272 98.0156C84.5871 94.5955 80.0969 91.9098 75.5857 84.1674C74.3897 82.1112 76.7817 82.258 79.0058 77.8098C79.3835 77.0335 79.1946 76.3621 78.9009 75.7746C78.6071 75.1871 76.2781 69.4589 75.3129 67.1299C74.3688 64.8638 73.4036 65.1786 72.6902 65.1366C72.0188 65.0946 71.2424 65.0946 70.4661 65.0946C69.6897 65.0946 68.4308 65.3884 67.3607 66.5424C66.2906 67.7174 63.2902 70.529 63.2902 76.2571C63.2902 81.9853 67.4656 87.5246 68.0321 88.3009C68.6196 89.0772 76.2362 100.827 87.9232 105.884C95.3089 109.073 98.2045 109.346 101.897 108.8C104.142 108.465 108.779 105.989 109.745 103.261C110.71 100.533 110.71 98.2045 110.416 97.7219C110.143 97.1973 109.367 96.9036 108.213 96.3371Z" fill="white"/>
</svg>
